<svg width="275" height="48" viewBox="0 0 275 48" fill="none" xmlns="http://www.w3.org/2000/svg">
<mask id="path-1-outside-1_306_280" maskUnits="userSpaceOnUse" x="0" y="4" width="267" height="45" fill="black">
<rect fill="white" y="4" width="267" height="45"/>
<path d="M5.376 39.616H13.488C15.6 39.616 17.312 39.104 18.624 38.08C19.936 37.056 21.024 35.328 21.888 32.896L20.784 40H1.68V6.112H21.072V9.952C20.208 9.152 19.376 8.512 18.576 8.032C17.808 7.552 16.976 7.2 16.08 6.976C15.216 6.752 14.24 6.608 13.152 6.544C12.064 6.48 10.784 6.448 9.312 6.448H5.376V14.224C5.376 15.856 5.584 17.2 6 18.256C6.416 19.28 7.04 20.08 7.872 20.656C8.704 21.232 9.744 21.632 10.992 21.856C12.24 22.048 13.68 22.144 15.312 22.144V25.936C14.608 25.136 13.76 24.512 12.768 24.064C11.776 23.616 10.784 23.136 9.792 22.624C8.832 22.08 7.936 21.424 7.104 20.656C6.304 19.888 5.728 18.8 5.376 17.392V39.616ZM26.4874 14.272C26.4874 12.48 26.9194 10.992 27.7834 9.808C28.6794 8.624 29.8154 7.712 31.1914 7.072C32.5674 6.4 34.0874 6 35.7514 5.872C37.4474 5.712 39.0954 5.792 40.6954 6.112C42.2954 6.432 43.7674 6.96 45.1114 7.696C46.4554 8.432 47.4634 9.36 48.1354 10.48V15.52C46.9194 13.056 45.4954 11.136 43.8634 9.76C42.2634 8.384 40.6314 7.44 38.9674 6.928C37.3034 6.416 35.6874 6.288 34.1194 6.544C32.5514 6.768 31.2234 7.264 30.1354 8.032C29.2074 8.64 28.5674 9.424 28.2154 10.384C27.8634 11.312 27.9594 12.352 28.5034 13.504C29.0474 14.656 30.1034 15.888 31.6714 17.2C33.2714 18.512 35.5434 19.856 38.4874 21.232C39.7994 21.808 41.0634 22.416 42.2794 23.056C43.5274 23.696 44.6154 24.448 45.5434 25.312C46.5034 26.144 47.2714 27.104 47.8474 28.192C48.4234 29.248 48.7114 30.48 48.7114 31.888C48.7114 33.2 48.4554 34.352 47.9434 35.344C47.4634 36.336 46.7914 37.184 45.9274 37.888C44.5514 38.944 42.8874 39.616 40.9354 39.904C39.0154 40.192 37.0154 40.128 34.9354 39.712C32.8874 39.296 30.8874 38.544 28.9354 37.456C27.0154 36.336 25.3834 34.912 24.0394 33.184V26.512C25.2234 29.488 26.7114 31.984 28.5034 34C30.3274 35.984 32.2474 37.456 34.2634 38.416C36.2794 39.344 38.2794 39.744 40.2634 39.616C42.2794 39.488 44.0394 38.784 45.5434 37.504C46.3434 36.832 46.8554 36.048 47.0794 35.152C47.3034 34.224 47.1114 33.216 46.5034 32.128C45.8954 31.008 44.7914 29.824 43.1914 28.576C41.6234 27.328 39.4474 26.064 36.6634 24.784C35.3834 24.208 34.1354 23.6 32.9194 22.96C31.7034 22.288 30.6154 21.536 29.6554 20.704C28.6954 19.872 27.9274 18.944 27.3514 17.92C26.7754 16.864 26.4874 15.648 26.4874 14.272ZM63.6386 21.568C62.4866 21.568 61.4146 21.264 60.4226 20.656C59.4306 20.048 58.5506 19.184 57.7826 18.064C56.8866 16.784 56.2626 15.184 55.9106 13.264V40H52.0706V6.112H60.5666C62.3266 6.112 63.9906 6.256 65.5586 6.544C67.1266 6.832 68.4866 7.28 69.6386 7.888C70.8226 8.496 71.7506 9.296 72.4226 10.288C73.1266 11.248 73.4786 12.416 73.4786 13.792C73.4786 15.136 73.1906 16.304 72.6146 17.296C72.0706 18.256 71.3346 19.056 70.4066 19.696C69.4786 20.336 68.4226 20.816 67.2386 21.136C66.0866 21.424 64.8866 21.568 63.6386 21.568ZM69.6386 13.792C69.6386 12.416 69.3666 11.264 68.8226 10.336C68.3106 9.408 67.6226 8.656 66.7586 8.08C65.9266 7.504 64.9666 7.088 63.8786 6.832C62.7906 6.576 61.6866 6.448 60.5666 6.448H55.9106V9.616C55.9106 11.28 56.0866 12.816 56.4386 14.224C56.7906 15.6 57.3346 16.8 58.0706 17.824C58.7746 18.912 59.5906 19.744 60.5186 20.32C61.4786 20.896 62.5186 21.184 63.6386 21.184C64.4386 21.184 65.1906 21.056 65.8946 20.8C66.6306 20.512 67.2706 20.064 67.8146 19.456C68.3906 18.848 68.8386 18.08 69.1586 17.152C69.4786 16.224 69.6386 15.104 69.6386 13.792ZM88.7246 26.992C86.6766 27.184 84.9966 27.616 83.6846 28.288C82.3726 28.928 81.2846 29.696 80.4206 30.592C79.5886 31.456 78.9326 32.4 78.4526 33.424C77.9726 34.416 77.5406 35.344 77.1566 36.208C76.9326 36.816 76.6926 37.376 76.4366 37.888C76.2126 38.4 75.9566 38.832 75.6686 39.184C75.3806 39.536 75.0446 39.808 74.6606 40C74.2766 40.224 73.8126 40.32 73.2686 40.288C73.1086 40.256 72.9806 40.224 72.8846 40.192C72.7886 40.192 72.6606 40.112 72.5006 39.952C71.1886 39.376 70.6606 37.984 70.9166 35.776C71.0446 34.72 71.2686 33.536 71.5886 32.224C71.9406 30.88 72.4046 29.44 72.9806 27.904C73.6206 26.176 74.3566 24.368 75.1886 22.48C76.0206 20.56 76.9006 18.656 77.8286 16.768C78.7566 14.848 79.7006 12.976 80.6606 11.152C81.6206 9.328 82.5646 7.648 83.4926 6.112H83.8286L98.1806 40H94.1486L88.7246 26.992ZM81.5246 10.24C80.7886 11.648 80.0366 13.104 79.2686 14.608C78.5326 16.112 77.7966 17.632 77.0606 19.168C76.3566 20.672 75.6846 22.176 75.0446 23.68C74.4046 25.184 73.8286 26.624 73.3166 28C72.7406 29.536 72.2766 30.96 71.9246 32.272C71.6046 33.584 71.3806 34.752 71.2526 35.776C71.1886 36.768 71.2526 37.616 71.4446 38.32C71.6686 38.992 72.0686 39.424 72.6446 39.616C72.8046 39.68 72.9166 39.728 72.9806 39.76C73.0766 39.76 73.1886 39.792 73.3166 39.856C74.2766 39.92 74.9966 39.6 75.4766 38.896C75.9566 38.16 76.3886 37.232 76.7726 36.112C77.1566 35.216 77.6046 34.256 78.1166 33.232C78.6286 32.208 79.3006 31.248 80.1326 30.352C80.9966 29.424 82.1006 28.624 83.4446 27.952C84.7886 27.28 86.5006 26.848 88.5806 26.656L81.5246 10.24ZM114.244 7.024C112.196 7.6 110.516 8.608 109.204 10.048C107.892 11.456 106.9 13.088 106.228 14.944C105.588 16.8 105.236 18.768 105.172 20.848C105.14 22.896 105.348 24.832 105.796 26.656C106.308 28.48 107.092 30.272 108.148 32.032C109.236 33.792 110.532 35.312 112.036 36.592C113.54 37.872 115.204 38.8 117.028 39.376C118.884 39.92 120.836 39.92 122.884 39.376C124.228 39.024 125.396 38.48 126.388 37.744C127.412 36.976 128.276 36.096 128.98 35.104C129.716 34.08 130.292 32.976 130.708 31.792C131.156 30.576 131.46 29.312 131.62 28V34.096C130.564 35.44 129.284 36.592 127.78 37.552C126.308 38.48 124.708 39.168 122.98 39.616C120.676 40.288 118.42 40.464 116.212 40.144C114.004 39.824 111.956 39.12 110.068 38.032C108.212 36.944 106.58 35.504 105.172 33.712C103.764 31.92 102.74 29.888 102.1 27.616C101.524 25.344 101.396 23.088 101.716 20.848C102.036 18.608 102.74 16.544 103.828 14.656C104.916 12.736 106.34 11.088 108.1 9.712C109.86 8.304 111.876 7.296 114.148 6.688C115.492 6.336 116.74 6.128 117.892 6.064C119.044 5.968 120.116 5.984 121.108 6.112C122.1 6.208 122.996 6.4 123.796 6.688C124.628 6.944 125.364 7.232 126.004 7.552C127.54 8.352 128.82 9.376 129.844 10.624V15.616C128.788 13.504 127.492 11.712 125.956 10.24C125.316 9.632 124.58 9.056 123.748 8.512C122.948 7.936 122.052 7.488 121.06 7.168C120.1 6.816 119.044 6.624 117.892 6.592C116.772 6.528 115.556 6.672 114.244 7.024ZM119.716 44.08C119.716 44.88 119.492 45.488 119.044 45.904C118.596 46.352 118.036 46.656 117.364 46.816C116.724 47.008 116.036 47.088 115.3 47.056C114.564 47.056 113.924 47.008 113.38 46.912L114.004 45.52C114.292 45.52 114.724 45.536 115.3 45.568C115.876 45.632 116.452 45.632 117.028 45.568C117.636 45.504 118.18 45.376 118.66 45.184C119.14 44.992 119.412 44.656 119.476 44.176C119.508 43.92 119.444 43.696 119.284 43.504C119.124 43.344 118.9 43.216 118.612 43.12C118.356 43.024 118.084 42.944 117.796 42.88C117.508 42.848 117.268 42.832 117.076 42.832L117.892 40H118.132L117.604 41.728C118.532 41.824 119.108 42.064 119.332 42.448C119.588 42.832 119.716 43.376 119.716 44.08ZM147.665 6.592C149.905 5.952 152.129 5.808 154.337 6.16C156.577 6.48 158.625 7.2 160.481 8.32C162.369 9.408 164.001 10.848 165.377 12.64C166.785 14.432 167.777 16.464 168.353 18.736C168.993 20.976 169.153 23.216 168.833 25.456C168.513 27.664 167.809 29.728 166.721 31.648C165.633 33.536 164.193 35.184 162.401 36.592C160.641 37.968 158.625 38.96 156.353 39.568C154.081 40.208 151.841 40.368 149.633 40.048C147.425 39.728 145.377 39.024 143.489 37.936C141.633 36.848 140.001 35.408 138.593 33.616C137.185 31.824 136.177 29.776 135.569 27.472C134.961 25.2 134.817 22.944 135.137 20.704C135.489 18.464 136.209 16.4 137.297 14.512C138.417 12.624 139.857 10.992 141.617 9.616C143.377 8.208 145.393 7.2 147.665 6.592ZM147.713 6.976C145.665 7.52 143.985 8.496 142.673 9.904C141.393 11.28 140.433 12.896 139.793 14.752C139.153 16.608 138.817 18.576 138.785 20.656C138.753 22.704 138.977 24.64 139.457 26.464C139.937 28.288 140.705 30.08 141.761 31.84C142.817 33.6 144.081 35.12 145.553 36.4C147.025 37.648 148.673 38.576 150.497 39.184C152.321 39.76 154.241 39.776 156.257 39.232C158.305 38.72 159.985 37.76 161.297 36.352C162.609 34.912 163.585 33.264 164.225 31.408C164.897 29.552 165.249 27.6 165.281 25.552C165.345 23.472 165.137 21.52 164.657 19.696C164.177 17.84 163.409 16.032 162.353 14.272C161.297 12.512 160.017 10.992 158.513 9.712C157.041 8.432 155.377 7.52 153.521 6.976C151.697 6.4 149.761 6.4 147.713 6.976ZM204.957 40H185.805V6.112H189.645V39.616H197.757C199.837 39.616 201.517 39.104 202.797 38.08C204.109 37.056 205.213 35.328 206.109 32.896L204.957 40ZM213.269 27.712C213.269 29.696 213.637 31.536 214.373 33.232C215.141 34.928 216.165 36.32 217.445 37.408C218.757 38.464 220.277 39.168 222.005 39.52C223.733 39.84 225.557 39.632 227.477 38.896C229.781 38.064 231.573 36.688 232.853 34.768C234.165 32.848 234.821 30.496 234.821 27.712C234.821 25.92 234.789 23.984 234.725 21.904C234.693 19.792 234.565 17.744 234.341 15.76C234.117 13.744 233.781 11.888 233.333 10.192C232.917 8.464 232.309 7.088 231.509 6.064H235.253V27.712C235.253 30.4 234.597 32.768 233.285 34.816C232.005 36.864 230.101 38.352 227.573 39.28C225.429 40.048 223.269 40.32 221.093 40.096C218.949 39.872 217.013 39.248 215.285 38.224C213.557 37.168 212.149 35.744 211.061 33.952C210.005 32.16 209.477 30.08 209.477 27.712V6.064H213.269V27.712ZM255.834 26.992C253.786 27.184 252.106 27.616 250.794 28.288C249.482 28.928 248.394 29.696 247.53 30.592C246.698 31.456 246.042 32.4 245.562 33.424C245.082 34.416 244.65 35.344 244.266 36.208C244.042 36.816 243.802 37.376 243.546 37.888C243.322 38.4 243.066 38.832 242.778 39.184C242.49 39.536 242.154 39.808 241.77 40C241.386 40.224 240.922 40.32 240.378 40.288C240.218 40.256 240.09 40.224 239.994 40.192C239.898 40.192 239.77 40.112 239.61 39.952C238.298 39.376 237.77 37.984 238.026 35.776C238.154 34.72 238.378 33.536 238.698 32.224C239.05 30.88 239.514 29.44 240.09 27.904C240.73 26.176 241.466 24.368 242.298 22.48C243.13 20.56 244.01 18.656 244.938 16.768C245.866 14.848 246.81 12.976 247.77 11.152C248.73 9.328 249.674 7.648 250.602 6.112H250.938L265.29 40H261.258L255.834 26.992ZM248.634 10.24C247.898 11.648 247.146 13.104 246.378 14.608C245.642 16.112 244.906 17.632 244.17 19.168C243.466 20.672 242.794 22.176 242.154 23.68C241.514 25.184 240.938 26.624 240.426 28C239.85 29.536 239.386 30.96 239.034 32.272C238.714 33.584 238.49 34.752 238.362 35.776C238.298 36.768 238.362 37.616 238.554 38.32C238.778 38.992 239.178 39.424 239.754 39.616C239.914 39.68 240.026 39.728 240.09 39.76C240.186 39.76 240.298 39.792 240.426 39.856C241.386 39.92 242.106 39.6 242.586 38.896C243.066 38.16 243.498 37.232 243.882 36.112C244.266 35.216 244.714 34.256 245.226 33.232C245.738 32.208 246.41 31.248 247.242 30.352C248.106 29.424 249.21 28.624 250.554 27.952C251.898 27.28 253.61 26.848 255.69 26.656L248.634 10.24Z"/>
</mask>
<path d="M5.376 39.616H13.488C15.6 39.616 17.312 39.104 18.624 38.08C19.936 37.056 21.024 35.328 21.888 32.896L20.784 40H1.68V6.112H21.072V9.952C20.208 9.152 19.376 8.512 18.576 8.032C17.808 7.552 16.976 7.2 16.08 6.976C15.216 6.752 14.24 6.608 13.152 6.544C12.064 6.48 10.784 6.448 9.312 6.448H5.376V14.224C5.376 15.856 5.584 17.2 6 18.256C6.416 19.28 7.04 20.08 7.872 20.656C8.704 21.232 9.744 21.632 10.992 21.856C12.24 22.048 13.68 22.144 15.312 22.144V25.936C14.608 25.136 13.76 24.512 12.768 24.064C11.776 23.616 10.784 23.136 9.792 22.624C8.832 22.08 7.936 21.424 7.104 20.656C6.304 19.888 5.728 18.8 5.376 17.392V39.616ZM26.4874 14.272C26.4874 12.48 26.9194 10.992 27.7834 9.808C28.6794 8.624 29.8154 7.712 31.1914 7.072C32.5674 6.4 34.0874 6 35.7514 5.872C37.4474 5.712 39.0954 5.792 40.6954 6.112C42.2954 6.432 43.7674 6.96 45.1114 7.696C46.4554 8.432 47.4634 9.36 48.1354 10.48V15.52C46.9194 13.056 45.4954 11.136 43.8634 9.76C42.2634 8.384 40.6314 7.44 38.9674 6.928C37.3034 6.416 35.6874 6.288 34.1194 6.544C32.5514 6.768 31.2234 7.264 30.1354 8.032C29.2074 8.64 28.5674 9.424 28.2154 10.384C27.8634 11.312 27.9594 12.352 28.5034 13.504C29.0474 14.656 30.1034 15.888 31.6714 17.2C33.2714 18.512 35.5434 19.856 38.4874 21.232C39.7994 21.808 41.0634 22.416 42.2794 23.056C43.5274 23.696 44.6154 24.448 45.5434 25.312C46.5034 26.144 47.2714 27.104 47.8474 28.192C48.4234 29.248 48.7114 30.48 48.7114 31.888C48.7114 33.2 48.4554 34.352 47.9434 35.344C47.4634 36.336 46.7914 37.184 45.9274 37.888C44.5514 38.944 42.8874 39.616 40.9354 39.904C39.0154 40.192 37.0154 40.128 34.9354 39.712C32.8874 39.296 30.8874 38.544 28.9354 37.456C27.0154 36.336 25.3834 34.912 24.0394 33.184V26.512C25.2234 29.488 26.7114 31.984 28.5034 34C30.3274 35.984 32.2474 37.456 34.2634 38.416C36.2794 39.344 38.2794 39.744 40.2634 39.616C42.2794 39.488 44.0394 38.784 45.5434 37.504C46.3434 36.832 46.8554 36.048 47.0794 35.152C47.3034 34.224 47.1114 33.216 46.5034 32.128C45.8954 31.008 44.7914 29.824 43.1914 28.576C41.6234 27.328 39.4474 26.064 36.6634 24.784C35.3834 24.208 34.1354 23.6 32.9194 22.96C31.7034 22.288 30.6154 21.536 29.6554 20.704C28.6954 19.872 27.9274 18.944 27.3514 17.92C26.7754 16.864 26.4874 15.648 26.4874 14.272ZM63.6386 21.568C62.4866 21.568 61.4146 21.264 60.4226 20.656C59.4306 20.048 58.5506 19.184 57.7826 18.064C56.8866 16.784 56.2626 15.184 55.9106 13.264V40H52.0706V6.112H60.5666C62.3266 6.112 63.9906 6.256 65.5586 6.544C67.1266 6.832 68.4866 7.28 69.6386 7.888C70.8226 8.496 71.7506 9.296 72.4226 10.288C73.1266 11.248 73.4786 12.416 73.4786 13.792C73.4786 15.136 73.1906 16.304 72.6146 17.296C72.0706 18.256 71.3346 19.056 70.4066 19.696C69.4786 20.336 68.4226 20.816 67.2386 21.136C66.0866 21.424 64.8866 21.568 63.6386 21.568ZM69.6386 13.792C69.6386 12.416 69.3666 11.264 68.8226 10.336C68.3106 9.408 67.6226 8.656 66.7586 8.08C65.9266 7.504 64.9666 7.088 63.8786 6.832C62.7906 6.576 61.6866 6.448 60.5666 6.448H55.9106V9.616C55.9106 11.28 56.0866 12.816 56.4386 14.224C56.7906 15.6 57.3346 16.8 58.0706 17.824C58.7746 18.912 59.5906 19.744 60.5186 20.32C61.4786 20.896 62.5186 21.184 63.6386 21.184C64.4386 21.184 65.1906 21.056 65.8946 20.8C66.6306 20.512 67.2706 20.064 67.8146 19.456C68.3906 18.848 68.8386 18.08 69.1586 17.152C69.4786 16.224 69.6386 15.104 69.6386 13.792ZM88.7246 26.992C86.6766 27.184 84.9966 27.616 83.6846 28.288C82.3726 28.928 81.2846 29.696 80.4206 30.592C79.5886 31.456 78.9326 32.4 78.4526 33.424C77.9726 34.416 77.5406 35.344 77.1566 36.208C76.9326 36.816 76.6926 37.376 76.4366 37.888C76.2126 38.4 75.9566 38.832 75.6686 39.184C75.3806 39.536 75.0446 39.808 74.6606 40C74.2766 40.224 73.8126 40.32 73.2686 40.288C73.1086 40.256 72.9806 40.224 72.8846 40.192C72.7886 40.192 72.6606 40.112 72.5006 39.952C71.1886 39.376 70.6606 37.984 70.9166 35.776C71.0446 34.72 71.2686 33.536 71.5886 32.224C71.9406 30.88 72.4046 29.44 72.9806 27.904C73.6206 26.176 74.3566 24.368 75.1886 22.48C76.0206 20.56 76.9006 18.656 77.8286 16.768C78.7566 14.848 79.7006 12.976 80.6606 11.152C81.6206 9.328 82.5646 7.648 83.4926 6.112H83.8286L98.1806 40H94.1486L88.7246 26.992ZM81.5246 10.24C80.7886 11.648 80.0366 13.104 79.2686 14.608C78.5326 16.112 77.7966 17.632 77.0606 19.168C76.3566 20.672 75.6846 22.176 75.0446 23.68C74.4046 25.184 73.8286 26.624 73.3166 28C72.7406 29.536 72.2766 30.96 71.9246 32.272C71.6046 33.584 71.3806 34.752 71.2526 35.776C71.1886 36.768 71.2526 37.616 71.4446 38.32C71.6686 38.992 72.0686 39.424 72.6446 39.616C72.8046 39.68 72.9166 39.728 72.9806 39.76C73.0766 39.76 73.1886 39.792 73.3166 39.856C74.2766 39.92 74.9966 39.6 75.4766 38.896C75.9566 38.16 76.3886 37.232 76.7726 36.112C77.1566 35.216 77.6046 34.256 78.1166 33.232C78.6286 32.208 79.3006 31.248 80.1326 30.352C80.9966 29.424 82.1006 28.624 83.4446 27.952C84.7886 27.28 86.5006 26.848 88.5806 26.656L81.5246 10.24ZM114.244 7.024C112.196 7.6 110.516 8.608 109.204 10.048C107.892 11.456 106.9 13.088 106.228 14.944C105.588 16.8 105.236 18.768 105.172 20.848C105.14 22.896 105.348 24.832 105.796 26.656C106.308 28.48 107.092 30.272 108.148 32.032C109.236 33.792 110.532 35.312 112.036 36.592C113.54 37.872 115.204 38.8 117.028 39.376C118.884 39.92 120.836 39.92 122.884 39.376C124.228 39.024 125.396 38.48 126.388 37.744C127.412 36.976 128.276 36.096 128.98 35.104C129.716 34.08 130.292 32.976 130.708 31.792C131.156 30.576 131.46 29.312 131.62 28V34.096C130.564 35.44 129.284 36.592 127.78 37.552C126.308 38.48 124.708 39.168 122.98 39.616C120.676 40.288 118.42 40.464 116.212 40.144C114.004 39.824 111.956 39.12 110.068 38.032C108.212 36.944 106.58 35.504 105.172 33.712C103.764 31.92 102.74 29.888 102.1 27.616C101.524 25.344 101.396 23.088 101.716 20.848C102.036 18.608 102.74 16.544 103.828 14.656C104.916 12.736 106.34 11.088 108.1 9.712C109.86 8.304 111.876 7.296 114.148 6.688C115.492 6.336 116.74 6.128 117.892 6.064C119.044 5.968 120.116 5.984 121.108 6.112C122.1 6.208 122.996 6.4 123.796 6.688C124.628 6.944 125.364 7.232 126.004 7.552C127.54 8.352 128.82 9.376 129.844 10.624V15.616C128.788 13.504 127.492 11.712 125.956 10.24C125.316 9.632 124.58 9.056 123.748 8.512C122.948 7.936 122.052 7.488 121.06 7.168C120.1 6.816 119.044 6.624 117.892 6.592C116.772 6.528 115.556 6.672 114.244 7.024ZM119.716 44.08C119.716 44.88 119.492 45.488 119.044 45.904C118.596 46.352 118.036 46.656 117.364 46.816C116.724 47.008 116.036 47.088 115.3 47.056C114.564 47.056 113.924 47.008 113.38 46.912L114.004 45.52C114.292 45.52 114.724 45.536 115.3 45.568C115.876 45.632 116.452 45.632 117.028 45.568C117.636 45.504 118.18 45.376 118.66 45.184C119.14 44.992 119.412 44.656 119.476 44.176C119.508 43.92 119.444 43.696 119.284 43.504C119.124 43.344 118.9 43.216 118.612 43.12C118.356 43.024 118.084 42.944 117.796 42.88C117.508 42.848 117.268 42.832 117.076 42.832L117.892 40H118.132L117.604 41.728C118.532 41.824 119.108 42.064 119.332 42.448C119.588 42.832 119.716 43.376 119.716 44.08ZM147.665 6.592C149.905 5.952 152.129 5.808 154.337 6.16C156.577 6.48 158.625 7.2 160.481 8.32C162.369 9.408 164.001 10.848 165.377 12.64C166.785 14.432 167.777 16.464 168.353 18.736C168.993 20.976 169.153 23.216 168.833 25.456C168.513 27.664 167.809 29.728 166.721 31.648C165.633 33.536 164.193 35.184 162.401 36.592C160.641 37.968 158.625 38.96 156.353 39.568C154.081 40.208 151.841 40.368 149.633 40.048C147.425 39.728 145.377 39.024 143.489 37.936C141.633 36.848 140.001 35.408 138.593 33.616C137.185 31.824 136.177 29.776 135.569 27.472C134.961 25.2 134.817 22.944 135.137 20.704C135.489 18.464 136.209 16.4 137.297 14.512C138.417 12.624 139.857 10.992 141.617 9.616C143.377 8.208 145.393 7.2 147.665 6.592ZM147.713 6.976C145.665 7.52 143.985 8.496 142.673 9.904C141.393 11.28 140.433 12.896 139.793 14.752C139.153 16.608 138.817 18.576 138.785 20.656C138.753 22.704 138.977 24.64 139.457 26.464C139.937 28.288 140.705 30.08 141.761 31.84C142.817 33.6 144.081 35.12 145.553 36.4C147.025 37.648 148.673 38.576 150.497 39.184C152.321 39.76 154.241 39.776 156.257 39.232C158.305 38.72 159.985 37.76 161.297 36.352C162.609 34.912 163.585 33.264 164.225 31.408C164.897 29.552 165.249 27.6 165.281 25.552C165.345 23.472 165.137 21.52 164.657 19.696C164.177 17.84 163.409 16.032 162.353 14.272C161.297 12.512 160.017 10.992 158.513 9.712C157.041 8.432 155.377 7.52 153.521 6.976C151.697 6.4 149.761 6.4 147.713 6.976ZM204.957 40H185.805V6.112H189.645V39.616H197.757C199.837 39.616 201.517 39.104 202.797 38.08C204.109 37.056 205.213 35.328 206.109 32.896L204.957 40ZM213.269 27.712C213.269 29.696 213.637 31.536 214.373 33.232C215.141 34.928 216.165 36.32 217.445 37.408C218.757 38.464 220.277 39.168 222.005 39.52C223.733 39.84 225.557 39.632 227.477 38.896C229.781 38.064 231.573 36.688 232.853 34.768C234.165 32.848 234.821 30.496 234.821 27.712C234.821 25.92 234.789 23.984 234.725 21.904C234.693 19.792 234.565 17.744 234.341 15.76C234.117 13.744 233.781 11.888 233.333 10.192C232.917 8.464 232.309 7.088 231.509 6.064H235.253V27.712C235.253 30.4 234.597 32.768 233.285 34.816C232.005 36.864 230.101 38.352 227.573 39.28C225.429 40.048 223.269 40.32 221.093 40.096C218.949 39.872 217.013 39.248 215.285 38.224C213.557 37.168 212.149 35.744 211.061 33.952C210.005 32.16 209.477 30.08 209.477 27.712V6.064H213.269V27.712ZM255.834 26.992C253.786 27.184 252.106 27.616 250.794 28.288C249.482 28.928 248.394 29.696 247.53 30.592C246.698 31.456 246.042 32.4 245.562 33.424C245.082 34.416 244.65 35.344 244.266 36.208C244.042 36.816 243.802 37.376 243.546 37.888C243.322 38.4 243.066 38.832 242.778 39.184C242.49 39.536 242.154 39.808 241.77 40C241.386 40.224 240.922 40.32 240.378 40.288C240.218 40.256 240.09 40.224 239.994 40.192C239.898 40.192 239.77 40.112 239.61 39.952C238.298 39.376 237.77 37.984 238.026 35.776C238.154 34.72 238.378 33.536 238.698 32.224C239.05 30.88 239.514 29.44 240.09 27.904C240.73 26.176 241.466 24.368 242.298 22.48C243.13 20.56 244.01 18.656 244.938 16.768C245.866 14.848 246.81 12.976 247.77 11.152C248.73 9.328 249.674 7.648 250.602 6.112H250.938L265.29 40H261.258L255.834 26.992ZM248.634 10.24C247.898 11.648 247.146 13.104 246.378 14.608C245.642 16.112 244.906 17.632 244.17 19.168C243.466 20.672 242.794 22.176 242.154 23.68C241.514 25.184 240.938 26.624 240.426 28C239.85 29.536 239.386 30.96 239.034 32.272C238.714 33.584 238.49 34.752 238.362 35.776C238.298 36.768 238.362 37.616 238.554 38.32C238.778 38.992 239.178 39.424 239.754 39.616C239.914 39.68 240.026 39.728 240.09 39.76C240.186 39.76 240.298 39.792 240.426 39.856C241.386 39.92 242.106 39.6 242.586 38.896C243.066 38.16 243.498 37.232 243.882 36.112C244.266 35.216 244.714 34.256 245.226 33.232C245.738 32.208 246.41 31.248 247.242 30.352C248.106 29.424 249.21 28.624 250.554 27.952C251.898 27.28 253.61 26.848 255.69 26.656L248.634 10.24Z" fill="white"/>
<path d="M5.376 39.616H4.376V40.616H5.376V39.616ZM18.624 38.08L18.0087 37.2917L18.624 38.08ZM21.888 32.896L22.8761 33.0496L20.9457 32.5612L21.888 32.896ZM20.784 40V41H21.6406L21.7721 40.1536L20.784 40ZM1.68 40H0.68V41H1.68V40ZM1.68 6.112V5.112H0.68V6.112H1.68ZM21.072 6.112H22.072V5.112H21.072V6.112ZM21.072 9.952L20.3926 10.6858L22.072 12.2408V9.952H21.072ZM18.576 8.032L18.046 8.88L18.0537 8.88482L18.0615 8.88949L18.576 8.032ZM16.08 6.976L15.829 7.94403L15.8375 7.94614L16.08 6.976ZM13.152 6.544L13.0933 7.54227H13.0933L13.152 6.544ZM5.376 6.448V5.448H4.376V6.448H5.376ZM6 18.256L5.06954 18.6225L5.07353 18.6324L6 18.256ZM7.872 20.656L7.30279 21.4782L7.872 20.656ZM10.992 21.856L10.8153 22.8403L10.8276 22.8425L10.8399 22.8444L10.992 21.856ZM15.312 22.144H16.312V21.144H15.312V22.144ZM15.312 25.936L14.5613 26.5966L16.312 28.5861V25.936H15.312ZM12.768 24.064L12.3564 24.9754H12.3564L12.768 24.064ZM9.792 22.624L9.29899 23.494L9.31599 23.5037L9.33336 23.5126L9.792 22.624ZM7.104 20.656L6.41147 21.3774L6.41853 21.3842L6.42572 21.3908L7.104 20.656ZM5.376 17.392L6.34614 17.1495L4.376 17.392H5.376ZM5.376 40.616H13.488V38.616H5.376V40.616ZM13.488 40.616C15.7621 40.616 17.7089 40.0628 19.2393 38.8683L18.0087 37.2917C16.9151 38.1452 15.4379 38.616 13.488 38.616V40.616ZM19.2393 38.8683C20.7625 37.6795 21.935 35.751 22.8303 33.2308L20.9457 32.5612C20.113 34.905 19.1095 36.4325 18.0087 37.2917L19.2393 38.8683ZM20.8999 32.7424L19.7959 39.8464L21.7721 40.1536L22.8761 33.0496L20.8999 32.7424ZM20.784 39H1.68V41H20.784V39ZM2.68 40V6.112H0.68V40H2.68ZM1.68 7.112H21.072V5.112H1.68V7.112ZM20.072 6.112V9.952H22.072V6.112H20.072ZM21.7514 9.21824C20.8493 8.38299 19.9626 7.69776 19.0905 7.17451L18.0615 8.88949C18.7894 9.32624 19.5667 9.92101 20.3926 10.6858L21.7514 9.21824ZM19.106 7.184C18.2474 6.64738 17.3181 6.25475 16.3225 6.00586L15.8375 7.94614C16.6339 8.14524 17.3686 8.45662 18.046 8.88L19.106 7.184ZM16.331 6.008C15.392 5.76457 14.35 5.61274 13.2107 5.54572L13.0933 7.54227C14.13 7.60326 15.04 7.73942 15.829 7.944L16.331 6.008ZM13.2107 5.54572C12.0978 5.48026 10.7973 5.448 9.312 5.448V7.448C10.7707 7.448 12.0302 7.47974 13.0933 7.54227L13.2107 5.54572ZM9.312 5.448H5.376V7.448H9.312V5.448ZM4.376 6.448V14.224H6.376V6.448H4.376ZM4.376 14.224C4.376 15.931 4.59218 17.4106 5.06959 18.6225L6.93041 17.8895C6.57582 16.9894 6.376 15.781 6.376 14.224H4.376ZM5.07353 18.6324C5.5557 19.8192 6.29619 20.7813 7.30279 21.4782L8.44121 19.8338C7.78381 19.3787 7.2763 18.7407 6.92647 17.8796L5.07353 18.6324ZM7.30279 21.4782C8.27836 22.1536 9.46099 22.5972 10.8153 22.8403L11.1687 20.8717C10.027 20.6668 9.12965 20.3104 8.44121 19.8338L7.30279 21.4782ZM10.8399 22.8444C12.1503 23.046 13.643 23.144 15.312 23.144V21.144C13.717 21.144 12.3297 21.05 11.1441 20.8676L10.8399 22.8444ZM14.312 22.144V25.936H16.312V22.144H14.312ZM16.0627 25.2754C15.2627 24.3663 14.2983 23.6579 13.1796 23.1526L12.3564 24.9754C13.2217 25.3661 13.9533 25.9057 14.5613 26.5966L16.0627 25.2754ZM13.1796 23.1526C12.2039 22.712 11.2276 22.2396 10.2506 21.7354L9.33336 23.5126C10.3404 24.0324 11.3481 24.52 12.3564 24.9754L13.1796 23.1526ZM10.285 21.754C9.39348 21.2488 8.55939 20.6385 7.78228 19.9212L6.42572 21.3908C7.31261 22.2095 8.27052 22.9112 9.29899 23.494L10.285 21.754ZM7.79653 19.9346C7.16822 19.3314 6.66632 18.4302 6.34614 17.1495L4.40586 17.6345C4.78968 19.1698 5.43978 20.4446 6.41147 21.3774L7.79653 19.9346ZM4.376 17.392V39.616H6.376V17.392H4.376ZM27.7834 9.808L26.986 9.20456L26.9807 9.2115L26.9756 9.21853L27.7834 9.808ZM31.1914 7.072L31.6131 7.97872L31.6217 7.97472L31.6302 7.97057L31.1914 7.072ZM35.7514 5.872L35.8281 6.86905L35.8367 6.86839L35.8453 6.86758L35.7514 5.872ZM40.6954 6.112L40.8915 5.13142L40.6954 6.112ZM45.1114 7.696L45.5917 6.8189V6.8189L45.1114 7.696ZM48.1354 10.48H49.1354V10.203L48.9929 9.9655L48.1354 10.48ZM48.1354 15.52L47.2386 15.9625L49.1354 15.52H48.1354ZM43.8634 9.76L43.2113 10.5182L43.2188 10.5245L43.8634 9.76ZM38.9674 6.928L38.6733 7.88378V7.88378L38.9674 6.928ZM34.1194 6.544L34.2608 7.53395L34.2707 7.53254L34.2805 7.53093L34.1194 6.544ZM30.1354 8.032L30.6834 8.86846L30.6979 8.85896L30.7121 8.84897L30.1354 8.032ZM28.2154 10.384L29.1504 10.7387L29.1543 10.7283L28.2154 10.384ZM28.5034 13.504L29.4076 13.077L28.5034 13.504ZM31.6714 17.2L31.0296 17.967L31.0373 17.9733L31.6714 17.2ZM38.4874 21.232L38.064 22.1379L38.0746 22.1429L38.0854 22.1476L38.4874 21.232ZM42.2794 23.056L41.8136 23.941L41.8231 23.9458L42.2794 23.056ZM45.5434 25.312L44.862 26.0439L44.875 26.056L44.8884 26.0677L45.5434 25.312ZM47.8474 28.192L46.9635 28.6599L46.9695 28.6709L47.8474 28.192ZM47.9434 35.344L47.0548 34.8854L47.0488 34.8968L47.0432 34.9084L47.9434 35.344ZM45.9274 37.888L46.5362 38.6813L46.5478 38.6724L46.559 38.6632L45.9274 37.888ZM40.9354 39.904L40.7894 38.9147L40.787 38.9151L40.9354 39.904ZM34.9354 39.712L34.7363 40.692L34.7393 40.6926L34.9354 39.712ZM28.9354 37.456L28.4315 38.3198L28.44 38.3247L28.4485 38.3295L28.9354 37.456ZM24.0394 33.184H23.0394V33.5271L23.25 33.7979L24.0394 33.184ZM24.0394 26.512L24.9685 26.1423L23.0394 26.512H24.0394ZM28.5034 34L27.756 34.6644L27.7615 34.6706L27.7672 34.6768L28.5034 34ZM34.2634 38.416L33.8334 39.3189L33.8452 39.3244L34.2634 38.416ZM40.2634 39.616L40.2 38.618L40.199 38.6181L40.2634 39.616ZM45.5434 37.504L44.9002 36.7383L44.8953 36.7425L45.5434 37.504ZM47.0794 35.152L48.0496 35.3945L48.0515 35.3866L47.0794 35.152ZM46.5034 32.128L45.6245 32.6051L45.6304 32.6158L46.5034 32.128ZM43.1914 28.576L42.5686 29.3585L42.5763 29.3645L43.1914 28.576ZM36.6634 24.784L37.0811 23.8754L37.0737 23.8721L36.6634 24.784ZM32.9194 22.96L32.4357 23.8352L32.4446 23.8402L32.4536 23.8449L32.9194 22.96ZM29.6554 20.704L29.0004 21.4597L29.6554 20.704ZM27.3514 17.92L26.4734 18.3989L26.4798 18.4103L27.3514 17.92ZM27.4874 14.272C27.4874 12.6438 27.8777 11.3752 28.5912 10.3975L26.9756 9.21853C25.961 10.6088 25.4874 12.3162 25.4874 14.272H27.4874ZM28.5808 10.4114C29.376 9.36066 30.3818 8.55141 31.6131 7.97872L30.7696 6.16528C29.2489 6.87259 27.9828 7.88734 26.986 9.20456L28.5808 10.4114ZM31.6302 7.97057C32.883 7.35874 34.2786 6.98825 35.8281 6.86905L35.6747 4.87494C33.8962 5.01175 32.2518 5.44125 30.7525 6.17343L31.6302 7.97057ZM35.8453 6.86758C37.4487 6.71632 38.9988 6.79249 40.4993 7.09258L40.8915 5.13142C39.1919 4.7915 37.4461 4.70768 35.6575 4.87642L35.8453 6.86758ZM40.4993 7.09258C42.0063 7.39398 43.3816 7.88886 44.6311 8.57309L45.5917 6.8189C44.1532 6.03113 42.5845 5.47001 40.8915 5.13142L40.4993 7.09258ZM44.6311 8.57309C45.8466 9.23874 46.7119 10.0513 47.2779 10.9945L48.9929 9.9655C48.2148 8.66874 47.0642 7.62526 45.5917 6.8189L44.6311 8.57309ZM47.1354 10.48V15.52H49.1354V10.48H47.1354ZM49.0321 15.0774C47.7719 12.5239 46.2709 10.4819 44.508 8.99548L43.2188 10.5245C44.7199 11.7901 46.0668 13.5881 47.2386 15.9625L49.0321 15.0774ZM44.5154 9.00181C42.8326 7.55463 41.0819 6.53236 39.2615 5.97222L38.6733 7.88378C40.1808 8.34763 41.6941 9.21336 43.2113 10.5182L44.5154 9.00181ZM39.2615 5.97222C37.4645 5.41931 35.6925 5.27392 33.9582 5.55707L34.2805 7.53093C35.6822 7.30208 37.1423 7.41269 38.6733 7.88378L39.2615 5.97222ZM33.978 5.55405C32.2827 5.79622 30.7984 6.33996 29.5587 7.21503L30.7121 8.84897C31.6484 8.18803 32.82 7.73977 34.2608 7.53395L33.978 5.55405ZM29.5873 7.19554C28.4957 7.91074 27.7089 8.8605 27.2765 10.0397L29.1543 10.7283C29.4259 9.9875 29.919 9.36926 30.6834 8.86846L29.5873 7.19554ZM27.2804 10.0293C26.8067 11.2782 26.9738 12.6068 27.5991 13.931L29.4076 13.077C28.945 12.0972 28.9201 11.3458 29.1504 10.7387L27.2804 10.0293ZM27.5991 13.931C28.2313 15.2696 29.4101 16.6118 31.0297 17.9669L32.3131 16.4331C30.7966 15.1642 29.8635 14.0424 29.4076 13.077L27.5991 13.931ZM31.0373 17.9733C32.7274 19.3592 35.0821 20.7443 38.064 22.1379L38.9108 20.3261C36.0046 18.9677 33.8153 17.6648 32.3055 16.4267L31.0373 17.9733ZM38.0854 22.1476C39.3767 22.7146 40.6194 23.3124 41.8136 23.9409L42.7451 22.1711C41.5074 21.5196 40.2221 20.9014 38.8894 20.3164L38.0854 22.1476ZM41.8231 23.9458C42.9977 24.5482 44.0081 25.2489 44.862 26.0439L46.2248 24.5801C45.2227 23.6471 44.057 22.8438 42.7357 22.1662L41.8231 23.9458ZM44.8884 26.0677C45.7581 26.8214 46.4473 27.6846 46.9636 28.6599L48.7312 27.7241C48.0955 26.5234 47.2487 25.4666 46.1983 24.5563L44.8884 26.0677ZM46.9695 28.6709C47.4527 29.5567 47.7114 30.6187 47.7114 31.888H49.7114C49.7114 30.3413 49.3941 28.9393 48.7253 27.7131L46.9695 28.6709ZM47.7114 31.888C47.7114 33.0683 47.4818 34.0581 47.0548 34.8854L48.832 35.8026C49.429 34.6459 49.7114 33.3317 49.7114 31.888H47.7114ZM47.0432 34.9084C46.6276 35.7674 46.0478 36.4999 45.2957 37.1128L46.559 38.6632C47.535 37.8681 48.2992 36.9046 48.8435 35.7796L47.0432 34.9084ZM45.3186 37.0947C44.0953 38.0335 42.5965 38.6481 40.7894 38.9147L41.0813 40.8933C43.1783 40.5839 45.0074 39.8545 46.5362 38.6813L45.3186 37.0947ZM40.787 38.9151C38.9916 39.1844 37.1085 39.1268 35.1315 38.7314L34.7393 40.6926C36.9222 41.1292 39.0392 41.1996 41.0837 40.8929L40.787 38.9151ZM35.1344 38.732C33.194 38.3379 31.2906 37.6239 29.4222 36.5825L28.4485 38.3295C30.4842 39.4641 32.5807 40.2541 34.7363 40.692L35.1344 38.732ZM29.4392 36.5922C27.6277 35.5355 26.0932 34.1958 24.8287 32.5701L23.25 33.7979C24.6736 35.6282 26.403 37.1365 28.4315 38.3198L29.4392 36.5922ZM25.0394 33.184V26.512H23.0394V33.184H25.0394ZM23.1102 26.8817C24.3293 29.946 25.8737 32.5469 27.756 34.6644L29.2508 33.3356C27.549 31.4211 26.1174 29.03 24.9685 26.1423L23.1102 26.8817ZM27.7672 34.6768C29.6604 36.736 31.6806 38.2937 33.8334 39.3189L34.6933 37.5131C32.8142 36.6183 30.9944 35.232 29.2395 33.3232L27.7672 34.6768ZM33.8452 39.3244C35.9943 40.3136 38.1594 40.7538 40.3278 40.6139L40.199 38.6181C38.3993 38.7342 36.5645 38.3744 34.6815 37.5076L33.8452 39.3244ZM40.3267 40.614C42.5528 40.4727 44.5192 39.6888 46.1915 38.2655L44.8953 36.7425C43.5596 37.8792 42.006 38.5033 40.2 38.618L40.3267 40.614ZM46.1866 38.2697C47.1259 37.4807 47.7678 36.5213 48.0495 35.3945L46.1092 34.9095C45.9429 35.5747 45.5609 36.1833 44.9002 36.7383L46.1866 38.2697ZM48.0515 35.3866C48.3508 34.1466 48.0685 32.8789 47.3763 31.6402L45.6304 32.6158C46.1542 33.5531 46.256 34.3014 46.1073 34.9174L48.0515 35.3866ZM47.3822 31.6509C46.6812 30.3596 45.4579 29.0757 43.8064 27.7875L42.5763 29.3645C44.1249 30.5723 45.1095 31.6564 45.6245 32.6051L47.3822 31.6509ZM43.8141 27.7936C42.1593 26.4764 39.9041 25.1734 37.0811 23.8754L36.2456 25.6926C38.9906 26.9546 41.0875 28.1796 42.5686 29.3584L43.8141 27.7936ZM37.0737 23.8721C35.8121 23.3043 34.5826 22.7053 33.3851 22.0751L32.4536 23.8449C33.6882 24.4947 34.9547 25.1117 36.253 25.6959L37.0737 23.8721ZM33.4031 22.0848C32.2425 21.4434 31.2129 20.7306 30.3103 19.9483L29.0004 21.4597C30.0178 22.3414 31.1642 23.1326 32.4357 23.8352L33.4031 22.0848ZM30.3103 19.9483C29.4302 19.1855 28.7381 18.3456 28.2229 17.4297L26.4798 18.4103C27.1166 19.5424 27.9606 20.5585 29.0004 21.4597L30.3103 19.9483ZM28.2293 17.4411C27.7443 16.552 27.4874 15.505 27.4874 14.272H25.4874C25.4874 15.791 25.8065 17.176 26.4735 18.3989L28.2293 17.4411ZM60.4226 20.656L60.9452 19.8034V19.8034L60.4226 20.656ZM57.7826 18.064L58.6074 17.4984L58.6019 17.4905L57.7826 18.064ZM55.9106 13.264L56.8942 13.0837L54.9106 13.264H55.9106ZM55.9106 40V41H56.9106V40H55.9106ZM52.0706 40H51.0706V41H52.0706V40ZM52.0706 6.112V5.112H51.0706V6.112H52.0706ZM69.6386 7.888L69.1718 8.77244L69.1818 8.77757L69.6386 7.888ZM72.4226 10.288L71.5947 10.8488L71.6052 10.8643L71.6162 10.8794L72.4226 10.288ZM72.6146 17.296L71.7498 16.7938L71.7446 16.803L72.6146 17.296ZM70.4066 19.696L70.9744 20.5192L70.4066 19.696ZM67.2386 21.136L67.4812 22.1061L67.4904 22.1038L67.4995 22.1014L67.2386 21.136ZM68.8226 10.336L67.947 10.8191L67.9533 10.8305L67.9599 10.8417L68.8226 10.336ZM66.7586 8.08L66.1894 8.90219L66.1966 8.90718L66.2039 8.91205L66.7586 8.08ZM55.9106 6.448V5.448H54.9106V6.448H55.9106ZM56.4386 14.224L55.4685 14.4665L55.4698 14.4718L56.4386 14.224ZM58.0706 17.824L58.9102 17.2807L58.8969 17.2602L58.8826 17.2404L58.0706 17.824ZM60.5186 20.32L59.9913 21.1696L59.9977 21.1736L60.0041 21.1775L60.5186 20.32ZM65.8946 20.8L66.2364 21.7398L66.2477 21.7357L66.259 21.7312L65.8946 20.8ZM67.8146 19.456L67.0887 18.7683L67.0789 18.7786L67.0694 18.7892L67.8146 19.456ZM69.1586 17.152L70.104 17.478V17.478L69.1586 17.152ZM63.6386 20.568C62.673 20.568 61.7816 20.316 60.9452 19.8034L59.9001 21.5086C61.0477 22.212 62.3002 22.568 63.6386 22.568V20.568ZM60.9452 19.8034C60.0913 19.2801 59.3091 18.5218 58.6074 17.4985L56.9579 18.6295C57.7922 19.8462 58.7699 20.8159 59.9001 21.5086L60.9452 19.8034ZM58.6019 17.4905C57.8061 16.3538 57.2266 14.8966 56.8942 13.0837L54.927 13.4443C55.2987 15.4714 55.9671 17.2142 56.9634 18.6375L58.6019 17.4905ZM54.9106 13.264V40H56.9106V13.264H54.9106ZM55.9106 39H52.0706V41H55.9106V39ZM53.0706 40V6.112H51.0706V40H53.0706ZM52.0706 7.112H60.5666V5.112H52.0706V7.112ZM60.5666 7.112C62.2722 7.112 63.8754 7.25155 65.378 7.52755L65.7393 5.56045C64.1059 5.26044 62.381 5.112 60.5666 5.112V7.112ZM65.378 7.52755C66.8676 7.80115 68.1271 8.22099 69.1719 8.77238L70.1054 7.00361C68.8461 6.33901 67.3856 5.86285 65.7393 5.56045L65.378 7.52755ZM69.1818 8.77757C70.2334 9.31755 71.027 10.0107 71.5947 10.8488L73.2505 9.72715C72.4743 8.58126 71.4119 7.67445 70.0954 6.99843L69.1818 8.77757ZM71.6162 10.8794C72.1755 11.642 72.4786 12.5943 72.4786 13.792H74.4786C74.4786 12.2377 74.0777 10.854 73.229 9.69663L71.6162 10.8794ZM72.4786 13.792C72.4786 14.9902 72.2231 15.9788 71.7498 16.7939L73.4794 17.7981C74.1581 16.6292 74.4786 15.2818 74.4786 13.792H72.4786ZM71.7446 16.803C71.2768 17.6286 70.6453 18.3167 69.8389 18.8728L70.9744 20.5192C72.024 19.7953 72.8645 18.8834 73.4846 17.789L71.7446 16.803ZM69.8389 18.8728C69.0122 19.4429 68.0618 19.8777 66.9777 20.1706L67.4995 22.1014C68.7835 21.7543 69.945 21.2291 70.9744 20.5192L69.8389 18.8728ZM66.9961 20.1659C65.9274 20.433 64.809 20.568 63.6386 20.568V22.568C64.9642 22.568 66.2459 22.415 67.4812 22.1061L66.9961 20.1659ZM70.6386 13.792C70.6386 12.2869 70.341 10.9488 69.6853 9.83028L67.9599 10.8417C68.3922 11.5792 68.6386 12.545 68.6386 13.792H70.6386ZM69.6982 9.85292C69.1104 8.78758 68.3135 7.91476 67.3133 7.24795L66.2039 8.91205C66.9317 9.39724 67.5108 10.0284 67.947 10.8191L69.6982 9.85292ZM67.3278 7.25781C66.3827 6.60346 65.3048 6.14026 64.1077 5.85858L63.6496 7.80541C64.6285 8.03574 65.4706 8.40453 66.1894 8.90219L67.3278 7.25781ZM64.1077 5.85858C62.9444 5.58488 61.7636 5.448 60.5666 5.448V7.448C61.6097 7.448 62.6368 7.56711 63.6496 7.80541L64.1077 5.85858ZM60.5666 5.448H55.9106V7.448H60.5666V5.448ZM54.9106 6.448V9.616H56.9106V6.448H54.9106ZM54.9106 9.616C54.9106 11.3501 55.094 12.9686 55.4685 14.4665L57.4088 13.9815C57.0792 12.6634 56.9106 11.2099 56.9106 9.616H54.9106ZM55.4698 14.4718C55.8488 15.9534 56.4413 17.2705 57.2586 18.4076L58.8826 17.2404C58.228 16.3295 57.7324 15.2466 57.4074 13.9762L55.4698 14.4718ZM57.2311 18.3673C58.0004 19.5563 58.9166 20.5026 59.9913 21.1696L61.046 19.4704C60.2646 18.9854 59.5488 18.2677 58.9102 17.2807L57.2311 18.3673ZM60.0041 21.1775C61.1196 21.8468 62.3375 22.184 63.6386 22.184V20.184C62.6998 20.184 61.8376 19.9452 61.0331 19.4625L60.0041 21.1775ZM63.6386 22.184C64.5472 22.184 65.4156 22.0383 66.2364 21.7398L65.5529 19.8602C64.9657 20.0737 64.33 20.184 63.6386 20.184V22.184ZM66.259 21.7312C67.1457 21.3843 67.9149 20.8437 68.5599 20.1228L67.0694 18.7892C66.6264 19.2843 66.1155 19.6397 65.5302 19.8688L66.259 21.7312ZM68.5406 20.1437C69.2301 19.4159 69.7454 18.5179 70.104 17.478L68.2133 16.826C67.9318 17.6421 67.5511 18.2801 67.0887 18.7683L68.5406 20.1437ZM70.104 17.478C70.47 16.4165 70.6386 15.18 70.6386 13.792H68.6386C68.6386 15.028 68.4872 16.0315 68.2133 16.826L70.104 17.478ZM88.7246 26.992L89.6476 26.6071L89.3643 25.9276L88.6313 25.9964L88.7246 26.992ZM83.6846 28.288L84.123 29.1868L84.1318 29.1825L84.1405 29.178L83.6846 28.288ZM80.4206 30.592L79.7008 29.8979L79.7003 29.8984L80.4206 30.592ZM78.4526 33.424L79.3529 33.8596L79.3581 33.8484L78.4526 33.424ZM77.1566 36.208L76.2428 35.8019L76.2296 35.8317L76.2183 35.8623L77.1566 36.208ZM76.4366 37.888L75.5422 37.4408L75.5307 37.4637L75.5205 37.4872L76.4366 37.888ZM75.6686 39.184L74.8947 38.5508L75.6686 39.184ZM74.6606 40L74.2134 39.1056L74.1846 39.12L74.1568 39.1362L74.6606 40ZM73.2686 40.288L73.0725 41.2686L73.1406 41.2822L73.2099 41.2863L73.2686 40.288ZM72.8846 40.192L73.2009 39.2433L73.0469 39.192H72.8846V40.192ZM72.5006 39.952L73.2077 39.2449L73.0748 39.1119L72.9026 39.0364L72.5006 39.952ZM70.9166 35.776L69.9239 35.6557L69.9233 35.6608L70.9166 35.776ZM71.5886 32.224L70.6213 31.9706L70.6191 31.9788L70.6171 31.987L71.5886 32.224ZM72.9806 27.904L73.917 28.2551L73.9184 28.2513L72.9806 27.904ZM75.1886 22.48L76.1037 22.8833L76.1062 22.8776L75.1886 22.48ZM77.8286 16.768L78.7261 17.2091L78.729 17.2032L77.8286 16.768ZM80.6606 11.152L81.5455 11.6177H81.5455L80.6606 11.152ZM83.4926 6.112V5.112H82.9285L82.6367 5.59488L83.4926 6.112ZM83.8286 6.112L84.7495 5.72202L84.4911 5.112H83.8286V6.112ZM98.1806 40V41H99.6901L99.1014 39.61L98.1806 40ZM94.1486 40L93.2256 40.3849L93.4821 41H94.1486V40ZM81.5246 10.24L82.4434 9.84511L81.6128 7.91273L80.6384 9.77675L81.5246 10.24ZM79.2686 14.608L78.378 14.1532L78.3742 14.1608L78.3704 14.1684L79.2686 14.608ZM77.0606 19.168L76.1588 18.7359L76.1549 18.7441L77.0606 19.168ZM75.0446 23.68L75.9648 24.0716L75.0446 23.68ZM73.3166 28L74.253 28.3511L74.2538 28.3487L73.3166 28ZM71.9246 32.272L70.9588 32.0129L70.9558 32.0239L70.9531 32.035L71.9246 32.272ZM71.2526 35.776L70.2603 35.652L70.2566 35.6817L70.2547 35.7116L71.2526 35.776ZM71.4446 38.32L70.4799 38.5831L70.4872 38.6099L70.4959 38.6362L71.4446 38.32ZM72.6446 39.616L73.016 38.6875L72.9887 38.6766L72.9609 38.6673L72.6446 39.616ZM72.9806 39.76L72.5334 40.6544L72.7446 40.76H72.9806V39.76ZM73.3166 39.856L72.8694 40.7504L73.0494 40.8404L73.2501 40.8538L73.3166 39.856ZM75.4766 38.896L76.3028 39.4593L76.3086 39.4509L76.3142 39.4423L75.4766 38.896ZM76.7726 36.112L75.8535 35.7181L75.8388 35.7524L75.8267 35.7877L76.7726 36.112ZM78.1166 33.232L79.0111 33.6792V33.6792L78.1166 33.232ZM80.1326 30.352L79.4007 29.6706L79.3998 29.6715L80.1326 30.352ZM83.4446 27.952L82.9974 27.0576L83.4446 27.952ZM88.5806 26.656L88.6725 27.6518L90.0427 27.5253L89.4994 26.2611L88.5806 26.656ZM88.6313 25.9964C86.5033 26.1959 84.689 26.65 83.2288 27.398L84.1405 29.178C85.3043 28.582 86.85 28.1721 88.818 27.9876L88.6313 25.9964ZM83.2462 27.3892C81.8469 28.0718 80.6586 28.9046 79.7008 29.8979L81.1405 31.2861C81.9107 30.4874 82.8983 29.7842 84.123 29.1868L83.2462 27.3892ZM79.7003 29.8984C78.7969 30.8365 78.0765 31.8704 77.5472 32.9996L79.3581 33.8484C79.7888 32.9296 80.3804 32.0755 81.1409 31.2856L79.7003 29.8984ZM77.5525 32.9884C77.0685 33.9886 76.6319 34.9265 76.2428 35.8019L78.0704 36.6141C78.4494 35.7615 78.8767 34.8434 79.3528 33.8596L77.5525 32.9884ZM76.2183 35.8623C76.0054 36.4401 75.7797 36.9658 75.5422 37.4408L77.3311 38.3352C77.6055 37.7862 77.8598 37.1919 78.095 36.5537L76.2183 35.8623ZM75.5205 37.4872C75.325 37.9339 75.1135 38.2833 74.8947 38.5508L76.4426 39.8172C76.7998 39.3807 77.1002 38.8661 77.3528 38.2888L75.5205 37.4872ZM74.8947 38.5508C74.6906 38.8002 74.4639 38.9803 74.2134 39.1056L75.1078 40.8944C75.6254 40.6357 76.0707 40.2718 76.4426 39.8172L74.8947 38.5508ZM74.1568 39.1362C73.9779 39.2405 73.7194 39.3128 73.3273 39.2897L73.2099 41.2863C73.9058 41.3272 74.5753 41.2075 75.1645 40.8638L74.1568 39.1362ZM73.4647 39.3074C73.324 39.2793 73.2412 39.2568 73.2009 39.2433L72.5684 41.1407C72.7201 41.1912 72.8932 41.2327 73.0725 41.2686L73.4647 39.3074ZM72.8846 39.192C72.9989 39.192 73.0878 39.2156 73.143 39.2353C73.198 39.2549 73.2331 39.2755 73.2466 39.284C73.2701 39.2987 73.2579 39.2951 73.2077 39.2449L71.7935 40.6591C71.9033 40.7689 72.0352 40.8853 72.1866 40.98C72.3263 41.0673 72.5707 41.192 72.8846 41.192V39.192ZM72.9026 39.0364C72.5029 38.8609 72.2286 38.5774 72.0556 38.1213C71.8695 37.6307 71.7921 36.9082 71.91 35.8912L69.9233 35.6608C69.7852 36.8518 69.8437 37.9293 70.1856 38.8307C70.5407 39.7666 71.1864 40.4671 72.0986 40.8676L72.9026 39.0364ZM71.9094 35.8963C72.0315 34.8884 72.2472 33.7442 72.5601 32.461L70.6171 31.987C70.2901 33.3278 70.0577 34.5516 69.9239 35.6557L71.9094 35.8963ZM72.556 32.4774C72.8979 31.1717 73.3509 29.7646 73.917 28.2551L72.0443 27.5529C71.4584 29.1154 70.9833 30.5883 70.6213 31.9706L72.556 32.4774ZM73.9184 28.2513C74.5506 26.5443 75.2789 24.755 76.1037 22.8833L74.2735 22.0767C73.4344 23.981 72.6906 25.8077 72.0429 27.5567L73.9184 28.2513ZM76.1062 22.8776C76.9318 20.9723 77.8051 19.0829 78.7261 17.2091L76.9312 16.3269C75.9962 18.2291 75.1095 20.1477 74.2711 22.0824L76.1062 22.8776ZM78.729 17.2032C79.6522 15.2931 80.591 13.4313 81.5455 11.6177L79.7757 10.6863C78.8102 12.5207 77.8611 14.4029 76.9283 16.3328L78.729 17.2032ZM81.5455 11.6177C82.4977 9.80866 83.4321 8.14603 84.3485 6.62911L82.6367 5.59488C81.6972 7.14997 80.7436 8.84734 79.7757 10.6863L81.5455 11.6177ZM83.4926 7.112H83.8286V5.112H83.4926V7.112ZM82.9078 6.50198L97.2598 40.39L99.1014 39.61L84.7495 5.72202L82.9078 6.50198ZM98.1806 39H94.1486V41H98.1806V39ZM95.0716 39.6151L89.6476 26.6071L87.8017 27.3769L93.2256 40.3849L95.0716 39.6151ZM80.6384 9.77675C79.9008 11.1877 79.1474 12.6466 78.378 14.1532L80.1592 15.0628C80.9259 13.5614 81.6764 12.1083 82.4109 10.7033L80.6384 9.77675ZM78.3704 14.1684C77.6332 15.675 76.896 17.1974 76.1588 18.7359L77.9624 19.6001C78.6973 18.0666 79.4321 16.549 80.1668 15.0476L78.3704 14.1684ZM76.1549 18.7441C75.446 20.2586 74.7692 21.7734 74.1245 23.2884L75.9648 24.0716C76.6001 22.5786 77.2673 21.0854 77.9663 19.5919L76.1549 18.7441ZM74.1245 23.2884C73.4791 24.805 72.8973 26.2594 72.3794 27.6513L74.2538 28.3487C74.7599 26.9886 75.3301 25.563 75.9648 24.0716L74.1245 23.2884ZM72.3803 27.6489C71.7952 29.2091 71.3206 30.6642 70.9588 32.0129L72.8905 32.5311C73.2326 31.2558 73.686 29.8629 74.253 28.3511L72.3803 27.6489ZM70.9531 32.035C70.6266 33.3736 70.3943 34.5805 70.2603 35.652L72.2449 35.9C72.367 34.9235 72.5826 33.7944 72.8961 32.509L70.9531 32.035ZM70.2547 35.7116C70.186 36.7767 70.2504 37.7417 70.4799 38.5831L72.4094 38.0569C72.2549 37.4903 72.1913 36.7593 72.2505 35.8404L70.2547 35.7116ZM70.4959 38.6362C70.8007 39.5504 71.4015 40.2557 72.3284 40.5647L72.9609 38.6673C72.7357 38.5923 72.5366 38.4336 72.3933 38.0038L70.4959 38.6362ZM72.2732 40.5445C72.4332 40.6085 72.5105 40.643 72.5334 40.6544L73.4278 38.8656C73.3228 38.813 73.1761 38.7515 73.016 38.6875L72.2732 40.5445ZM72.9806 40.76C72.9184 40.76 72.8769 40.7498 72.8619 40.7455C72.8468 40.7412 72.8487 40.7401 72.8694 40.7504L73.7638 38.9616C73.5595 38.8594 73.2893 38.76 72.9806 38.76V40.76ZM73.2501 40.8538C74.5089 40.9377 75.5942 40.4988 76.3028 39.4593L74.6504 38.3327C74.3991 38.7012 74.0444 38.9023 73.3831 38.8582L73.2501 40.8538ZM76.3142 39.4423C76.8519 38.6179 77.3164 37.6094 77.7186 36.4363L75.8267 35.7877C75.4609 36.8546 75.0614 37.7021 74.639 38.3497L76.3142 39.4423ZM77.6918 36.5059C78.0669 35.6307 78.5063 34.6886 79.0111 33.6792L77.2222 32.7848C76.7029 33.8234 76.2464 34.8013 75.8535 35.7181L77.6918 36.5059ZM79.0111 33.6792C79.4777 32.7458 80.0937 31.8635 80.8654 31.0325L79.3998 29.6715C78.5075 30.6325 77.7795 31.6702 77.2222 32.7848L79.0111 33.6792ZM80.8645 31.0334C81.6336 30.2074 82.6354 29.4747 83.8918 28.8464L82.9974 27.0576C81.5659 27.7733 80.3597 28.6406 79.4007 29.6706L80.8645 31.0334ZM83.8918 28.8464C85.0906 28.2471 86.6714 27.8365 88.6725 27.6518L88.4887 25.6602C86.3298 25.8595 84.4867 26.3129 82.9974 27.0576L83.8918 28.8464ZM89.4994 26.2611L82.4434 9.84511L80.6059 10.6349L87.6619 27.0509L89.4994 26.2611ZM114.244 7.024L113.985 6.05809L113.973 6.06135L114.244 7.024ZM109.204 10.048L109.935 10.7298L109.943 10.7215L109.204 10.048ZM106.228 14.944L105.287 14.6036L105.285 14.6108L105.282 14.618L106.228 14.944ZM105.172 20.848L104.172 20.8172L104.172 20.8248L104.172 20.8324L105.172 20.848ZM105.796 26.656L104.825 26.8945L104.829 26.9105L104.833 26.9263L105.796 26.656ZM108.148 32.032L107.29 32.5465L107.297 32.5578L108.148 32.032ZM112.036 36.592L111.388 37.3535L112.036 36.592ZM117.028 39.376L116.727 40.3296L116.737 40.3327L116.746 40.3356L117.028 39.376ZM122.884 39.376L122.63 38.4086L122.627 38.4095L122.884 39.376ZM126.388 37.744L126.984 38.5471L126.988 38.544L126.388 37.744ZM128.98 35.104L128.168 34.5204L128.164 34.5253L128.98 35.104ZM130.708 31.792L129.769 31.4463L129.767 31.4534L129.764 31.4605L130.708 31.792ZM131.62 28H132.62L130.627 27.8789L131.62 28ZM131.62 34.096L132.406 34.7138L132.62 34.4419V34.096H131.62ZM127.78 37.552L128.313 38.3979L128.318 38.3949L127.78 37.552ZM122.98 39.616L122.729 38.648L122.714 38.6518L122.7 38.656L122.98 39.616ZM110.068 38.032L109.562 38.8947L109.568 38.8984L110.068 38.032ZM105.172 33.712L105.958 33.0942L105.172 33.712ZM102.1 27.616L101.13 27.8617L101.134 27.8745L101.137 27.8871L102.1 27.616ZM101.716 20.848L100.726 20.7066L101.716 20.848ZM103.828 14.656L104.694 15.1553L104.698 15.149L103.828 14.656ZM108.1 9.712L108.716 10.4999L108.724 10.4929L108.1 9.712ZM114.148 6.688L113.894 5.72061L113.889 5.72199L114.148 6.688ZM117.892 6.064L117.947 7.06246L117.961 7.06169L117.975 7.06054L117.892 6.064ZM121.108 6.112L120.98 7.10378L120.996 7.10581L121.011 7.10735L121.108 6.112ZM123.796 6.688L123.457 7.62889L123.479 7.63686L123.502 7.64378L123.796 6.688ZM126.004 7.552L126.466 6.66508L126.458 6.66127L126.451 6.65757L126.004 7.552ZM129.844 10.624H130.844V10.2662L130.617 9.98968L129.844 10.624ZM129.844 15.616L128.949 16.0632L130.844 15.616H129.844ZM125.956 10.24L126.648 9.518L126.645 9.515L125.956 10.24ZM123.748 8.512L123.163 9.32353L123.182 9.33667L123.201 9.34897L123.748 8.512ZM121.06 7.168L120.715 8.10688L120.734 8.11366L120.753 8.11971L121.06 7.168ZM117.892 6.592L117.835 7.59037L117.849 7.59121L117.864 7.59161L117.892 6.592ZM119.044 45.904L118.363 45.1712L118.35 45.1838L118.337 45.1969L119.044 45.904ZM117.364 46.816L117.132 45.8432L117.104 45.8499L117.076 45.8582L117.364 46.816ZM115.3 47.056L115.343 46.0569L115.321 46.056H115.3V47.056ZM113.38 46.912L112.467 46.5029L111.942 47.6738L113.206 47.8968L113.38 46.912ZM114.004 45.52V44.52H113.356L113.091 45.1109L114.004 45.52ZM115.3 45.568L115.41 44.5741L115.383 44.5711L115.355 44.5695L115.3 45.568ZM117.028 45.568L116.923 44.5735L116.917 44.5741L117.028 45.568ZM118.66 45.184L119.031 46.1125L118.66 45.184ZM119.476 44.176L120.467 44.3082L120.468 44.3L119.476 44.176ZM119.284 43.504L120.052 42.8638L120.023 42.829L119.991 42.7969L119.284 43.504ZM118.612 43.12L118.261 44.0563L118.278 44.0628L118.296 44.0687L118.612 43.12ZM117.796 42.88L118.013 41.9038L117.96 41.8921L117.906 41.8861L117.796 42.88ZM117.076 42.832L116.115 42.5551L115.747 43.832H117.076V42.832ZM117.892 40V39H117.139L116.931 39.7231L117.892 40ZM118.132 40L119.088 40.2922L119.483 39H118.132V40ZM117.604 41.728L116.647 41.4358L116.292 42.5977L117.501 42.7227L117.604 41.728ZM119.332 42.448L118.468 42.9519L118.483 42.9778L118.5 43.0027L119.332 42.448ZM113.973 6.06135C111.762 6.68317 109.914 7.78356 108.465 9.37451L109.943 10.7215C111.117 9.43244 112.629 8.51682 114.514 7.98665L113.973 6.06135ZM108.472 9.36627C107.066 10.8754 106.004 12.6242 105.287 14.6036L107.168 15.2844C107.795 13.5518 108.718 12.0366 109.935 10.7297L108.472 9.36627ZM105.282 14.618C104.608 16.5747 104.239 18.6427 104.172 20.8172L106.171 20.8788C106.232 18.8933 106.568 17.0253 107.173 15.27L105.282 14.618ZM104.172 20.8324C104.139 22.9583 104.354 24.9803 104.825 26.8945L106.767 26.4175C106.341 24.6837 106.141 22.8337 106.172 20.8636L104.172 20.8324ZM104.833 26.9263C105.371 28.8428 106.192 30.7165 107.29 32.5465L109.005 31.5175C107.991 29.8275 107.245 28.1172 106.759 26.3857L104.833 26.9263ZM107.297 32.5578C108.437 34.4022 109.801 36.0028 111.388 37.3535L112.684 35.8305C111.263 34.6212 110.034 33.1818 108.998 31.5062L107.297 32.5578ZM111.388 37.3535C112.99 38.7172 114.771 39.7121 116.727 40.3296L117.329 38.4224C115.636 37.8879 114.09 37.0268 112.684 35.8305L111.388 37.3535ZM116.746 40.3356C118.794 40.9359 120.933 40.9288 123.14 40.3425L122.627 38.4095C120.738 38.9112 118.973 38.9041 117.309 38.4164L116.746 40.3356ZM123.137 40.3434C124.589 39.963 125.877 39.3682 126.984 38.5471L125.792 36.9409C124.915 37.5918 123.866 38.085 122.63 38.4086L123.137 40.3434ZM126.988 38.544C128.09 37.7171 129.028 36.7635 129.795 35.6827L128.164 34.5253C127.523 35.4285 126.733 36.2349 125.788 36.944L126.988 38.544ZM129.792 35.6876C130.583 34.5867 131.203 33.3978 131.651 32.1235L129.764 31.4605C129.38 32.5542 128.848 33.5733 128.168 34.5204L129.792 35.6876ZM131.646 32.1377C132.121 30.8477 132.443 29.5082 132.612 28.1211L130.627 27.8789C130.476 29.1158 130.19 30.3043 129.769 31.4463L131.646 32.1377ZM130.62 28V34.096H132.62V28H130.62ZM130.833 33.4782C129.85 34.7299 128.655 35.8069 127.242 36.7091L128.318 38.3949C129.912 37.3771 131.278 36.1501 132.406 34.7138L130.833 33.4782ZM127.246 36.7061C125.864 37.5776 124.36 38.2252 122.729 38.648L123.231 40.584C125.056 40.1108 126.752 39.3824 128.313 38.3979L127.246 36.7061ZM122.7 38.656C120.523 39.291 118.411 39.4523 116.355 39.1543L116.068 41.1337C118.428 41.4757 120.829 41.285 123.26 40.576L122.7 38.656ZM116.355 39.1543C114.269 38.8521 112.343 38.1888 110.567 37.1656L109.568 38.8984C111.569 40.0512 113.738 40.7959 116.068 41.1337L116.355 39.1543ZM110.573 37.1693C108.832 36.1483 107.293 34.7936 105.958 33.0942L104.385 34.3298C105.866 36.2144 107.592 37.7397 109.562 38.8947L110.573 37.1693ZM105.958 33.0942C104.634 31.4088 103.668 29.4955 103.062 27.3449L101.137 27.8871C101.811 30.2805 102.894 32.4312 104.385 34.3298L105.958 33.0942ZM103.069 27.3703C102.524 25.2201 102.405 23.0956 102.706 20.9894L100.726 20.7066C100.387 23.0804 100.524 25.4679 101.13 27.8617L103.069 27.3703ZM102.706 20.9894C103.008 18.8706 103.672 16.9287 104.694 15.1553L102.961 14.1567C101.807 16.1593 101.063 18.3454 100.726 20.7066L102.706 20.9894ZM104.698 15.149C105.72 13.3444 107.058 11.7962 108.716 10.4998L107.484 8.92419C105.622 10.3798 104.111 12.1276 102.958 14.163L104.698 15.149ZM108.724 10.4929C110.372 9.17499 112.262 8.22786 114.406 7.65401L113.889 5.72199C111.49 6.36414 109.348 7.43301 107.475 8.93113L108.724 10.4929ZM114.401 7.65537C115.693 7.31702 116.874 7.12208 117.947 7.06246L117.836 5.06554C116.606 5.13391 115.29 5.35498 113.894 5.72063L114.401 7.65537ZM117.975 7.06054C119.067 6.96952 120.068 6.98607 120.98 7.10378L121.236 5.12022C120.164 4.98192 119.02 4.96648 117.809 5.06745L117.975 7.06054ZM121.011 7.10735C121.934 7.19668 122.747 7.37338 123.457 7.62889L124.134 5.74711C123.244 5.42662 122.265 5.21932 121.204 5.11665L121.011 7.10735ZM123.502 7.64378C124.292 7.88692 124.975 8.15566 125.557 8.44642L126.451 6.65757C125.752 6.30834 124.964 6.00108 124.09 5.73222L123.502 7.64378ZM125.542 8.43891C126.967 9.18117 128.138 10.1221 129.071 11.2583L130.617 9.98968C129.501 8.62993 128.113 7.52283 126.466 6.66508L125.542 8.43891ZM128.844 10.624V15.616H130.844V10.624H128.844ZM130.738 15.1688C129.637 12.9655 128.275 11.0775 126.648 9.51801L125.264 10.962C126.709 12.3465 127.939 14.0425 128.949 16.0632L130.738 15.1688ZM126.645 9.515C125.956 8.86068 125.171 8.24796 124.295 7.67503L123.201 9.34897C123.988 9.86404 124.676 10.4033 125.267 10.965L126.645 9.515ZM124.332 7.70046C123.443 7.06017 122.452 6.56644 121.367 6.21629L120.753 8.11971C121.651 8.40956 122.453 8.81183 123.163 9.32353L124.332 7.70046ZM121.404 6.22912C120.33 5.8355 119.166 5.62701 117.92 5.59238L117.864 7.59161C118.921 7.62099 119.869 7.7965 120.715 8.10688L121.404 6.22912ZM117.949 5.59363C116.703 5.52242 115.379 5.68415 113.985 6.05816L114.503 7.98984C115.733 7.65984 116.841 7.53358 117.835 7.59037L117.949 5.59363ZM118.716 44.08C118.716 44.6922 118.55 44.9982 118.363 45.1712L119.724 46.6368C120.434 45.9778 120.716 45.0678 120.716 44.08H118.716ZM118.337 45.1969C118.031 45.5023 117.641 45.722 117.132 45.8432L117.595 47.7888C118.431 47.59 119.16 47.2017 119.751 46.6111L118.337 45.1969ZM117.076 45.8582C116.554 46.0149 115.979 46.0846 115.343 46.0569L115.256 48.0551C116.093 48.0914 116.894 48.0011 117.651 47.7738L117.076 45.8582ZM115.3 46.056C114.604 46.056 114.025 46.0104 113.554 45.9272L113.206 47.8968C113.823 48.0056 114.523 48.056 115.3 48.056V46.056ZM114.292 47.3211L114.916 45.9291L113.091 45.1109L112.467 46.5029L114.292 47.3211ZM114.004 46.52C114.263 46.52 114.672 46.5347 115.244 46.5665L115.355 44.5695C114.775 44.5373 114.321 44.52 114.004 44.52V46.52ZM115.189 46.5619C115.839 46.634 116.489 46.634 117.138 46.5619L116.917 44.5741C116.415 44.63 115.913 44.63 115.41 44.5741L115.189 46.5619ZM117.132 46.5625C117.816 46.4906 118.452 46.3442 119.031 46.1125L118.288 44.2555C117.908 44.4078 117.456 44.5174 116.923 44.5735L117.132 46.5625ZM119.031 46.1125C119.819 45.7975 120.351 45.1748 120.467 44.3082L118.485 44.0438C118.474 44.1241 118.453 44.1503 118.447 44.1588C118.437 44.1702 118.401 44.2106 118.288 44.2555L119.031 46.1125ZM120.468 44.3C120.533 43.7793 120.396 43.2762 120.052 42.8638L118.516 44.1442C118.515 44.1437 118.511 44.1384 118.505 44.1281C118.5 44.1176 118.494 44.1049 118.49 44.0907C118.481 44.06 118.485 44.0432 118.483 44.052L120.468 44.3ZM119.991 42.7969C119.69 42.4962 119.315 42.3004 118.928 42.1713L118.296 44.0687C118.484 44.1316 118.557 44.1918 118.577 44.2111L119.991 42.7969ZM118.963 42.1837C118.66 42.07 118.343 41.9772 118.013 41.9038L117.579 43.8562C117.825 43.9108 118.052 43.978 118.261 44.0563L118.963 42.1837ZM117.906 41.8861C117.598 41.8519 117.318 41.832 117.076 41.832V43.832C117.217 43.832 117.418 43.8441 117.685 43.8739L117.906 41.8861ZM118.037 43.1089L118.853 40.2769L116.931 39.7231L116.115 42.5551L118.037 43.1089ZM117.892 41H118.132V39H117.892V41ZM117.175 39.7078L116.647 41.4358L118.56 42.0202L119.088 40.2922L117.175 39.7078ZM117.501 42.7227C117.911 42.7651 118.182 42.8341 118.347 42.9031C118.513 42.9723 118.502 43.0107 118.468 42.9519L120.196 41.9441C119.937 41.5013 119.526 41.2277 119.116 41.0569C118.706 40.8859 118.225 40.7869 117.707 40.7333L117.501 42.7227ZM118.5 43.0027C118.603 43.1571 118.716 43.4767 118.716 44.08H120.716C120.716 43.2753 120.573 42.5069 120.164 41.8933L118.5 43.0027ZM147.665 6.592L147.923 7.55801L147.931 7.55583L147.939 7.55352L147.665 6.592ZM154.337 6.16L154.179 7.14753L154.187 7.1488L154.195 7.14995L154.337 6.16ZM160.48 8.32L159.964 9.17619L159.972 9.1814L159.981 9.18643L160.48 8.32ZM165.376 12.64L164.583 13.2491L164.59 13.2578L165.376 12.64ZM168.353 18.736L167.383 18.9817L167.387 18.9963L167.391 19.0107L168.353 18.736ZM168.833 25.456L169.822 25.5994L169.822 25.5974L168.833 25.456ZM166.721 31.648L167.587 32.1473L167.591 32.141L166.721 31.648ZM162.4 36.592L163.016 37.3798L163.018 37.3783L162.4 36.592ZM156.353 39.568L156.094 38.6019L156.081 38.6055L156.353 39.568ZM149.633 40.048L149.489 41.0377V41.0377L149.633 40.048ZM143.488 37.936L142.983 38.7987L142.989 38.8024L143.488 37.936ZM138.592 33.616L137.806 34.2338L138.592 33.616ZM135.568 27.472L136.535 27.2168L136.535 27.2135L135.568 27.472ZM135.137 20.704L134.149 20.5487L134.147 20.5626L135.137 20.704ZM137.296 14.512L136.436 14.0018L136.43 14.0127L137.296 14.512ZM141.617 9.616L142.232 10.4039L142.241 10.3969L141.617 9.616ZM147.712 6.976L147.969 7.94248L147.976 7.94062L147.983 7.93865L147.712 6.976ZM142.673 9.904L141.941 9.22227L141.94 9.22289L142.673 9.904ZM139.792 14.752L140.738 15.078L139.792 14.752ZM138.785 20.656L139.784 20.6716V20.6714L138.785 20.656ZM139.456 26.464L138.489 26.7185L139.456 26.464ZM141.76 31.84L142.618 31.3255L141.76 31.84ZM145.553 36.4L144.896 37.1547L144.906 37.1628L145.553 36.4ZM150.497 39.184L150.18 40.1327L150.188 40.1352L150.195 40.1376L150.497 39.184ZM156.257 39.232L156.014 38.2619L156.005 38.2641L155.996 38.2665L156.257 39.232ZM161.296 36.352L162.028 37.0338L162.036 37.0255L161.296 36.352ZM164.225 31.408L163.284 31.0676L163.282 31.0748L163.279 31.082L164.225 31.408ZM165.281 25.552L164.281 25.5212L164.281 25.5288L164.281 25.5364L165.281 25.552ZM164.657 19.696L163.688 19.9464L163.689 19.9505L164.657 19.696ZM162.353 14.272L161.495 14.7865L162.353 14.272ZM158.512 9.712L157.856 10.4666L157.864 10.4735L158.512 9.712ZM153.521 6.976L153.219 7.92958L153.229 7.93271L153.239 7.93563L153.521 6.976ZM147.939 7.55352C150.045 6.95192 152.121 6.81949 154.179 7.14753L154.494 5.17247C152.136 4.79651 149.764 4.95208 147.39 5.63047L147.939 7.55352ZM154.195 7.14995C156.308 7.45183 158.228 8.12852 159.964 9.17619L160.997 7.46381C159.021 6.27148 156.845 5.50817 154.478 5.17005L154.195 7.14995ZM159.981 9.18643C161.751 10.2064 163.284 11.5574 164.583 13.249L166.17 12.031C164.717 10.1386 162.986 8.60964 160.98 7.45357L159.981 9.18643ZM164.59 13.2578C165.909 14.9368 166.84 16.8412 167.383 18.9817L169.322 18.4903C168.712 16.0868 167.66 13.9272 166.163 12.0222L164.59 13.2578ZM167.391 19.0107C167.994 21.1196 168.142 23.2179 167.843 25.3146L169.822 25.5974C170.163 23.2141 169.991 20.8323 169.314 18.4613L167.391 19.0107ZM167.843 25.3126C167.54 27.399 166.877 29.3443 165.85 31.155L167.591 32.141C168.74 30.1117 169.485 27.929 169.822 25.5994L167.843 25.3126ZM165.854 31.1487C164.833 32.921 163.479 34.4729 161.783 35.8057L163.018 37.3783C164.906 35.8951 166.432 34.151 167.587 32.1473L165.854 31.1487ZM161.785 35.8042C160.136 37.093 158.243 38.0269 156.094 38.602L156.611 40.534C159.006 39.8931 161.145 38.843 163.016 37.3798L161.785 35.8042ZM156.081 38.6055C153.936 39.2097 151.837 39.3571 149.776 39.0583L149.489 41.0377C151.844 41.3789 154.225 41.2063 156.624 40.5305L156.081 38.6055ZM149.776 39.0583C147.69 38.7561 145.763 38.0928 143.988 37.0696L142.989 38.8024C144.99 39.9552 147.159 40.6999 149.489 41.0377L149.776 39.0583ZM143.994 37.0733C142.253 36.0523 140.714 34.6976 139.379 32.9982L137.806 34.2338C139.287 36.1184 141.012 37.6437 142.983 38.7987L143.994 37.0733ZM139.379 32.9982C138.059 31.3184 137.11 29.395 136.535 27.2168L134.602 27.7272C135.243 30.157 136.31 32.3296 137.806 34.2338L139.379 32.9982ZM136.535 27.2135C135.96 25.0666 135.826 22.9466 136.126 20.8454L134.147 20.5626C133.807 22.9414 133.961 25.3334 134.602 27.7305L136.535 27.2135ZM136.124 20.8592C136.458 18.7354 137.139 16.7887 138.163 15.0113L136.43 14.0127C135.278 16.0113 134.519 18.1926 134.149 20.5488L136.124 20.8592ZM138.157 15.0222C139.212 13.243 140.569 11.7046 142.232 10.4038L141.001 8.82819C139.144 10.2794 137.621 12.005 136.436 14.0018L138.157 15.0222ZM142.241 10.3969C143.889 9.07899 145.779 8.13186 147.923 7.55801L147.406 5.62599C145.006 6.26814 142.864 7.33701 140.992 8.83513L142.241 10.3969ZM147.456 6.00951C145.245 6.59679 143.394 7.66282 141.941 9.22227L143.404 10.5857C144.575 9.32918 146.084 8.44321 147.969 7.94248L147.456 6.00951ZM141.94 9.22289C140.561 10.7057 139.531 12.4441 138.847 14.426L140.738 15.078C141.334 13.3479 142.224 11.8543 143.405 10.5851L141.94 9.22289ZM138.847 14.426C138.171 16.3878 137.818 18.4612 137.785 20.6406L139.784 20.6714C139.815 18.6908 140.134 16.8282 140.738 15.078L138.847 14.426ZM137.785 20.6404C137.751 22.7717 137.984 24.7992 138.489 26.7185L140.424 26.2095C139.969 24.4808 139.754 22.6363 139.784 20.6716L137.785 20.6404ZM138.489 26.7185C138.995 28.6416 139.803 30.5205 140.903 32.3545L142.618 31.3255C141.606 29.6395 140.878 27.9344 140.424 26.2095L138.489 26.7185ZM140.903 32.3545C142.01 34.1999 143.341 35.8021 144.896 37.1546L146.209 35.6454C144.82 34.4379 143.623 33.0001 142.618 31.3255L140.903 32.3545ZM144.906 37.1628C146.475 38.4929 148.235 39.4842 150.18 40.1327L150.813 38.2353C149.11 37.6678 147.574 36.8031 146.199 35.6372L144.906 37.1628ZM150.195 40.1376C152.218 40.7764 154.334 40.7865 156.517 40.1975L155.996 38.2665C154.147 38.7655 152.423 38.7436 150.798 38.2304L150.195 40.1376ZM156.499 40.2021C158.716 39.648 160.572 38.5967 162.028 37.0337L160.565 35.6703C159.397 36.9233 157.893 37.792 156.014 38.2619L156.499 40.2021ZM162.036 37.0255C163.44 35.4841 164.486 33.7176 165.17 31.734L163.279 31.082C162.683 32.8104 161.777 34.3399 160.557 35.6785L162.036 37.0255ZM165.165 31.7484C165.876 29.7843 166.247 27.7222 166.28 25.5676L164.281 25.5364C164.25 27.4778 163.917 29.3197 163.284 31.0676L165.165 31.7484ZM166.28 25.5828C166.347 23.4164 166.13 21.3676 165.624 19.4415L163.689 19.9505C164.143 21.6724 164.342 23.5276 164.281 25.5212L166.28 25.5828ZM165.625 19.4456C165.119 17.4904 164.312 15.594 163.21 13.7575L161.495 14.7865C162.505 16.47 163.234 18.1896 163.688 19.9464L165.625 19.4456ZM163.21 13.7575C162.1 11.908 160.751 10.3036 159.161 8.95046L157.864 10.4735C159.282 11.6804 160.493 13.116 161.495 14.7865L163.21 13.7575ZM159.169 8.95739C157.589 7.58368 155.797 6.60126 153.802 6.01637L153.239 7.93563C154.956 8.43874 156.492 9.28032 157.856 10.4666L159.169 8.95739ZM153.822 6.02242C151.791 5.38131 149.655 5.39076 147.442 6.01335L147.983 7.93865C149.866 7.40924 151.602 7.41868 153.219 7.92958L153.822 6.02242ZM204.957 40V41H205.808L205.944 40.1601L204.957 40ZM185.805 40H184.805V41H185.805V40ZM185.805 6.112V5.112H184.805V6.112H185.805ZM189.645 6.112H190.645V5.112H189.645V6.112ZM189.645 39.616H188.645V40.616H189.645V39.616ZM202.797 38.08L202.182 37.2916L202.172 37.2991L202.797 38.08ZM206.109 32.896L207.096 33.0561L205.171 32.5503L206.109 32.896ZM204.957 39H185.805V41H204.957V39ZM186.805 40V6.112H184.805V40H186.805ZM185.805 7.112H189.645V5.112H185.805V7.112ZM188.645 6.112V39.616H190.645V6.112H188.645ZM189.645 40.616H197.757V38.616H189.645V40.616ZM197.757 40.616C200.002 40.616 201.921 40.0612 203.422 38.8609L202.172 37.2991C201.113 38.1468 199.672 38.616 197.757 38.616V40.616ZM203.412 38.8683C204.931 37.6826 206.12 35.7591 207.047 33.2417L205.171 32.5503C204.306 34.8969 203.287 36.4294 202.182 37.2917L203.412 38.8683ZM205.122 32.7359L203.97 39.8399L205.944 40.1601L207.096 33.0561L205.122 32.7359ZM214.373 33.232L213.456 33.6301L213.459 33.6373L213.462 33.6445L214.373 33.232ZM217.445 37.408L216.797 38.1699L216.807 38.1786L216.818 38.187L217.445 37.408ZM222.005 39.52L221.805 40.4999L221.814 40.5017L221.823 40.5033L222.005 39.52ZM227.477 38.896L227.137 37.9554L227.128 37.9588L227.119 37.9623L227.477 38.896ZM232.853 34.768L232.027 34.2038L232.021 34.2133L232.853 34.768ZM234.725 21.904L233.725 21.9191L233.725 21.927L233.725 21.9348L234.725 21.904ZM234.341 15.76L233.347 15.8704L233.347 15.8722L234.341 15.76ZM233.333 10.192L232.361 10.4261L232.363 10.4367L232.366 10.4474L233.333 10.192ZM231.509 6.064V5.064H229.459L230.721 6.67964L231.509 6.064ZM235.253 6.064H236.253V5.064H235.253V6.064ZM233.285 34.816L232.443 34.2765L232.437 34.286L233.285 34.816ZM227.573 39.28L227.91 40.2215L227.917 40.2188L227.573 39.28ZM221.093 40.096L220.989 41.0906L220.99 41.0907L221.093 40.096ZM215.285 38.224L214.763 39.0774L214.775 39.0843L215.285 38.224ZM211.061 33.952L210.199 34.4597L210.206 34.471L211.061 33.952ZM209.477 6.064V5.064H208.477V6.064H209.477ZM213.269 6.064H214.269V5.064H213.269V6.064ZM212.269 27.712C212.269 29.8228 212.661 31.7995 213.456 33.6301L215.29 32.8339C214.613 31.2725 214.269 29.5692 214.269 27.712H212.269ZM213.462 33.6445C214.284 35.4603 215.393 36.9764 216.797 38.1699L218.093 36.6461C216.937 35.6636 215.998 34.3957 215.284 32.8195L213.462 33.6445ZM216.818 38.187C218.26 39.3479 219.928 40.1176 221.805 40.4999L222.204 38.5401C220.625 38.2184 219.254 37.5801 218.072 36.629L216.818 38.187ZM221.823 40.5033C223.761 40.8622 225.772 40.6203 227.835 39.8297L227.119 37.9623C225.341 38.6437 223.705 38.8178 222.187 38.5367L221.823 40.5033ZM227.817 39.8366C230.309 38.9367 232.279 37.432 233.685 35.3227L232.021 34.2133C230.867 35.944 229.253 37.1913 227.137 37.9554L227.817 39.8366ZM233.679 35.3322C235.125 33.2155 235.821 30.6569 235.821 27.712H233.821C233.821 30.3351 233.205 32.4805 232.027 34.2038L233.679 35.3322ZM235.821 27.712C235.821 25.9083 235.789 23.9619 235.724 21.8732L233.725 21.9348C233.789 24.0061 233.821 25.9317 233.821 27.712H235.821ZM235.725 21.8888C235.692 19.7463 235.562 17.6658 235.335 15.6478L233.347 15.8722C233.567 17.8222 233.693 19.8377 233.725 21.9191L235.725 21.8888ZM235.335 15.6496C235.106 13.592 234.762 11.6869 234.3 9.93661L232.366 10.4474C232.8 12.0891 233.128 13.896 233.347 15.8704L235.335 15.6496ZM234.305 9.95794C233.867 8.13915 233.211 6.61831 232.297 5.44835L230.721 6.67964C231.407 7.55769 231.967 8.78884 232.361 10.4261L234.305 9.95794ZM231.509 7.064H235.253V5.064H231.509V7.064ZM234.253 6.064V27.712H236.253V6.064H234.253ZM234.253 27.712C234.253 30.2296 233.641 32.4063 232.443 34.2766L234.127 35.3554C235.553 33.1297 236.253 30.5704 236.253 27.712H234.253ZM232.437 34.286C231.288 36.1239 229.573 37.4805 227.228 38.3413L227.917 40.2188C230.629 39.2235 232.722 37.6041 234.133 35.346L232.437 34.286ZM227.236 38.3386C225.226 39.0583 223.216 39.3093 221.195 39.1013L220.99 41.0907C223.321 41.3307 225.631 41.0377 227.91 40.2214L227.236 38.3386ZM221.197 39.1014C219.186 38.8913 217.39 38.3089 215.795 37.3637L214.775 39.0843C216.636 40.1871 218.712 40.8527 220.989 41.0906L221.197 39.1014ZM215.806 37.3707C214.219 36.4009 212.924 35.0936 211.916 33.433L210.206 34.471C211.374 36.3944 212.894 37.9351 214.763 39.0773L215.806 37.3707ZM211.922 33.4443C210.969 31.8265 210.477 29.9266 210.477 27.712H208.477C208.477 30.2334 209.041 32.4935 210.199 34.4597L211.922 33.4443ZM210.477 27.712V6.064H208.477V27.712H210.477ZM209.477 7.064H213.269V5.064H209.477V7.064ZM212.269 6.064V27.712H214.269V6.064H212.269ZM255.834 26.992L256.757 26.6071L256.474 25.9276L255.741 25.9964L255.834 26.992ZM250.794 28.288L251.232 29.1868L251.241 29.1825L251.25 29.178L250.794 28.288ZM247.53 30.592L246.81 29.8979L246.81 29.8984L247.53 30.592ZM245.562 33.424L246.462 33.8596L246.467 33.8484L245.562 33.424ZM244.266 36.208L243.352 35.8019L243.339 35.8317L243.328 35.8623L244.266 36.208ZM243.546 37.888L242.652 37.4408L242.64 37.4637L242.63 37.4872L243.546 37.888ZM242.778 39.184L242.004 38.5508L242.778 39.184ZM241.77 40L241.323 39.1056L241.294 39.12L241.266 39.1362L241.77 40ZM240.378 40.288L240.182 41.2686L240.25 41.2822L240.319 41.2863L240.378 40.288ZM239.994 40.192L240.31 39.2433L240.156 39.192H239.994V40.192ZM239.61 39.952L240.317 39.2449L240.184 39.1119L240.012 39.0364L239.61 39.952ZM238.026 35.776L237.033 35.6557L237.033 35.6608L238.026 35.776ZM238.698 32.224L237.731 31.9706L237.728 31.9788L237.726 31.987L238.698 32.224ZM240.09 27.904L241.026 28.2551L241.028 28.2513L240.09 27.904ZM242.298 22.48L243.213 22.8833L243.216 22.8776L242.298 22.48ZM244.938 16.768L245.835 17.2091L245.838 17.2032L244.938 16.768ZM247.77 11.152L248.655 11.6177L247.77 11.152ZM250.602 6.112V5.112H250.038L249.746 5.59488L250.602 6.112ZM250.938 6.112L251.859 5.72202L251.6 5.112H250.938V6.112ZM265.29 40V41H266.799L266.211 39.61L265.29 40ZM261.258 40L260.335 40.3849L260.592 41H261.258V40ZM248.634 10.24L249.553 9.84511L248.722 7.91273L247.748 9.77675L248.634 10.24ZM246.378 14.608L245.487 14.1532L245.484 14.1608L245.48 14.1684L246.378 14.608ZM244.17 19.168L243.268 18.7359L243.264 18.7441L244.17 19.168ZM242.154 23.68L243.074 24.0716L242.154 23.68ZM240.426 28L241.362 28.3511L241.363 28.3487L240.426 28ZM239.034 32.272L238.068 32.0129L238.065 32.0239L238.062 32.035L239.034 32.272ZM238.362 35.776L237.37 35.652L237.366 35.6817L237.364 35.7116L238.362 35.776ZM238.554 38.32L237.589 38.5831L237.597 38.6099L237.605 38.6362L238.554 38.32ZM239.754 39.616L240.125 38.6875L240.098 38.6766L240.07 38.6673L239.754 39.616ZM240.09 39.76L239.643 40.6544L239.854 40.76H240.09V39.76ZM240.426 39.856L239.979 40.7504L240.159 40.8404L240.359 40.8538L240.426 39.856ZM242.586 38.896L243.412 39.4593L243.418 39.4509L243.424 39.4423L242.586 38.896ZM243.882 36.112L242.963 35.7181L242.948 35.7524L242.936 35.7877L243.882 36.112ZM245.226 33.232L246.12 33.6792V33.6792L245.226 33.232ZM247.242 30.352L246.51 29.6706L246.509 29.6715L247.242 30.352ZM250.554 27.952L250.107 27.0576L250.554 27.952ZM255.69 26.656L255.782 27.6518L257.152 27.5253L256.609 26.2611L255.69 26.656ZM255.741 25.9964C253.613 26.1959 251.798 26.65 250.338 27.398L251.25 29.178C252.414 28.582 253.959 28.1721 255.927 27.9876L255.741 25.9964ZM250.356 27.3892C248.956 28.0718 247.768 28.9046 246.81 29.8979L248.25 31.2861C249.02 30.4874 250.008 29.7842 251.232 29.1868L250.356 27.3892ZM246.81 29.8984C245.906 30.8365 245.186 31.8704 244.657 32.9996L246.467 33.8484C246.898 32.9296 247.49 32.0755 248.25 31.2856L246.81 29.8984ZM244.662 32.9884C244.178 33.9886 243.741 34.9265 243.352 35.8019L245.18 36.6141C245.559 35.7615 245.986 34.8434 246.462 33.8596L244.662 32.9884ZM243.328 35.8623C243.115 36.4401 242.889 36.9658 242.652 37.4408L244.44 38.3352C244.715 37.7862 244.969 37.1919 245.204 36.5537L243.328 35.8623ZM242.63 37.4872C242.434 37.9339 242.223 38.2833 242.004 38.5508L243.552 39.8172C243.909 39.3807 244.21 38.8661 244.462 38.2888L242.63 37.4872ZM242.004 38.5508C241.8 38.8002 241.573 38.9803 241.323 39.1056L242.217 40.8944C242.735 40.6357 243.18 40.2718 243.552 39.8172L242.004 38.5508ZM241.266 39.1362C241.087 39.2405 240.829 39.3128 240.437 39.2897L240.319 41.2863C241.015 41.3272 241.685 41.2075 242.274 40.8638L241.266 39.1362ZM240.574 39.3074C240.433 39.2793 240.351 39.2568 240.31 39.2433L239.678 41.1407C239.829 41.1912 240.003 41.2327 240.182 41.2686L240.574 39.3074ZM239.994 39.192C240.108 39.192 240.197 39.2156 240.252 39.2353C240.307 39.2549 240.342 39.2755 240.356 39.284C240.379 39.2987 240.367 39.2951 240.317 39.2449L238.903 40.6591C239.013 40.7689 239.145 40.8853 239.296 40.98C239.436 41.0673 239.68 41.192 239.994 41.192V39.192ZM240.012 39.0364C239.612 38.8609 239.338 38.5774 239.165 38.1213C238.979 37.6307 238.901 36.9082 239.019 35.8912L237.033 35.6608C236.895 36.8518 236.953 37.9293 237.295 38.8307C237.65 39.7666 238.296 40.4671 239.208 40.8676L240.012 39.0364ZM239.019 35.8963C239.141 34.8884 239.357 33.7442 239.67 32.461L237.726 31.987C237.399 33.3278 237.167 34.5516 237.033 35.6557L239.019 35.8963ZM239.665 32.4774C240.007 31.1717 240.46 29.7646 241.026 28.2551L239.154 27.5529C238.568 29.1154 238.093 30.5883 237.731 31.9706L239.665 32.4774ZM241.028 28.2513C241.66 26.5443 242.388 24.755 243.213 22.8833L241.383 22.0767C240.544 23.981 239.8 25.8077 239.152 27.5567L241.028 28.2513ZM243.216 22.8776C244.041 20.9723 244.914 19.0829 245.835 17.2091L244.041 16.3269C243.106 18.2291 242.219 20.1477 241.38 22.0824L243.216 22.8776ZM245.838 17.2032C246.762 15.2931 247.7 13.4313 248.655 11.6177L246.885 10.6863C245.92 12.5207 244.97 14.4029 244.038 16.3328L245.838 17.2032ZM248.655 11.6177C249.607 9.80866 250.541 8.14603 251.458 6.62911L249.746 5.59488C248.807 7.14997 247.853 8.84734 246.885 10.6863L248.655 11.6177ZM250.602 7.112H250.938V5.112H250.602V7.112ZM250.017 6.50198L264.369 40.39L266.211 39.61L251.859 5.72202L250.017 6.50198ZM265.29 39H261.258V41H265.29V39ZM262.181 39.6151L256.757 26.6071L254.911 27.3769L260.335 40.3849L262.181 39.6151ZM247.748 9.77675C247.01 11.1877 246.257 12.6466 245.487 14.1532L247.269 15.0628C248.035 13.5614 248.786 12.1083 249.52 10.7033L247.748 9.77675ZM245.48 14.1684C244.743 15.675 244.005 17.1974 243.268 18.7359L245.072 19.6001C245.807 18.0666 246.541 16.549 247.276 15.0476L245.48 14.1684ZM243.264 18.7441C242.555 20.2586 241.879 21.7734 241.234 23.2884L243.074 24.0716C243.709 22.5786 244.377 21.0854 245.076 19.5919L243.264 18.7441ZM241.234 23.2884C240.588 24.805 240.007 26.2594 239.489 27.6513L241.363 28.3487C241.869 26.9886 242.44 25.563 243.074 24.0716L241.234 23.2884ZM239.49 27.6489C238.905 29.2091 238.43 30.6642 238.068 32.0129L240 32.5311C240.342 31.2558 240.795 29.8629 241.362 28.3511L239.49 27.6489ZM238.062 32.035C237.736 33.3736 237.504 34.5805 237.37 35.652L239.354 35.9C239.476 34.9235 239.692 33.7944 240.006 32.509L238.062 32.035ZM237.364 35.7116C237.295 36.7767 237.36 37.7417 237.589 38.5831L239.519 38.0569C239.364 37.4903 239.301 36.7593 239.36 35.8404L237.364 35.7116ZM237.605 38.6362C237.91 39.5504 238.511 40.2557 239.438 40.5647L240.07 38.6673C239.845 38.5923 239.646 38.4336 239.503 38.0038L237.605 38.6362ZM239.383 40.5445C239.543 40.6085 239.62 40.643 239.643 40.6544L240.537 38.8656C240.432 38.813 240.285 38.7515 240.125 38.6875L239.383 40.5445ZM240.09 40.76C240.028 40.76 239.986 40.7498 239.971 40.7455C239.956 40.7412 239.958 40.7401 239.979 40.7504L240.873 38.9616C240.669 38.8594 240.399 38.76 240.09 38.76V40.76ZM240.359 40.8538C241.618 40.9377 242.704 40.4988 243.412 39.4593L241.76 38.3327C241.508 38.7012 241.154 38.9023 240.493 38.8582L240.359 40.8538ZM243.424 39.4423C243.961 38.6179 244.426 37.6094 244.828 36.4363L242.936 35.7877C242.57 36.8546 242.171 37.7021 241.748 38.3497L243.424 39.4423ZM244.801 36.5059C245.176 35.6307 245.616 34.6886 246.12 33.6792L244.332 32.7848C243.812 33.8234 243.356 34.8013 242.963 35.7181L244.801 36.5059ZM246.12 33.6792C246.587 32.7458 247.203 31.8635 247.975 31.0325L246.509 29.6715C245.617 30.6325 244.889 31.6702 244.332 32.7848L246.12 33.6792ZM247.974 31.0334C248.743 30.2074 249.745 29.4747 251.001 28.8464L250.107 27.0576C248.675 27.7733 247.469 28.6406 246.51 29.6706L247.974 31.0334ZM251.001 28.8464C252.2 28.2471 253.781 27.8365 255.782 27.6518L255.598 25.6602C253.439 25.8595 251.596 26.3129 250.107 27.0576L251.001 28.8464ZM256.609 26.2611L249.553 9.84511L247.715 10.6349L254.771 27.0509L256.609 26.2611Z" fill="white" mask="url(#path-1-outside-1_306_280)"/>
<path fill-rule="evenodd" clip-rule="evenodd" d="M275 0.366306C270.651 1.56141 267.457 5.54343 267.457 10.2716C267.457 14.9998 270.651 18.9818 275 20.1769C274.131 20.4157 273.216 20.5432 272.272 20.5432C266.599 20.5432 262 15.9445 262 10.2716C262 4.59875 266.599 0 272.272 0C273.216 0 274.131 0.127528 275 0.366306Z" fill="white"/>
</svg>
