<svg width="211" height="39" viewBox="0 0 211 39" fill="none" xmlns="http://www.w3.org/2000/svg">
<mask id="path-1-outside-1_4_136" maskUnits="userSpaceOnUse" x="-1" y="-1" width="213" height="41" fill="black">
<rect fill="white" x="-1" y="-1" width="213" height="41"/>
<path d="M2.61188 16.56C2.61188 15.0667 2.97188 13.8267 3.69188 12.84C4.43854 11.8533 5.38521 11.0933 6.53188 10.56C7.67854 10 8.94521 9.66667 10.3319 9.56C11.7452 9.42667 13.1185 9.49333 14.4519 9.76C15.7852 10.0267 17.0119 10.4667 18.1319 11.08C19.2519 11.6933 20.0919 12.4667 20.6519 13.4V17.6C19.6385 15.5467 18.4519 13.9467 17.0919 12.8C15.7585 11.6533 14.3985 10.8667 13.0119 10.44C11.6252 10.0133 10.2785 9.90667 8.97188 10.12C7.66521 10.3067 6.55854 10.72 5.65188 11.36C4.87854 11.8667 4.34521 12.52 4.05188 13.32C3.75854 14.0933 3.83854 14.96 4.29188 15.92C4.74521 16.88 5.62521 17.9067 6.93188 19C8.26521 20.0933 10.1585 21.2133 12.6119 22.36C13.7052 22.84 14.7585 23.3467 15.7719 23.88C16.8119 24.4133 17.7185 25.04 18.4919 25.76C19.2919 26.4533 19.9319 27.2533 20.4119 28.16C20.8919 29.04 21.1319 30.0667 21.1319 31.24C21.1319 32.3333 20.9185 33.2933 20.4919 34.12C20.0919 34.9467 19.5319 35.6533 18.8119 36.24C17.6652 37.12 16.2785 37.68 14.6519 37.92C13.0519 38.16 11.3852 38.1067 9.65188 37.76C7.94521 37.4133 6.27854 36.7867 4.65188 35.88C3.05188 34.9467 1.69188 33.76 0.571875 32.32V26.76C1.55854 29.24 2.79854 31.32 4.29188 33C5.81188 34.6533 7.41188 35.88 9.09188 36.68C10.7719 37.4533 12.4385 37.7867 14.0919 37.68C15.7719 37.5733 17.2385 36.9867 18.4919 35.92C19.1585 35.36 19.5852 34.7067 19.7719 33.96C19.9585 33.1867 19.7985 32.3467 19.2919 31.44C18.7852 30.5067 17.8652 29.52 16.5319 28.48C15.2252 27.44 13.4119 26.3867 11.0919 25.32C10.0252 24.84 8.98521 24.3333 7.97188 23.8C6.95854 23.24 6.05188 22.6133 5.25188 21.92C4.45188 21.2267 3.81188 20.4533 3.33188 19.6C2.85188 18.72 2.61188 17.7067 2.61188 16.56ZM33.9053 10.16C35.772 9.62667 37.6253 9.50667 39.4653 9.8C41.332 10.0667 43.0386 10.6667 44.5853 11.6C46.1586 12.5067 47.5186 13.7067 48.6653 15.2C49.8386 16.6933 50.6653 18.3867 51.1453 20.28C51.6786 22.1467 51.812 24.0133 51.5453 25.88C51.2786 27.72 50.692 29.44 49.7853 31.04C48.8786 32.6133 47.6786 33.9867 46.1853 35.16C44.7186 36.3067 43.0386 37.1333 41.1453 37.64C39.252 38.1733 37.3853 38.3067 35.5453 38.04C33.7053 37.7733 31.9986 37.1867 30.4253 36.28C28.8786 35.3733 27.5186 34.1733 26.3453 32.68C25.172 31.1867 24.332 29.48 23.8253 27.56C23.3186 25.6667 23.1986 23.7867 23.4653 21.92C23.7586 20.0533 24.3586 18.3333 25.2653 16.76C26.1986 15.1867 27.3986 13.8267 28.8653 12.68C30.332 11.5067 32.012 10.6667 33.9053 10.16ZM33.9453 10.48C32.2386 10.9333 30.8386 11.7467 29.7453 12.92C28.6786 14.0667 27.8786 15.4133 27.3453 16.96C26.812 18.5067 26.532 20.1467 26.5053 21.88C26.4786 23.5867 26.6653 25.2 27.0653 26.72C27.4653 28.24 28.1053 29.7333 28.9853 31.2C29.8653 32.6667 30.9186 33.9333 32.1453 35C33.372 36.04 34.7453 36.8133 36.2653 37.32C37.7853 37.8 39.3853 37.8133 41.0653 37.36C42.772 36.9333 44.172 36.1333 45.2653 34.96C46.3586 33.76 47.172 32.3867 47.7053 30.84C48.2653 29.2933 48.5586 27.6667 48.5853 25.96C48.6386 24.2267 48.4653 22.6 48.0653 21.08C47.6653 19.5333 47.0253 18.0267 46.1453 16.56C45.2653 15.0933 44.1986 13.8267 42.9453 12.76C41.7186 11.6933 40.332 10.9333 38.7853 10.48C37.2653 10 35.652 10 33.9453 10.48ZM66.3572 22.44C67.6105 22.52 68.7572 22.7067 69.7972 23C70.8639 23.2933 71.7705 23.7333 72.5172 24.32C73.2905 24.9067 73.8905 25.68 74.3172 26.64C74.7439 27.5733 74.9572 28.7467 74.9572 30.16C74.9572 31.76 74.6772 33.0667 74.1172 34.08C73.5572 35.0933 72.7839 35.8933 71.7972 36.48C70.8105 37.0667 69.6505 37.4667 68.3172 37.68C66.9839 37.8933 65.5439 38 63.9972 38H54.5172V9.76H61.4372C62.9305 9.76 64.3305 9.88 65.6372 10.12C66.9705 10.36 68.1172 10.7333 69.0772 11.24C70.0639 11.7467 70.8372 12.4133 71.3972 13.24C71.9572 14.04 72.2372 15.0133 72.2372 16.16C72.2372 17.0667 72.0772 17.8667 71.7572 18.56C71.4639 19.2533 71.0505 19.8667 70.5172 20.4C69.9839 20.9067 69.3572 21.3333 68.6372 21.68C67.9172 22.0267 67.1572 22.28 66.3572 22.44ZM71.8372 30.16C71.8372 28.3733 71.5839 26.9733 71.0772 25.96C70.5972 24.9467 69.9705 24.2 69.1972 23.72C68.4505 23.2133 67.6105 22.9067 66.6772 22.8C65.7705 22.6933 64.8772 22.64 63.9972 22.64C63.0639 22.64 62.1705 22.3867 61.3172 21.88C60.4905 21.3733 59.7839 20.6533 59.1972 19.72C58.8239 19.1867 58.5172 18.5867 58.2772 17.92C58.0372 17.2267 57.8372 16.4933 57.6772 15.72V37.68H63.6772C64.5839 37.68 65.5172 37.6267 66.4772 37.52C67.4372 37.4133 68.3172 37.12 69.1172 36.64C69.9172 36.1333 70.5705 35.3867 71.0772 34.4C71.5839 33.3867 71.8372 31.9733 71.8372 30.16ZM69.1172 16.16C69.1172 15.0133 68.8905 14.0533 68.4372 13.28C68.0105 12.5067 67.4372 11.88 66.7172 11.4C65.9972 10.92 65.1705 10.5733 64.2372 10.36C63.3305 10.1467 62.3972 10.04 61.4372 10.04H57.6772V12.68C57.6772 14.0667 57.8372 15.3467 58.1572 16.52C58.4772 17.6667 58.9305 18.6667 59.5172 19.52C60.0772 20.4267 60.7305 21.12 61.4772 21.6C62.2505 22.08 63.0905 22.32 63.9972 22.32C64.6639 22.32 65.3039 22.2133 65.9172 22C66.5305 21.76 67.0772 21.3867 67.5572 20.88C68.0372 20.3733 68.4105 19.7333 68.6772 18.96C68.9705 18.1867 69.1172 17.2533 69.1172 16.16ZM89.0794 22.4C90.1194 22.64 90.9994 23.0533 91.7194 23.64C92.4394 24.2267 93.066 24.92 93.5994 25.72C94.1594 26.52 94.6394 27.4 95.0394 28.36C95.4394 29.2933 95.8394 30.2267 96.2394 31.16C96.6127 32.04 96.986 32.88 97.3594 33.68C97.7594 34.4533 98.186 35.1467 98.6394 35.76C99.0927 36.3467 99.586 36.8133 100.119 37.16C100.653 37.5067 101.253 37.68 101.919 37.68V38C100.106 38 98.626 37.7867 97.4794 37.36C96.3327 36.9067 95.426 36.32 94.7594 35.6C94.0927 34.88 93.5994 34.0533 93.2794 33.12C92.986 32.1867 92.746 31.24 92.5594 30.28C92.3994 29.32 92.2394 28.3733 92.0794 27.44C91.946 26.5067 91.7194 25.68 91.3994 24.96C91.0794 24.24 90.5994 23.6667 89.9594 23.24C89.346 22.7867 88.4794 22.56 87.3594 22.56C85.3327 22.56 83.706 21.6 82.4794 19.68C81.786 18.56 81.266 17.1867 80.9194 15.56V38H77.7594V9.72H84.7994C86.266 9.72 87.6527 9.84 88.9594 10.08C90.266 10.2933 91.3994 10.6533 92.3594 11.16C93.346 11.6667 94.1194 12.32 94.6794 13.12C95.2394 13.92 95.5194 14.8933 95.5194 16.04C95.5194 17.0267 95.346 17.8933 94.9994 18.64C94.6527 19.3867 94.186 20.0267 93.5994 20.56C93.0127 21.0667 92.3327 21.48 91.5594 21.8C90.786 22.0933 89.9594 22.2933 89.0794 22.4ZM92.3594 16.04C92.3594 14.8933 92.146 13.9467 91.7194 13.2C91.2927 12.4267 90.7327 11.8133 90.0394 11.36C89.346 10.88 88.5327 10.5467 87.5994 10.36C86.6927 10.1467 85.7594 10.04 84.7994 10.04H80.9194V12.52C80.9194 13.9867 81.0794 15.2933 81.3994 16.44C81.746 17.5867 82.1994 18.6 82.7594 19.48C83.3194 20.3067 83.986 20.9867 84.7594 21.52C85.5594 22.0267 86.426 22.28 87.3594 22.28H87.6394C88.2794 22.2533 88.8794 22.1067 89.4394 21.84C90.026 21.5733 90.5327 21.1867 90.9594 20.68C91.386 20.1733 91.7194 19.5333 91.9594 18.76C92.226 17.9867 92.3594 17.08 92.3594 16.04ZM107.793 37.68H114.553C116.313 37.68 117.739 37.2533 118.833 36.4C119.926 35.5467 120.833 34.1067 121.553 32.08L120.633 38H104.713V9.76H120.873V12.96C120.153 12.2933 119.459 11.76 118.793 11.36C118.153 10.96 117.459 10.6667 116.713 10.48C115.993 10.2933 115.179 10.1733 114.273 10.12C113.366 10.0667 112.299 10.04 111.073 10.04H107.793V16.52C107.793 17.88 107.966 19 108.312 19.88C108.659 20.7333 109.179 21.4 109.873 21.88C110.566 22.36 111.433 22.6933 112.473 22.88C113.513 23.04 114.713 23.12 116.073 23.12V26.28C115.486 25.6133 114.779 25.0933 113.953 24.72C113.126 24.3467 112.299 23.9467 111.473 23.52C110.673 23.0667 109.926 22.52 109.233 21.88C108.566 21.24 108.086 20.3333 107.793 19.16V37.68ZM138.533 9.76C139.626 9.76 140.653 9.96 141.613 10.36C142.599 10.7333 143.506 11.28 144.333 12C145.186 12.6933 145.959 13.5333 146.653 14.52C147.373 15.48 148.026 16.5333 148.613 17.68C149.813 19.8667 150.746 22.28 151.413 24.92C152.106 27.5333 152.599 30.1333 152.893 32.72V9.76H155.893V38H152.893C152.893 36.4 152.799 34.7333 152.613 33C152.426 31.24 152.146 29.48 151.773 27.72C151.399 25.96 150.933 24.24 150.373 22.56C149.839 20.8533 149.199 19.28 148.453 17.84C147.839 16.6933 147.186 15.6533 146.493 14.72C145.799 13.76 145.039 12.9333 144.213 12.24C143.386 11.5467 142.493 11.0133 141.533 10.64C140.599 10.24 139.599 10.04 138.533 10.04V38H135.533V9.76H138.533ZM169.257 10.16C171.124 9.62667 172.977 9.50667 174.817 9.8C176.684 10.0667 178.39 10.6667 179.937 11.6C181.51 12.5067 182.87 13.7067 184.017 15.2C185.19 16.6933 186.017 18.3867 186.497 20.28C187.03 22.1467 187.164 24.0133 186.897 25.88C186.63 27.72 186.044 29.44 185.137 31.04C184.23 32.6133 183.03 33.9867 181.537 35.16C180.07 36.3067 178.39 37.1333 176.497 37.64C174.604 38.1733 172.737 38.3067 170.897 38.04C169.057 37.7733 167.35 37.1867 165.777 36.28C164.23 35.3733 162.87 34.1733 161.697 32.68C160.524 31.1867 159.684 29.48 159.177 27.56C158.67 25.6667 158.55 23.7867 158.817 21.92C159.11 20.0533 159.71 18.3333 160.617 16.76C161.55 15.1867 162.75 13.8267 164.217 12.68C165.684 11.5067 167.364 10.6667 169.257 10.16ZM169.297 10.48C167.59 10.9333 166.19 11.7467 165.097 12.92C164.03 14.0667 163.23 15.4133 162.697 16.96C162.164 18.5067 161.884 20.1467 161.857 21.88C161.83 23.5867 162.017 25.2 162.417 26.72C162.817 28.24 163.457 29.7333 164.337 31.2C165.217 32.6667 166.27 33.9333 167.497 35C168.724 36.04 170.097 36.8133 171.617 37.32C173.137 37.8 174.737 37.8133 176.417 37.36C178.124 36.9333 179.524 36.1333 180.617 34.96C181.71 33.76 182.524 32.3867 183.057 30.84C183.617 29.2933 183.91 27.6667 183.937 25.96C183.99 24.2267 183.817 22.6 183.417 21.08C183.017 19.5333 182.377 18.0267 181.497 16.56C180.617 15.0933 179.55 13.8267 178.297 12.76C177.07 11.6933 175.684 10.9333 174.137 10.48C172.617 10 171.004 10 169.297 10.48ZM173.937 1.12C174.364 0.719998 174.71 0.506665 174.977 0.479999C175.244 0.453331 175.47 0.546664 175.657 0.759998C175.844 1.02666 175.884 1.29333 175.777 1.56C175.67 1.82667 175.377 2.10667 174.897 2.4C174.657 2.58667 174.244 2.84 173.657 3.16C173.097 3.48 172.524 3.81333 171.937 4.16C171.244 4.56 170.51 4.97333 169.737 5.4L169.697 5.28L171.497 3.48C171.977 3 172.444 2.53333 172.897 2.08C173.377 1.62667 173.724 1.30667 173.937 1.12ZM191.909 16.56C191.909 15.0667 192.269 13.8267 192.989 12.84C193.735 11.8533 194.682 11.0933 195.829 10.56C196.975 10 198.242 9.66667 199.629 9.56C201.042 9.42667 202.415 9.49333 203.749 9.76C205.082 10.0267 206.309 10.4667 207.429 11.08C208.549 11.6933 209.389 12.4667 209.949 13.4V17.6C208.935 15.5467 207.749 13.9467 206.389 12.8C205.055 11.6533 203.695 10.8667 202.309 10.44C200.922 10.0133 199.575 9.90667 198.269 10.12C196.962 10.3067 195.855 10.72 194.949 11.36C194.175 11.8667 193.642 12.52 193.349 13.32C193.055 14.0933 193.135 14.96 193.589 15.92C194.042 16.88 194.922 17.9067 196.229 19C197.562 20.0933 199.455 21.2133 201.909 22.36C203.002 22.84 204.055 23.3467 205.069 23.88C206.109 24.4133 207.015 25.04 207.789 25.76C208.589 26.4533 209.229 27.2533 209.709 28.16C210.189 29.04 210.429 30.0667 210.429 31.24C210.429 32.3333 210.215 33.2933 209.789 34.12C209.389 34.9467 208.829 35.6533 208.109 36.24C206.962 37.12 205.575 37.68 203.949 37.92C202.349 38.16 200.682 38.1067 198.949 37.76C197.242 37.4133 195.575 36.7867 193.949 35.88C192.349 34.9467 190.989 33.76 189.869 32.32V26.76C190.855 29.24 192.095 31.32 193.589 33C195.109 34.6533 196.709 35.88 198.389 36.68C200.069 37.4533 201.735 37.7867 203.389 37.68C205.069 37.5733 206.535 36.9867 207.789 35.92C208.455 35.36 208.882 34.7067 209.069 33.96C209.255 33.1867 209.095 32.3467 208.589 31.44C208.082 30.5067 207.162 29.52 205.829 28.48C204.522 27.44 202.709 26.3867 200.389 25.32C199.322 24.84 198.282 24.3333 197.269 23.8C196.255 23.24 195.349 22.6133 194.549 21.92C193.749 21.2267 193.109 20.4533 192.629 19.6C192.149 18.72 191.909 17.7067 191.909 16.56Z"/>
</mask>
<path d="M2.61188 16.56C2.61188 15.0667 2.97188 13.8267 3.69188 12.84C4.43854 11.8533 5.38521 11.0933 6.53188 10.56C7.67854 10 8.94521 9.66667 10.3319 9.56C11.7452 9.42667 13.1185 9.49333 14.4519 9.76C15.7852 10.0267 17.0119 10.4667 18.1319 11.08C19.2519 11.6933 20.0919 12.4667 20.6519 13.4V17.6C19.6385 15.5467 18.4519 13.9467 17.0919 12.8C15.7585 11.6533 14.3985 10.8667 13.0119 10.44C11.6252 10.0133 10.2785 9.90667 8.97188 10.12C7.66521 10.3067 6.55854 10.72 5.65188 11.36C4.87854 11.8667 4.34521 12.52 4.05188 13.32C3.75854 14.0933 3.83854 14.96 4.29188 15.92C4.74521 16.88 5.62521 17.9067 6.93188 19C8.26521 20.0933 10.1585 21.2133 12.6119 22.36C13.7052 22.84 14.7585 23.3467 15.7719 23.88C16.8119 24.4133 17.7185 25.04 18.4919 25.76C19.2919 26.4533 19.9319 27.2533 20.4119 28.16C20.8919 29.04 21.1319 30.0667 21.1319 31.24C21.1319 32.3333 20.9185 33.2933 20.4919 34.12C20.0919 34.9467 19.5319 35.6533 18.8119 36.24C17.6652 37.12 16.2785 37.68 14.6519 37.92C13.0519 38.16 11.3852 38.1067 9.65188 37.76C7.94521 37.4133 6.27854 36.7867 4.65188 35.88C3.05188 34.9467 1.69188 33.76 0.571875 32.32V26.76C1.55854 29.24 2.79854 31.32 4.29188 33C5.81188 34.6533 7.41188 35.88 9.09188 36.68C10.7719 37.4533 12.4385 37.7867 14.0919 37.68C15.7719 37.5733 17.2385 36.9867 18.4919 35.92C19.1585 35.36 19.5852 34.7067 19.7719 33.96C19.9585 33.1867 19.7985 32.3467 19.2919 31.44C18.7852 30.5067 17.8652 29.52 16.5319 28.48C15.2252 27.44 13.4119 26.3867 11.0919 25.32C10.0252 24.84 8.98521 24.3333 7.97188 23.8C6.95854 23.24 6.05188 22.6133 5.25188 21.92C4.45188 21.2267 3.81188 20.4533 3.33188 19.6C2.85188 18.72 2.61188 17.7067 2.61188 16.56ZM33.9053 10.16C35.772 9.62667 37.6253 9.50667 39.4653 9.8C41.332 10.0667 43.0386 10.6667 44.5853 11.6C46.1586 12.5067 47.5186 13.7067 48.6653 15.2C49.8386 16.6933 50.6653 18.3867 51.1453 20.28C51.6786 22.1467 51.812 24.0133 51.5453 25.88C51.2786 27.72 50.692 29.44 49.7853 31.04C48.8786 32.6133 47.6786 33.9867 46.1853 35.16C44.7186 36.3067 43.0386 37.1333 41.1453 37.64C39.252 38.1733 37.3853 38.3067 35.5453 38.04C33.7053 37.7733 31.9986 37.1867 30.4253 36.28C28.8786 35.3733 27.5186 34.1733 26.3453 32.68C25.172 31.1867 24.332 29.48 23.8253 27.56C23.3186 25.6667 23.1986 23.7867 23.4653 21.92C23.7586 20.0533 24.3586 18.3333 25.2653 16.76C26.1986 15.1867 27.3986 13.8267 28.8653 12.68C30.332 11.5067 32.012 10.6667 33.9053 10.16ZM33.9453 10.48C32.2386 10.9333 30.8386 11.7467 29.7453 12.92C28.6786 14.0667 27.8786 15.4133 27.3453 16.96C26.812 18.5067 26.532 20.1467 26.5053 21.88C26.4786 23.5867 26.6653 25.2 27.0653 26.72C27.4653 28.24 28.1053 29.7333 28.9853 31.2C29.8653 32.6667 30.9186 33.9333 32.1453 35C33.372 36.04 34.7453 36.8133 36.2653 37.32C37.7853 37.8 39.3853 37.8133 41.0653 37.36C42.772 36.9333 44.172 36.1333 45.2653 34.96C46.3586 33.76 47.172 32.3867 47.7053 30.84C48.2653 29.2933 48.5586 27.6667 48.5853 25.96C48.6386 24.2267 48.4653 22.6 48.0653 21.08C47.6653 19.5333 47.0253 18.0267 46.1453 16.56C45.2653 15.0933 44.1986 13.8267 42.9453 12.76C41.7186 11.6933 40.332 10.9333 38.7853 10.48C37.2653 10 35.652 10 33.9453 10.48ZM66.3572 22.44C67.6105 22.52 68.7572 22.7067 69.7972 23C70.8639 23.2933 71.7705 23.7333 72.5172 24.32C73.2905 24.9067 73.8905 25.68 74.3172 26.64C74.7439 27.5733 74.9572 28.7467 74.9572 30.16C74.9572 31.76 74.6772 33.0667 74.1172 34.08C73.5572 35.0933 72.7839 35.8933 71.7972 36.48C70.8105 37.0667 69.6505 37.4667 68.3172 37.68C66.9839 37.8933 65.5439 38 63.9972 38H54.5172V9.76H61.4372C62.9305 9.76 64.3305 9.88 65.6372 10.12C66.9705 10.36 68.1172 10.7333 69.0772 11.24C70.0639 11.7467 70.8372 12.4133 71.3972 13.24C71.9572 14.04 72.2372 15.0133 72.2372 16.16C72.2372 17.0667 72.0772 17.8667 71.7572 18.56C71.4639 19.2533 71.0505 19.8667 70.5172 20.4C69.9839 20.9067 69.3572 21.3333 68.6372 21.68C67.9172 22.0267 67.1572 22.28 66.3572 22.44ZM71.8372 30.16C71.8372 28.3733 71.5839 26.9733 71.0772 25.96C70.5972 24.9467 69.9705 24.2 69.1972 23.72C68.4505 23.2133 67.6105 22.9067 66.6772 22.8C65.7705 22.6933 64.8772 22.64 63.9972 22.64C63.0639 22.64 62.1705 22.3867 61.3172 21.88C60.4905 21.3733 59.7839 20.6533 59.1972 19.72C58.8239 19.1867 58.5172 18.5867 58.2772 17.92C58.0372 17.2267 57.8372 16.4933 57.6772 15.72V37.68H63.6772C64.5839 37.68 65.5172 37.6267 66.4772 37.52C67.4372 37.4133 68.3172 37.12 69.1172 36.64C69.9172 36.1333 70.5705 35.3867 71.0772 34.4C71.5839 33.3867 71.8372 31.9733 71.8372 30.16ZM69.1172 16.16C69.1172 15.0133 68.8905 14.0533 68.4372 13.28C68.0105 12.5067 67.4372 11.88 66.7172 11.4C65.9972 10.92 65.1705 10.5733 64.2372 10.36C63.3305 10.1467 62.3972 10.04 61.4372 10.04H57.6772V12.68C57.6772 14.0667 57.8372 15.3467 58.1572 16.52C58.4772 17.6667 58.9305 18.6667 59.5172 19.52C60.0772 20.4267 60.7305 21.12 61.4772 21.6C62.2505 22.08 63.0905 22.32 63.9972 22.32C64.6639 22.32 65.3039 22.2133 65.9172 22C66.5305 21.76 67.0772 21.3867 67.5572 20.88C68.0372 20.3733 68.4105 19.7333 68.6772 18.96C68.9705 18.1867 69.1172 17.2533 69.1172 16.16ZM89.0794 22.4C90.1194 22.64 90.9994 23.0533 91.7194 23.64C92.4394 24.2267 93.066 24.92 93.5994 25.72C94.1594 26.52 94.6394 27.4 95.0394 28.36C95.4394 29.2933 95.8394 30.2267 96.2394 31.16C96.6127 32.04 96.986 32.88 97.3594 33.68C97.7594 34.4533 98.186 35.1467 98.6394 35.76C99.0927 36.3467 99.586 36.8133 100.119 37.16C100.653 37.5067 101.253 37.68 101.919 37.68V38C100.106 38 98.626 37.7867 97.4794 37.36C96.3327 36.9067 95.426 36.32 94.7594 35.6C94.0927 34.88 93.5994 34.0533 93.2794 33.12C92.986 32.1867 92.746 31.24 92.5594 30.28C92.3994 29.32 92.2394 28.3733 92.0794 27.44C91.946 26.5067 91.7194 25.68 91.3994 24.96C91.0794 24.24 90.5994 23.6667 89.9594 23.24C89.346 22.7867 88.4794 22.56 87.3594 22.56C85.3327 22.56 83.706 21.6 82.4794 19.68C81.786 18.56 81.266 17.1867 80.9194 15.56V38H77.7594V9.72H84.7994C86.266 9.72 87.6527 9.84 88.9594 10.08C90.266 10.2933 91.3994 10.6533 92.3594 11.16C93.346 11.6667 94.1194 12.32 94.6794 13.12C95.2394 13.92 95.5194 14.8933 95.5194 16.04C95.5194 17.0267 95.346 17.8933 94.9994 18.64C94.6527 19.3867 94.186 20.0267 93.5994 20.56C93.0127 21.0667 92.3327 21.48 91.5594 21.8C90.786 22.0933 89.9594 22.2933 89.0794 22.4ZM92.3594 16.04C92.3594 14.8933 92.146 13.9467 91.7194 13.2C91.2927 12.4267 90.7327 11.8133 90.0394 11.36C89.346 10.88 88.5327 10.5467 87.5994 10.36C86.6927 10.1467 85.7594 10.04 84.7994 10.04H80.9194V12.52C80.9194 13.9867 81.0794 15.2933 81.3994 16.44C81.746 17.5867 82.1994 18.6 82.7594 19.48C83.3194 20.3067 83.986 20.9867 84.7594 21.52C85.5594 22.0267 86.426 22.28 87.3594 22.28H87.6394C88.2794 22.2533 88.8794 22.1067 89.4394 21.84C90.026 21.5733 90.5327 21.1867 90.9594 20.68C91.386 20.1733 91.7194 19.5333 91.9594 18.76C92.226 17.9867 92.3594 17.08 92.3594 16.04ZM107.793 37.68H114.553C116.313 37.68 117.739 37.2533 118.833 36.4C119.926 35.5467 120.833 34.1067 121.553 32.08L120.633 38H104.713V9.76H120.873V12.96C120.153 12.2933 119.459 11.76 118.793 11.36C118.153 10.96 117.459 10.6667 116.713 10.48C115.993 10.2933 115.179 10.1733 114.273 10.12C113.366 10.0667 112.299 10.04 111.073 10.04H107.793V16.52C107.793 17.88 107.966 19 108.312 19.88C108.659 20.7333 109.179 21.4 109.873 21.88C110.566 22.36 111.433 22.6933 112.473 22.88C113.513 23.04 114.713 23.12 116.073 23.12V26.28C115.486 25.6133 114.779 25.0933 113.953 24.72C113.126 24.3467 112.299 23.9467 111.473 23.52C110.673 23.0667 109.926 22.52 109.233 21.88C108.566 21.24 108.086 20.3333 107.793 19.16V37.68ZM138.533 9.76C139.626 9.76 140.653 9.96 141.613 10.36C142.599 10.7333 143.506 11.28 144.333 12C145.186 12.6933 145.959 13.5333 146.653 14.52C147.373 15.48 148.026 16.5333 148.613 17.68C149.813 19.8667 150.746 22.28 151.413 24.92C152.106 27.5333 152.599 30.1333 152.893 32.72V9.76H155.893V38H152.893C152.893 36.4 152.799 34.7333 152.613 33C152.426 31.24 152.146 29.48 151.773 27.72C151.399 25.96 150.933 24.24 150.373 22.56C149.839 20.8533 149.199 19.28 148.453 17.84C147.839 16.6933 147.186 15.6533 146.493 14.72C145.799 13.76 145.039 12.9333 144.213 12.24C143.386 11.5467 142.493 11.0133 141.533 10.64C140.599 10.24 139.599 10.04 138.533 10.04V38H135.533V9.76H138.533ZM169.257 10.16C171.124 9.62667 172.977 9.50667 174.817 9.8C176.684 10.0667 178.39 10.6667 179.937 11.6C181.51 12.5067 182.87 13.7067 184.017 15.2C185.19 16.6933 186.017 18.3867 186.497 20.28C187.03 22.1467 187.164 24.0133 186.897 25.88C186.63 27.72 186.044 29.44 185.137 31.04C184.23 32.6133 183.03 33.9867 181.537 35.16C180.07 36.3067 178.39 37.1333 176.497 37.64C174.604 38.1733 172.737 38.3067 170.897 38.04C169.057 37.7733 167.35 37.1867 165.777 36.28C164.23 35.3733 162.87 34.1733 161.697 32.68C160.524 31.1867 159.684 29.48 159.177 27.56C158.67 25.6667 158.55 23.7867 158.817 21.92C159.11 20.0533 159.71 18.3333 160.617 16.76C161.55 15.1867 162.75 13.8267 164.217 12.68C165.684 11.5067 167.364 10.6667 169.257 10.16ZM169.297 10.48C167.59 10.9333 166.19 11.7467 165.097 12.92C164.03 14.0667 163.23 15.4133 162.697 16.96C162.164 18.5067 161.884 20.1467 161.857 21.88C161.83 23.5867 162.017 25.2 162.417 26.72C162.817 28.24 163.457 29.7333 164.337 31.2C165.217 32.6667 166.27 33.9333 167.497 35C168.724 36.04 170.097 36.8133 171.617 37.32C173.137 37.8 174.737 37.8133 176.417 37.36C178.124 36.9333 179.524 36.1333 180.617 34.96C181.71 33.76 182.524 32.3867 183.057 30.84C183.617 29.2933 183.91 27.6667 183.937 25.96C183.99 24.2267 183.817 22.6 183.417 21.08C183.017 19.5333 182.377 18.0267 181.497 16.56C180.617 15.0933 179.55 13.8267 178.297 12.76C177.07 11.6933 175.684 10.9333 174.137 10.48C172.617 10 171.004 10 169.297 10.48ZM173.937 1.12C174.364 0.719998 174.71 0.506665 174.977 0.479999C175.244 0.453331 175.47 0.546664 175.657 0.759998C175.844 1.02666 175.884 1.29333 175.777 1.56C175.67 1.82667 175.377 2.10667 174.897 2.4C174.657 2.58667 174.244 2.84 173.657 3.16C173.097 3.48 172.524 3.81333 171.937 4.16C171.244 4.56 170.51 4.97333 169.737 5.4L169.697 5.28L171.497 3.48C171.977 3 172.444 2.53333 172.897 2.08C173.377 1.62667 173.724 1.30667 173.937 1.12ZM191.909 16.56C191.909 15.0667 192.269 13.8267 192.989 12.84C193.735 11.8533 194.682 11.0933 195.829 10.56C196.975 10 198.242 9.66667 199.629 9.56C201.042 9.42667 202.415 9.49333 203.749 9.76C205.082 10.0267 206.309 10.4667 207.429 11.08C208.549 11.6933 209.389 12.4667 209.949 13.4V17.6C208.935 15.5467 207.749 13.9467 206.389 12.8C205.055 11.6533 203.695 10.8667 202.309 10.44C200.922 10.0133 199.575 9.90667 198.269 10.12C196.962 10.3067 195.855 10.72 194.949 11.36C194.175 11.8667 193.642 12.52 193.349 13.32C193.055 14.0933 193.135 14.96 193.589 15.92C194.042 16.88 194.922 17.9067 196.229 19C197.562 20.0933 199.455 21.2133 201.909 22.36C203.002 22.84 204.055 23.3467 205.069 23.88C206.109 24.4133 207.015 25.04 207.789 25.76C208.589 26.4533 209.229 27.2533 209.709 28.16C210.189 29.04 210.429 30.0667 210.429 31.24C210.429 32.3333 210.215 33.2933 209.789 34.12C209.389 34.9467 208.829 35.6533 208.109 36.24C206.962 37.12 205.575 37.68 203.949 37.92C202.349 38.16 200.682 38.1067 198.949 37.76C197.242 37.4133 195.575 36.7867 193.949 35.88C192.349 34.9467 190.989 33.76 189.869 32.32V26.76C190.855 29.24 192.095 31.32 193.589 33C195.109 34.6533 196.709 35.88 198.389 36.68C200.069 37.4533 201.735 37.7867 203.389 37.68C205.069 37.5733 206.535 36.9867 207.789 35.92C208.455 35.36 208.882 34.7067 209.069 33.96C209.255 33.1867 209.095 32.3467 208.589 31.44C208.082 30.5067 207.162 29.52 205.829 28.48C204.522 27.44 202.709 26.3867 200.389 25.32C199.322 24.84 198.282 24.3333 197.269 23.8C196.255 23.24 195.349 22.6133 194.549 21.92C193.749 21.2267 193.109 20.4533 192.629 19.6C192.149 18.72 191.909 17.7067 191.909 16.56Z" fill="white"/>
<path d="M3.69188 12.84L2.89447 12.2366L2.88922 12.2435L2.88408 12.2505L3.69188 12.84ZM6.53188 10.56L6.95361 11.4667L6.9622 11.4627L6.9707 11.4586L6.53188 10.56ZM10.3319 9.56L10.4086 10.5571L10.4172 10.5564L10.4258 10.5556L10.3319 9.56ZM14.4519 9.76L14.648 8.77942V8.77942L14.4519 9.76ZM18.1319 11.08L18.6122 10.2029V10.2029L18.1319 11.08ZM20.6519 13.4H21.6519V13.123L21.5094 12.8855L20.6519 13.4ZM20.6519 17.6L19.7551 18.0425L21.6519 17.6H20.6519ZM17.0919 12.8L16.4398 13.5582L16.4473 13.5645L17.0919 12.8ZM13.0119 10.44L12.7178 11.3958V11.3958L13.0119 10.44ZM8.97188 10.12L9.1133 11.1099L9.12317 11.1085L9.13301 11.1069L8.97188 10.12ZM5.65187 11.36L6.19991 12.1965L6.2144 12.187L6.22856 12.177L5.65187 11.36ZM4.05188 13.32L4.98692 13.6747L4.99075 13.6643L4.05188 13.32ZM4.29187 15.92L5.19612 15.493V15.493L4.29187 15.92ZM6.93187 19L6.29012 19.767L6.29779 19.7733L6.93187 19ZM12.6119 22.36L12.1884 23.2659L12.1991 23.2709L12.2099 23.2756L12.6119 22.36ZM15.7719 23.88L15.3061 24.765L15.3156 24.7698L15.7719 23.88ZM18.4919 25.76L17.8105 26.4919L17.8235 26.504L17.8369 26.5157L18.4919 25.76ZM20.4119 28.16L19.528 28.6279L19.534 28.6389L20.4119 28.16ZM20.4919 34.12L19.6033 33.6614L19.5973 33.6728L19.5917 33.6844L20.4919 34.12ZM18.8119 36.24L19.4207 37.0333L19.4323 37.0244L19.4435 37.0152L18.8119 36.24ZM14.6519 37.92L14.5059 36.9307L14.5035 36.9311L14.6519 37.92ZM9.65187 37.76L9.45282 38.74L9.45576 38.7406L9.65187 37.76ZM4.65187 35.88L4.14801 36.7438L4.15646 36.7487L4.16502 36.7535L4.65187 35.88ZM0.571869 32.32H-0.428131V32.6631L-0.217484 32.9339L0.571869 32.32ZM0.571869 26.76L1.50104 26.3903L-0.428131 26.76H0.571869ZM4.29187 33L3.54446 33.6644L3.55003 33.6706L3.55571 33.6768L4.29187 33ZM9.09187 36.68L8.66191 37.5829L8.67374 37.5884L9.09187 36.68ZM14.0919 37.68L14.0285 36.682L14.0275 36.6821L14.0919 37.68ZM18.4919 35.92L17.8487 35.1543L17.8438 35.1585L18.4919 35.92ZM19.7719 33.96L20.7421 34.2025L20.744 34.1946L19.7719 33.96ZM19.2919 31.44L18.413 31.9171L18.4189 31.9278L19.2919 31.44ZM16.5319 28.48L15.9091 29.2625L15.9168 29.2685L16.5319 28.48ZM11.0919 25.32L11.5096 24.4114L11.5022 24.4081L11.0919 25.32ZM7.97188 23.8L7.48819 24.6752L7.49712 24.6802L7.50613 24.6849L7.97188 23.8ZM5.25188 21.92L4.59694 22.6757L5.25188 21.92ZM3.33188 19.6L2.4539 20.0789L2.4603 20.0903L3.33188 19.6ZM3.61188 16.56C3.61188 15.2305 3.93021 14.2098 4.49966 13.4295L2.88408 12.2505C2.01355 13.4435 1.61188 14.9028 1.61188 16.56H3.61188ZM4.48929 13.4434C5.13513 12.59 5.95166 11.9327 6.95361 11.4667L6.11014 9.65328C4.81876 10.2539 3.74194 11.1167 2.89447 12.2366L4.48929 13.4434ZM6.9707 11.4586C7.99416 10.9587 9.1364 10.6549 10.4086 10.5571L10.2552 8.56294C8.75403 8.67842 7.36293 9.04125 6.09305 9.66143L6.9707 11.4586ZM10.4258 10.5556C11.7465 10.431 13.022 10.4938 14.2558 10.7406L14.648 8.77942C13.2151 8.49284 11.7439 8.42235 10.2379 8.56442L10.4258 10.5556ZM14.2558 10.7406C15.4961 10.9887 16.6261 11.3955 17.6516 11.9571L18.6122 10.2029C17.3977 9.5378 16.0743 9.06468 14.648 8.77942L14.2558 10.7406ZM17.6516 11.9571C18.6431 12.5001 19.3404 13.1579 19.7944 13.9145L21.5094 12.8855C20.8433 11.7754 19.8607 10.8866 18.6122 10.2029L17.6516 11.9571ZM19.6519 13.4V17.6H21.6519V13.4H19.6519ZM21.5486 17.1574C20.4911 15.0146 19.2274 13.2925 17.7365 12.0355L16.4473 13.5645C17.6764 14.6008 18.786 16.0787 19.7551 18.0425L21.5486 17.1574ZM17.7439 12.0418C16.3278 10.824 14.8491 9.95903 13.306 9.48422L12.7178 11.3958C13.948 11.7743 15.1893 12.4827 16.4398 13.5582L17.7439 12.0418ZM13.306 9.48422C11.7863 9.01664 10.2837 8.89259 8.81075 9.13307L9.13301 11.1069C10.2734 10.9207 11.4641 11.01 12.7178 11.3958L13.306 9.48422ZM8.83046 9.13005C7.39656 9.33489 6.13353 9.79596 5.0752 10.543L6.22856 12.177C6.98355 11.644 7.93387 11.2784 9.1133 11.1099L8.83046 9.13005ZM5.10385 10.5235C4.1669 11.1374 3.48672 11.9565 3.11301 12.9757L4.99075 13.6643C5.20369 13.0835 5.59018 12.5959 6.19991 12.1965L5.10385 10.5235ZM3.11688 12.9653C2.70183 14.0596 2.85295 15.2148 3.38763 16.347L5.19612 15.493C4.82413 14.7052 4.81525 14.1271 4.98688 13.6747L3.11688 12.9653ZM3.38762 16.347C3.92909 17.4936 4.93196 18.6305 6.29015 19.7669L7.57359 18.2331C6.31845 17.1828 5.56133 16.2664 5.19612 15.493L3.38762 16.347ZM6.29779 19.7733C7.72127 20.9405 9.6973 22.1016 12.1884 23.2659L13.0353 21.4541C10.6198 20.3251 8.80916 19.2462 7.56595 18.2267L6.29779 19.7733ZM12.2099 23.2756C13.2825 23.7466 14.3145 24.243 15.3061 24.7649L16.2376 22.9951C15.2025 22.4503 14.1279 21.9334 13.0139 21.4444L12.2099 23.2756ZM15.3156 24.7698C16.2822 25.2655 17.1113 25.8409 17.8105 26.4919L19.1733 25.0281C18.3258 24.2391 17.3416 23.5611 16.2282 22.9902L15.3156 24.7698ZM17.8369 26.5157C18.5466 27.1307 19.1078 27.834 19.5281 28.6279L21.2957 27.6921C20.756 26.6727 20.0372 25.776 19.1468 25.0043L17.8369 26.5157ZM19.534 28.6389C19.9212 29.3487 20.1319 30.2053 20.1319 31.24H22.1319C22.1319 29.928 21.8626 28.7313 21.2898 27.6811L19.534 28.6389ZM20.1319 31.24C20.1319 32.2017 19.9449 32.9994 19.6033 33.6614L21.3805 34.5786C21.8922 33.5873 22.1319 32.465 22.1319 31.24H20.1319ZM19.5917 33.6844C19.2561 34.3781 18.7883 34.9693 18.1802 35.4648L19.4435 37.0152C20.2755 36.3374 20.9277 35.5152 21.392 34.5556L19.5917 33.6844ZM18.2031 35.4467C17.2092 36.2095 15.9876 36.7121 14.5059 36.9307L14.7978 38.9093C16.5695 38.6479 18.1213 38.0305 19.4207 37.0333L18.2031 35.4467ZM14.5035 36.9311C13.0281 37.1524 11.4783 37.1055 9.84799 36.7794L9.45576 38.7406C11.2921 39.1078 13.0757 39.1676 14.8002 38.9089L14.5035 36.9311ZM9.85094 36.78C8.25188 36.4552 6.68175 35.8666 5.13873 35.0065L4.16502 36.7535C5.87534 37.7068 7.63855 38.3715 9.45282 38.74L9.85094 36.78ZM5.15575 35.0162C3.66425 34.1462 2.40166 33.0438 1.36122 31.7061L-0.217484 32.9339C0.982101 34.4762 2.43951 35.7472 4.14801 36.7438L5.15575 35.0162ZM1.57187 32.32V26.76H-0.428131V32.32H1.57187ZM-0.357285 27.1297C0.664505 29.698 1.96091 31.8829 3.54446 33.6644L5.03929 32.3356C3.63617 30.7571 2.45258 28.782 1.50104 26.3903L-0.357285 27.1297ZM3.55571 33.6768C5.14488 35.4054 6.84509 36.7177 8.66194 37.5829L9.5218 35.7771C7.97867 35.0423 6.47887 33.9013 5.02805 32.3232L3.55571 33.6768ZM8.67374 37.5884C10.4868 38.423 12.3186 38.7965 14.1563 38.6779L14.0275 36.6821C12.5585 36.7768 11.057 36.4837 9.51003 35.7716L8.67374 37.5884ZM14.1552 38.678C16.0453 38.558 17.7184 37.8914 19.14 36.6815L17.8438 35.1585C16.7587 36.0819 15.4985 36.5887 14.0285 36.682L14.1552 38.678ZM19.1351 36.6857C19.941 36.0087 20.4977 35.18 20.742 34.2025L18.8017 33.7175C18.6728 34.2333 18.376 34.7113 17.8487 35.1543L19.1351 36.6857ZM20.744 34.1946C21.006 33.1092 20.7557 32.0095 20.1648 30.9522L18.4189 31.9278C18.8414 32.6838 18.9111 33.2641 18.7998 33.7254L20.744 34.1946ZM20.1707 30.9629C19.5711 29.8583 18.5317 28.7717 17.1469 27.6915L15.9168 29.2685C17.1987 30.2683 17.9993 31.155 18.413 31.9171L20.1707 30.9629ZM17.1546 27.6976C15.7611 26.5884 13.8686 25.496 11.5096 24.4114L10.6741 26.2286C12.9551 27.2773 14.6893 28.2916 15.9091 29.2624L17.1546 27.6976ZM11.5022 24.4081C10.4539 23.9363 9.43239 23.4386 8.43762 22.9151L7.50613 24.6849C8.53802 25.228 9.59651 25.7437 10.6815 26.2319L11.5022 24.4081ZM8.45557 22.9248C7.4977 22.3954 6.6494 21.8079 5.9068 21.1643L4.59694 22.6757C5.45435 23.4188 6.41939 24.0846 7.48819 24.6752L8.45557 22.9248ZM5.9068 21.1643C5.18668 20.5402 4.62262 19.8549 4.20345 19.1097L2.4603 20.0903C3.00113 21.0517 3.71707 21.9131 4.59694 22.6757L5.9068 21.1643ZM4.20978 19.1211C3.82079 18.408 3.61188 17.5637 3.61188 16.56H1.61188C1.61188 17.8496 1.88297 19.032 2.45398 20.0789L4.20978 19.1211ZM33.9053 10.16L34.1638 11.126L34.172 11.1238L34.18 11.1215L33.9053 10.16ZM39.4653 9.8L39.3079 10.7875L39.3159 10.7888L39.3239 10.7899L39.4653 9.8ZM44.5853 11.6L44.0686 12.4562L44.0773 12.4614L44.086 12.4664L44.5853 11.6ZM48.6653 15.2L47.8721 15.8091L47.879 15.8178L48.6653 15.2ZM51.1453 20.28L50.176 20.5257L50.1797 20.5403L50.1838 20.5547L51.1453 20.28ZM51.5453 25.88L52.535 26.0234L52.5353 26.0214L51.5453 25.88ZM49.7853 31.04L50.6518 31.5393L50.6553 31.533L49.7853 31.04ZM46.1853 35.16L46.8012 35.9478L46.8031 35.9463L46.1853 35.16ZM41.1453 37.64L40.8868 36.6739L40.8742 36.6775L41.1453 37.64ZM35.5453 38.04L35.4019 39.0297L35.5453 38.04ZM30.4253 36.28L29.9196 37.1427L29.926 37.1464L30.4253 36.28ZM26.3453 32.68L25.559 33.2978L26.3453 32.68ZM23.8253 27.56L24.7922 27.3048L24.7913 27.3015L23.8253 27.56ZM23.4653 21.92L22.4773 21.7647L22.4754 21.7786L23.4653 21.92ZM25.2653 16.76L24.4052 16.2498L24.3989 16.2607L25.2653 16.76ZM28.8653 12.68L29.4813 13.4679L29.49 13.4609L28.8653 12.68ZM33.9453 10.48L34.202 11.4465L34.2091 11.4446L34.2161 11.4427L33.9453 10.48ZM29.7453 12.92L29.0137 12.2383L29.0131 12.2389L29.7453 12.92ZM27.3453 16.96L28.2907 17.286L27.3453 16.96ZM26.5053 21.88L27.5052 21.8956V21.8954L26.5053 21.88ZM27.0653 26.72L26.0982 26.9745L27.0653 26.72ZM28.9853 31.2L29.8428 30.6855L28.9853 31.2ZM32.1453 35L31.4891 35.7547L31.4986 35.7628L32.1453 35ZM36.2653 37.32L35.9491 38.2687L35.9566 38.2712L35.9642 38.2736L36.2653 37.32ZM41.0653 37.36L40.8228 36.3899L40.8138 36.3921L40.8048 36.3945L41.0653 37.36ZM45.2653 34.96L45.997 35.6418L46.0045 35.6335L45.2653 34.96ZM47.7053 30.84L46.765 30.4996L46.7624 30.5068L46.7599 30.514L47.7053 30.84ZM48.5853 25.96L47.5858 25.9292L47.5856 25.9368L47.5854 25.9444L48.5853 25.96ZM48.0653 21.08L47.0972 21.3304L47.0982 21.3345L48.0653 21.08ZM46.1453 16.56L45.2878 17.0745L46.1453 16.56ZM42.9453 12.76L42.2891 13.5146L42.2972 13.5215L42.9453 12.76ZM38.7853 10.48L38.4842 11.4336L38.4941 11.4367L38.504 11.4396L38.7853 10.48ZM34.18 11.1215C35.9123 10.6266 37.6182 10.5182 39.3079 10.7875L39.6227 8.81247C37.6324 8.49518 35.6316 8.62675 33.6306 9.19847L34.18 11.1215ZM39.3239 10.7899C41.0637 11.0385 42.6418 11.5952 44.0686 12.4562L45.102 10.7438C43.4354 9.73814 41.6003 9.09484 39.6067 8.81005L39.3239 10.7899ZM44.086 12.4664C45.5412 13.305 46.8026 14.4161 47.8722 15.809L49.4585 14.591C48.2347 12.9973 46.7761 11.7083 45.0846 10.7336L44.086 12.4664ZM47.879 15.8178C48.9635 17.1981 49.7293 18.7639 50.176 20.5257L52.1147 20.0343C51.6013 18.0094 50.7138 16.1886 49.4516 14.5822L47.879 15.8178ZM50.1838 20.5547C50.6797 22.2903 50.8016 24.0152 50.5554 25.7386L52.5353 26.0214C52.8224 24.0114 52.6776 22.003 52.1068 20.0053L50.1838 20.5547ZM50.5556 25.7366C50.3066 27.455 49.76 29.0563 48.9153 30.547L50.6553 31.533C51.6239 29.8237 52.2507 27.985 52.535 26.0234L50.5556 25.7366ZM48.9189 30.5407C48.0789 31.9983 46.9651 33.2756 45.5675 34.3737L46.8031 35.9463C48.3922 34.6977 49.6784 33.2283 50.6517 31.5393L48.9189 30.5407ZM45.5694 34.3722C44.2142 35.4317 42.6572 36.2002 40.8868 36.674L41.4038 38.606C43.4201 38.0664 45.2231 37.1816 46.8012 35.9478L45.5694 34.3722ZM40.8742 36.6775C39.1077 37.1751 37.3822 37.2958 35.6887 37.0503L35.4019 39.0297C37.3884 39.3176 39.3963 39.1716 41.4165 38.6025L40.8742 36.6775ZM35.6887 37.0503C33.971 36.8014 32.3856 36.2555 30.9246 35.4136L29.926 37.1464C31.6117 38.1179 33.4396 38.7453 35.4019 39.0297L35.6887 37.0503ZM30.931 35.4173C29.4987 34.5777 28.2322 33.4629 27.1316 32.0622L25.559 33.2978C26.8051 34.8837 28.2586 36.169 29.9196 37.1427L30.931 35.4173ZM27.1316 32.0622C26.0464 30.681 25.2657 29.099 24.7922 27.3048L22.8584 27.8152C23.3983 29.861 24.2975 31.6923 25.559 33.2978L27.1316 32.0622ZM24.7913 27.3015C24.3181 25.5332 24.2084 23.7893 24.4553 22.0614L22.4754 21.7786C22.1889 23.7841 22.3192 25.8001 22.8593 27.8185L24.7913 27.3015ZM24.4532 22.0752C24.7283 20.3247 25.2888 18.7221 26.1317 17.2593L24.3989 16.2607C23.4285 17.9446 22.789 19.7819 22.4774 21.7648L24.4532 22.0752ZM26.1254 17.2702C26.9941 15.8057 28.1107 14.5393 29.4812 13.4678L28.2494 11.8922C26.6866 13.114 25.4032 14.5676 24.4053 16.2498L26.1254 17.2702ZM29.49 13.4609C30.844 12.3777 32.3981 11.5985 34.1638 11.126L33.6468 9.19399C31.6259 9.73481 29.8199 10.6357 28.2406 11.8991L29.49 13.4609ZM33.6886 9.51351C31.819 10.0101 30.2482 10.9135 29.0137 12.2383L30.4769 13.6017C31.4291 12.5798 32.6583 11.8565 34.202 11.4465L33.6886 9.51351ZM29.0131 12.2389C27.8472 13.4923 26.9767 14.9614 26.3999 16.634L28.2907 17.286C28.7806 15.8653 29.5101 14.641 30.4775 13.6011L29.0131 12.2389ZM26.3999 16.634C25.8301 18.2865 25.5336 20.0318 25.5054 21.8646L27.5052 21.8954C27.5303 20.2615 27.7938 18.7268 28.2907 17.286L26.3999 16.634ZM25.5054 21.8644C25.4775 23.6544 25.6732 25.3592 26.0982 26.9745L28.0324 26.4655C27.6575 25.0408 27.4798 23.5189 27.5052 21.8956L25.5054 21.8644ZM26.0982 26.9745C26.5243 28.5936 27.2034 30.1739 28.1278 31.7145L29.8428 30.6855C29.0072 29.2928 28.4063 27.8864 28.0324 26.4655L26.0982 26.9745ZM28.1278 31.7145C29.0591 33.2666 30.1791 34.6154 31.4891 35.7546L32.8015 34.2454C31.6582 33.2512 30.6716 32.0668 29.8428 30.6855L28.1278 31.7145ZM31.4986 35.7628C32.8222 36.8849 34.3076 37.7215 35.9491 38.2687L36.5815 36.3713C35.183 35.9051 33.9218 35.1951 32.792 34.2372L31.4986 35.7628ZM35.9642 38.2736C37.683 38.8164 39.4789 38.8238 41.3258 38.3255L40.8048 36.3945C39.2917 36.8028 37.8876 36.7836 36.5664 36.3664L35.9642 38.2736ZM41.3078 38.3301C43.1831 37.8613 44.7592 36.97 45.9969 35.6417L44.5337 34.2783C43.5848 35.2966 42.3609 36.0053 40.8228 36.3899L41.3078 38.3301ZM46.0045 35.6335C47.1902 34.3321 48.0733 32.8403 48.6507 31.166L46.7599 30.514C46.2706 31.9331 45.5271 33.1879 44.5261 34.2865L46.0045 35.6335ZM48.6456 31.1804C49.2447 29.5257 49.5569 27.7889 49.5852 25.9756L47.5854 25.9444C47.5604 27.5444 47.2859 29.061 46.765 30.4996L48.6456 31.1804ZM49.5848 25.9908C49.6408 24.1711 49.4593 22.4476 49.0324 20.8255L47.0982 21.3345C47.4714 22.7524 47.6365 24.2822 47.5858 25.9292L49.5848 25.9908ZM49.0335 20.8296C48.6078 19.1837 47.9287 17.5886 47.0028 16.0455L45.2878 17.0745C46.1219 18.4647 46.7228 19.8829 47.0972 21.3304L49.0335 20.8296ZM47.0028 16.0455C46.0691 14.4894 44.9327 13.1383 43.5934 11.9985L42.2972 13.5215C43.4646 14.515 44.4615 15.6973 45.2878 17.0745L47.0028 16.0455ZM43.6015 12.0054C42.2671 10.845 40.7528 10.0146 39.0666 9.52037L38.504 11.4396C39.9112 11.8521 41.1702 12.5417 42.2891 13.5146L43.6015 12.0054ZM39.0864 9.52642C37.3603 8.98131 35.5469 8.99076 33.6746 9.51735L34.2161 11.4427C35.7571 11.0092 37.1703 11.0187 38.4842 11.4336L39.0864 9.52642ZM66.3572 22.44L66.1611 21.4594L66.2935 23.438L66.3572 22.44ZM69.7972 23L69.5257 23.9625L69.532 23.9642L69.7972 23ZM72.5172 24.32L71.8994 25.1063L71.906 25.1116L71.9128 25.1167L72.5172 24.32ZM74.3172 26.64L73.4033 27.0462L73.4077 27.0558L74.3172 26.64ZM74.1172 34.08L74.9924 34.5637V34.5637L74.1172 34.08ZM71.7972 36.48L71.2861 35.6205L71.7972 36.48ZM68.3172 37.68L68.4752 38.6674L68.3172 37.68ZM54.5172 38H53.5172V39H54.5172V38ZM54.5172 9.76V8.76H53.5172V9.76H54.5172ZM65.6372 10.12L65.4565 11.1036L65.46 11.1042L65.6372 10.12ZM69.0772 11.24L68.6104 12.1244L68.6204 12.1296L69.0772 11.24ZM71.3972 13.24L70.5693 13.8008L70.5736 13.8072L70.578 13.8135L71.3972 13.24ZM71.7572 18.56L70.8492 18.1409L70.8425 18.1555L70.8362 18.1704L71.7572 18.56ZM70.5172 20.4L71.2059 21.125L71.2152 21.1162L71.2243 21.1071L70.5172 20.4ZM68.6372 21.68L68.2034 20.779L68.6372 21.68ZM71.0772 25.96L70.1734 26.3881L70.178 26.3977L70.1828 26.4072L71.0772 25.96ZM69.1972 23.72L68.6357 24.5475L68.6525 24.5589L68.6698 24.5696L69.1972 23.72ZM66.6772 22.8L66.5603 23.7932L66.5636 23.7935L66.6772 22.8ZM61.3172 21.88L60.7946 22.7327L60.8067 22.7399L61.3172 21.88ZM59.1972 19.72L60.0438 19.1878L60.0306 19.1668L60.0164 19.1465L59.1972 19.72ZM58.2772 17.92L57.3321 18.2471L57.3363 18.2587L58.2772 17.92ZM57.6772 15.72L58.6564 15.5174L56.6772 15.72H57.6772ZM57.6772 37.68H56.6772V38.68H57.6772V37.68ZM66.4772 37.52L66.5876 38.5139L66.4772 37.52ZM69.1172 36.64L69.6317 37.4975L69.642 37.4913L69.6522 37.4848L69.1172 36.64ZM71.0772 34.4L71.9668 34.8568L71.9716 34.8472L71.0772 34.4ZM68.4372 13.28L67.5616 13.7631L67.5679 13.7745L67.5745 13.7857L68.4372 13.28ZM66.7172 11.4L66.1625 12.232V12.232L66.7172 11.4ZM64.2372 10.36L64.0081 11.3334L64.0144 11.3349L64.2372 10.36ZM57.6772 10.04V9.04H56.6772V10.04H57.6772ZM58.1572 16.52L57.1924 16.7831L57.194 16.7888L58.1572 16.52ZM59.5172 19.52L60.368 18.9945L60.3551 18.9737L60.3412 18.9535L59.5172 19.52ZM61.4772 21.6L60.9364 22.4412L60.9431 22.4455L60.9498 22.4496L61.4772 21.6ZM65.9172 22L66.2457 22.9445L66.2638 22.9382L66.2816 22.9312L65.9172 22ZM67.5572 20.88L68.2831 21.5677L67.5572 20.88ZM68.6772 18.96L67.7422 18.6053L67.7368 18.6196L67.7318 18.634L68.6772 18.96ZM66.2935 23.438C67.4875 23.5142 68.5634 23.691 69.5257 23.9624L70.0686 22.0375C68.951 21.7223 67.7335 21.5258 66.4209 21.442L66.2935 23.438ZM69.532 23.9642C70.4914 24.228 71.2731 24.6142 71.8994 25.1063L73.135 23.5337C72.268 22.8525 71.2363 22.3586 70.0623 22.0358L69.532 23.9642ZM71.9128 25.1167C72.5408 25.5931 73.0394 26.2273 73.4034 27.0461L75.231 26.2339C74.7416 25.1327 74.0403 24.2203 73.1216 23.5233L71.9128 25.1167ZM73.4077 27.0558C73.7567 27.8192 73.9572 28.8393 73.9572 30.16H75.9572C75.9572 28.654 75.731 27.3275 75.2267 26.2242L73.4077 27.0558ZM73.9572 30.16C73.9572 31.6523 73.6948 32.7769 73.2419 33.5963L74.9924 34.5637C75.6596 33.3565 75.9572 31.8677 75.9572 30.16H73.9572ZM73.2419 33.5963C72.767 34.4557 72.1188 35.1254 71.2861 35.6205L72.3083 37.3395C73.4489 36.6613 74.3473 35.731 74.9924 34.5637L73.2419 33.5963ZM71.2861 35.6205C70.4253 36.1323 69.3894 36.4957 68.1592 36.6926L68.4752 38.6674C69.9116 38.4376 71.1957 38.0011 72.3083 37.3395L71.2861 35.6205ZM68.1592 36.6926C66.885 36.8964 65.4984 37 63.9972 37V39C65.5893 39 67.0827 38.8902 68.4752 38.6674L68.1592 36.6926ZM63.9972 37H54.5172V39H63.9972V37ZM55.5172 38V9.76H53.5172V38H55.5172ZM54.5172 10.76H61.4372V8.76H54.5172V10.76ZM61.4372 10.76C62.8773 10.76 64.2163 10.8757 65.4565 11.1035L65.8178 9.13645C64.4448 8.88426 62.9838 8.76 61.4372 8.76V10.76ZM65.46 11.1042C66.7162 11.3303 67.7605 11.6758 68.6104 12.1244L69.5439 10.3556C68.4738 9.79083 67.2248 9.3897 65.8143 9.13582L65.46 11.1042ZM68.6204 12.1296C69.4746 12.5682 70.1135 13.1281 70.5693 13.8008L72.2251 12.6792C71.5609 11.6986 70.6531 10.9251 69.534 10.3504L68.6204 12.1296ZM70.578 13.8135C71.0009 14.4176 71.2372 15.1818 71.2372 16.16H73.2372C73.2372 14.8449 72.9135 13.6624 72.2164 12.6665L70.578 13.8135ZM71.2372 16.16C71.2372 16.9487 71.0983 17.6013 70.8492 18.1409L72.6651 18.9791C73.0561 18.132 73.2372 17.1846 73.2372 16.16H71.2372ZM70.8362 18.1704C70.5932 18.7449 70.2525 19.2504 69.8101 19.6929L71.2243 21.1071C71.8485 20.4829 72.3345 19.7618 72.6782 18.9496L70.8362 18.1704ZM69.8284 19.675C69.3766 20.1042 68.8378 20.4735 68.2034 20.779L69.071 22.581C69.8766 22.1931 70.5911 21.7091 71.2059 21.125L69.8284 19.675ZM68.2034 20.779C67.5605 21.0885 66.8806 21.3155 66.1611 21.4594L66.5533 23.4206C67.4338 23.2445 68.2738 22.9648 69.071 22.581L68.2034 20.779ZM72.8372 30.16C72.8372 28.2985 72.5764 26.7224 71.9716 25.5128L70.1828 26.4072C70.5913 27.2242 70.8372 28.4482 70.8372 30.16H72.8372ZM71.9809 25.5319C71.4378 24.3852 70.6955 23.473 69.7245 22.8704L68.6698 24.5696C69.2455 24.927 69.7566 25.5081 70.1734 26.3881L71.9809 25.5319ZM69.7587 22.8925C68.8727 22.2913 67.8778 21.9307 66.7907 21.8065L66.5636 23.7935C67.3433 23.8826 68.0283 24.1353 68.6357 24.5475L69.7587 22.8925ZM66.794 21.8068C65.85 21.6958 64.9177 21.64 63.9972 21.64V23.64C64.8367 23.64 65.691 23.6909 66.5603 23.7931L66.794 21.8068ZM63.9972 21.64C63.255 21.64 62.5367 21.4411 61.8277 21.0201L60.8067 22.7399C61.8043 23.3322 62.8727 23.64 63.9972 23.64V21.64ZM61.8398 21.0274C61.1613 20.6116 60.5598 20.0088 60.0438 19.1878L58.3506 20.2522C59.0079 21.2979 59.8198 22.1351 60.7946 22.7326L61.8398 21.0274ZM60.0164 19.1465C59.6981 18.6918 59.4307 18.172 59.2181 17.5813L57.3363 18.2587C57.6037 19.0014 57.9496 19.6815 58.378 20.2935L60.0164 19.1465ZM59.2222 17.5929C58.9973 16.9432 58.8084 16.2517 58.6564 15.5174L56.6979 15.9226C56.866 16.735 57.0771 17.5101 57.3322 18.2471L59.2222 17.5929ZM56.6772 15.72V37.68H58.6772V15.72H56.6772ZM57.6772 38.68H63.6772V36.68H57.6772V38.68ZM63.6772 38.68C64.623 38.68 65.5933 38.6244 66.5876 38.5139L66.3668 36.5261C65.4411 36.629 64.5447 36.68 63.6772 36.68V38.68ZM66.5876 38.5139C67.6854 38.3919 68.704 38.0541 69.6317 37.4975L68.6027 35.7825C67.9304 36.1859 67.189 36.4348 66.3668 36.5261L66.5876 38.5139ZM69.6522 37.4848C70.627 36.8675 71.3927 35.9747 71.9668 34.8568L70.1876 33.9432C69.7483 34.7987 69.2074 35.3992 68.5821 35.7952L69.6522 37.4848ZM71.9716 34.8472C72.5772 33.636 72.8372 32.0454 72.8372 30.16H70.8372C70.8372 31.9013 70.5905 33.1373 70.1828 33.9528L71.9716 34.8472ZM70.1172 16.16C70.1172 14.8843 69.8649 13.7382 69.2999 12.7743L67.5745 13.7857C67.9161 14.3685 68.1172 15.1424 68.1172 16.16H70.1172ZM69.3128 12.7969C68.8103 11.8862 68.1281 11.1388 67.2719 10.5679L66.1625 12.232C66.7463 12.6212 67.2107 13.1271 67.5616 13.7631L69.3128 12.7969ZM67.2719 10.5679C66.4407 10.0138 65.4992 9.62266 64.46 9.38514L64.0144 11.3349C64.8419 11.524 65.5537 11.8262 66.1625 12.232L67.2719 10.5679ZM64.4662 9.38658C63.4822 9.15505 62.4719 9.04 61.4372 9.04V11.04C62.3224 11.04 63.1788 11.1383 64.0081 11.3334L64.4662 9.38658ZM61.4372 9.04H57.6772V11.04H61.4372V9.04ZM56.6772 10.04V12.68H58.6772V10.04H56.6772ZM56.6772 12.68C56.6772 14.1434 56.846 15.513 57.1924 16.7831L59.1219 16.2569C58.8283 15.1803 58.6772 13.99 58.6772 12.68H56.6772ZM57.194 16.7888C57.5393 18.0261 58.0354 19.1298 58.6931 20.0865L60.3412 18.9535C59.8256 18.2035 59.4151 17.3072 59.1204 16.2512L57.194 16.7888ZM58.6664 20.0455C59.2893 21.0541 60.0415 21.8658 60.9364 22.4412L62.0179 20.7588C61.4196 20.3742 60.865 19.7993 60.368 18.9945L58.6664 20.0455ZM60.9498 22.4496C61.8808 23.0275 62.9034 23.32 63.9972 23.32V21.32C63.2776 21.32 62.6202 21.1325 62.0045 20.7504L60.9498 22.4496ZM63.9972 23.32C64.7727 23.32 65.5239 23.1956 66.2457 22.9445L65.5887 21.0555C65.0838 21.2311 64.555 21.32 63.9972 21.32V23.32ZM66.2816 22.9312C67.04 22.6345 67.7082 22.1747 68.2831 21.5677L66.8312 20.1923C66.4462 20.5987 66.0211 20.8855 65.5528 21.0688L66.2816 22.9312ZM68.2831 21.5677C68.8767 20.9412 69.3173 20.1712 69.6226 19.286L67.7318 18.634C67.5037 19.2955 67.1977 19.8054 66.8312 20.1923L68.2831 21.5677ZM69.6122 19.3147C69.9599 18.3981 70.1172 17.3377 70.1172 16.16H68.1172C68.1172 17.169 67.9812 17.9753 67.7422 18.6053L69.6122 19.3147ZM89.0794 22.4L88.959 21.4073L88.8545 23.3744L89.0794 22.4ZM91.7194 23.64L92.351 22.8648L91.7194 23.64ZM93.5994 25.72L92.7673 26.2747L92.7736 26.2842L92.7802 26.2935L93.5994 25.72ZM95.0394 28.36L94.1162 28.7446L94.1202 28.7539L95.0394 28.36ZM96.2394 31.16L97.16 30.7694L97.1585 30.7661L96.2394 31.16ZM97.3594 33.68L96.4532 34.1029L96.4618 34.1213L96.4712 34.1394L97.3594 33.68ZM98.6394 35.76L97.8352 36.3544L97.8416 36.363L97.8481 36.3714L98.6394 35.76ZM100.119 37.16L100.664 36.3216L100.119 37.16ZM101.919 37.68H102.919V36.68H101.919V37.68ZM101.919 38V39H102.919V38H101.919ZM97.4794 37.36L97.1117 38.29L97.1212 38.2937L97.1306 38.2972L97.4794 37.36ZM94.7594 35.6L94.0256 36.2794L94.7594 35.6ZM93.2794 33.12L92.3254 33.4198L92.3293 33.4321L92.3334 33.4443L93.2794 33.12ZM92.5594 30.28L91.573 30.4444L91.5752 30.4577L91.5778 30.4709L92.5594 30.28ZM92.0794 27.44L91.0894 27.5814L91.0914 27.5952L91.0938 27.609L92.0794 27.44ZM91.3994 24.96L90.4856 25.3661L91.3994 24.96ZM89.9594 23.24L89.365 24.0442L89.3845 24.0586L89.4047 24.0721L89.9594 23.24ZM82.4794 19.68L81.6291 20.2064L81.6329 20.2124L81.6367 20.2184L82.4794 19.68ZM80.9194 15.56L81.8974 15.3516L79.9194 15.56H80.9194ZM80.9194 38V39H81.9194V38H80.9194ZM77.7594 38H76.7594V39H77.7594V38ZM77.7594 9.72V8.72H76.7594V9.72H77.7594ZM88.9594 10.08L88.7787 11.0635L88.7885 11.0653L88.7982 11.0669L88.9594 10.08ZM92.3594 11.16L91.8926 12.0444L91.9026 12.0496L92.3594 11.16ZM94.6794 13.12L95.4986 12.5465V12.5465L94.6794 13.12ZM94.9994 18.64L94.0924 18.2189L94.9994 18.64ZM93.5994 20.56L94.253 21.3168L94.2626 21.3085L94.2721 21.2999L93.5994 20.56ZM91.5594 21.8L91.914 22.735L91.928 22.7297L91.9417 22.724L91.5594 21.8ZM91.7194 13.2L90.8438 13.6831L90.8474 13.6896L90.8511 13.6961L91.7194 13.2ZM90.0394 11.36L89.4702 12.1822L89.481 12.1897L89.4921 12.197L90.0394 11.36ZM87.5994 10.36L87.3703 11.3334L87.3867 11.3373L87.4033 11.3406L87.5994 10.36ZM80.9194 10.04V9.04H79.9194V10.04H80.9194ZM81.3994 16.44L80.4362 16.7088L80.4391 16.7191L80.4422 16.7294L81.3994 16.44ZM82.7594 19.48L81.9157 20.0169L81.9234 20.029L81.9315 20.0408L82.7594 19.48ZM84.7594 21.52L84.1916 22.3432L84.2078 22.3543L84.2243 22.3648L84.7594 21.52ZM87.6394 22.28V23.28H87.6602L87.681 23.2791L87.6394 22.28ZM89.4394 21.84L89.0256 20.9296L89.0175 20.9333L89.0094 20.9371L89.4394 21.84ZM91.9594 18.76L91.014 18.434L91.0089 18.4487L91.0043 18.4636L91.9594 18.76ZM88.8545 23.3744C89.7677 23.5851 90.5028 23.9387 91.0877 24.4152L92.351 22.8648C91.4959 22.168 90.471 21.6949 89.3042 21.4256L88.8545 23.3744ZM91.0877 24.4152C91.7276 24.9366 92.2874 25.5549 92.7673 26.2747L94.4314 25.1653C93.8447 24.2851 93.1512 23.5167 92.351 22.8648L91.0877 24.4152ZM92.7802 26.2935C93.2962 27.0307 93.7422 27.8468 94.1163 28.7446L95.9625 27.9754C95.5365 26.9532 95.0225 26.0093 94.4186 25.1465L92.7802 26.2935ZM94.1202 28.7539C94.5202 29.6873 94.9202 30.6206 95.3202 31.5539L97.1585 30.7661C96.7585 29.8327 96.3585 28.8994 95.9585 27.9661L94.1202 28.7539ZM95.3188 31.5506C95.6964 32.4405 96.0745 33.2914 96.4532 34.1029L98.2656 33.2571C97.8976 32.4686 97.5291 31.6395 97.1599 30.7694L95.3188 31.5506ZM96.4712 34.1394C96.8922 34.9534 97.3463 35.6929 97.8352 36.3544L99.4435 35.1656C99.0258 34.6004 98.6266 33.9532 98.2476 33.2206L96.4712 34.1394ZM97.8481 36.3714C98.359 37.0327 98.9326 37.5813 99.5744 37.9984L100.664 36.3216C100.239 36.0454 99.8264 35.6607 99.4307 35.1486L97.8481 36.3714ZM99.5744 37.9984C100.278 38.4558 101.069 38.68 101.919 38.68V36.68C101.436 36.68 101.027 36.5576 100.664 36.3216L99.5744 37.9984ZM100.919 37.68V38H102.919V37.68H100.919ZM101.919 37C100.173 37 98.8231 36.793 97.8281 36.4228L97.1306 38.2972C98.429 38.7803 100.039 39 101.919 39V37ZM97.847 36.43C96.8049 36.018 96.0354 35.5062 95.4931 34.9206L94.0256 36.2794C94.8167 37.1338 95.8605 37.7953 97.1117 38.29L97.847 36.43ZM95.4931 34.9206C94.9217 34.3035 94.5004 33.5979 94.2253 32.7957L92.3334 33.4443C92.6984 34.5088 93.2637 35.4565 94.0256 36.2794L95.4931 34.9206ZM94.2334 32.8202C93.9513 31.9226 93.7205 31.0123 93.541 30.0891L91.5778 30.4709C91.7716 31.4677 92.0208 32.4507 92.3254 33.4198L94.2334 32.8202ZM93.5458 30.1156C93.3855 29.1541 93.2253 28.2059 93.065 27.271L91.0938 27.609C91.2535 28.5407 91.4132 29.4859 91.573 30.4444L93.5458 30.1156ZM93.0693 27.2986C92.9254 26.2912 92.6772 25.3728 92.3132 24.5539L90.4856 25.3661C90.7616 25.9872 90.9667 26.7221 91.0894 27.5814L93.0693 27.2986ZM92.3132 24.5539C91.9182 23.6652 91.3157 22.9424 90.5141 22.4079L89.4047 24.0721C89.883 24.391 90.2405 24.8148 90.4856 25.3661L92.3132 24.5539ZM90.5538 22.4358C89.7046 21.8082 88.5974 21.56 87.3594 21.56V23.56C88.3613 23.56 88.9875 23.7652 89.365 24.0442L90.5538 22.4358ZM87.3594 21.56C85.7212 21.56 84.392 20.8162 83.3221 19.1416L81.6367 20.2184C83.0201 22.3838 84.9442 23.56 87.3594 23.56V21.56ZM83.3296 19.1536C82.7104 18.1534 82.2261 16.894 81.8974 15.3516L79.9413 15.7684C80.306 17.4794 80.8617 18.9666 81.6291 20.2064L83.3296 19.1536ZM79.9194 15.56V38H81.9194V15.56H79.9194ZM80.9194 37H77.7594V39H80.9194V37ZM78.7594 38V9.72H76.7594V38H78.7594ZM77.7594 10.72H84.7994V8.72H77.7594V10.72ZM84.7994 10.72C86.2116 10.72 87.5374 10.8356 88.7787 11.0635L89.14 9.09645C87.768 8.84444 86.3205 8.72 84.7994 8.72V10.72ZM88.7982 11.0669C90.0208 11.2665 91.0466 11.5979 91.8926 12.0444L92.8261 10.2756C91.7521 9.70877 90.5113 9.32013 89.1205 9.09307L88.7982 11.0669ZM91.9026 12.0496C92.7644 12.4921 93.4055 13.0439 93.8601 13.6935L95.4986 12.5465C94.8333 11.5961 93.9277 10.8412 92.8162 10.2704L91.9026 12.0496ZM93.8601 13.6935C94.2831 14.2976 94.5194 15.0618 94.5194 16.04H96.5194C96.5194 14.7249 96.1957 13.5424 95.4986 12.5465L93.8601 13.6935ZM94.5194 16.04C94.5194 16.9097 94.3668 17.6277 94.0924 18.2189L95.9064 19.0611C96.3253 18.1589 96.5194 17.1437 96.5194 16.04H94.5194ZM94.0924 18.2189C93.7996 18.8495 93.411 19.3798 92.9267 19.8201L94.2721 21.2999C94.9611 20.6736 95.5058 19.9239 95.9064 19.0611L94.0924 18.2189ZM92.9458 19.8032C92.4462 20.2346 91.8594 20.5936 91.177 20.876L91.9417 22.724C92.806 22.3664 93.5792 21.8987 94.253 21.3168L92.9458 19.8032ZM91.2047 20.865C90.5121 21.1277 89.7646 21.3096 88.959 21.4073L89.1997 23.3927C90.1541 23.277 91.06 23.0589 91.914 22.735L91.2047 20.865ZM93.3594 16.04C93.3594 14.7753 93.1247 13.6438 92.5876 12.7039L90.8511 13.6961C91.1674 14.2495 91.3594 15.0113 91.3594 16.04H93.3594ZM92.595 12.7169C92.0948 11.8103 91.4257 11.0716 90.5866 10.523L89.4921 12.197C90.0397 12.555 90.4907 13.043 90.8438 13.6831L92.595 12.7169ZM90.6086 10.5378C89.7894 9.97069 88.8455 9.58942 87.7955 9.37942L87.4033 11.3406C88.2199 11.5039 88.9027 11.7893 89.4702 12.1822L90.6086 10.5378ZM87.8284 9.38658C86.8444 9.15505 85.8341 9.04 84.7994 9.04V11.04C85.6846 11.04 86.541 11.1383 87.3703 11.3334L87.8284 9.38658ZM84.7994 9.04H80.9194V11.04H84.7994V9.04ZM79.9194 10.04V12.52H81.9194V10.04H79.9194ZM79.9194 12.52C79.9194 14.0574 80.0869 15.4571 80.4362 16.7088L82.3626 16.1712C82.0719 15.1295 81.9194 13.916 81.9194 12.52H79.9194ZM80.4422 16.7294C80.8114 17.9507 81.3001 19.0495 81.9157 20.0169L83.603 18.9431C83.0986 18.1505 82.6807 17.2226 82.3566 16.1506L80.4422 16.7294ZM81.9315 20.0408C82.5567 20.9638 83.3097 21.735 84.1916 22.3432L85.3271 20.6968C84.6624 20.2383 84.082 19.6495 83.5873 18.9192L81.9315 20.0408ZM84.2243 22.3648C85.1819 22.9713 86.2337 23.28 87.3594 23.28V21.28C86.6184 21.28 85.9368 21.082 85.2944 20.6752L84.2243 22.3648ZM87.3594 23.28H87.6394V21.28H87.3594V23.28ZM87.681 23.2791C88.4511 23.247 89.1837 23.0694 89.8693 22.7429L89.0094 20.9371C88.5751 21.144 88.1077 21.2596 87.5977 21.2809L87.681 23.2791ZM89.8532 22.7504C90.5791 22.4204 91.2046 21.9413 91.7243 21.3241L90.1945 20.0359C89.8608 20.4321 89.473 20.7262 89.0256 20.9296L89.8532 22.7504ZM91.7243 21.3241C92.2537 20.6954 92.6434 19.9296 92.9144 19.0564L91.0043 18.4636C90.7953 19.1371 90.5183 19.6513 90.1945 20.0359L91.7243 21.3241ZM92.9048 19.086C93.2159 18.1837 93.3594 17.1623 93.3594 16.04H91.3594C91.3594 16.9977 91.2362 17.7896 91.014 18.434L92.9048 19.086ZM107.793 37.68H106.793V38.68H107.793V37.68ZM118.832 36.4L118.217 35.6117L118.832 36.4ZM121.552 32.08L122.541 32.2336L120.61 31.7452L121.552 32.08ZM120.633 38V39H121.489L121.621 38.1536L120.633 38ZM104.712 38H103.712V39H104.712V38ZM104.712 9.76V8.76H103.712V9.76H104.712ZM120.872 9.76H121.872V8.76H120.872V9.76ZM120.872 12.96L120.193 13.6938L121.872 15.2488V12.96H120.872ZM118.793 11.36L118.263 12.208L118.27 12.2128L118.278 12.2175L118.793 11.36ZM116.712 10.48L116.462 11.448L116.47 11.4501L116.712 10.48ZM114.272 10.12L114.214 11.1183L114.272 10.12ZM107.793 10.04V9.04H106.793V10.04H107.793ZM108.312 19.88L107.382 20.2465L107.386 20.2564L108.312 19.88ZM109.872 21.88L109.303 22.7022L109.872 21.88ZM112.473 22.88L112.296 23.8643L112.308 23.8665L112.32 23.8684L112.473 22.88ZM116.073 23.12H117.073V22.12H116.073V23.12ZM116.073 26.28L115.322 26.9406L117.073 28.9301V26.28H116.073ZM113.953 24.72L113.541 25.6314L113.953 24.72ZM111.473 23.52L110.979 24.39L110.996 24.3997L111.014 24.4086L111.473 23.52ZM109.233 21.88L108.54 22.6014L108.547 22.6082L108.554 22.6148L109.233 21.88ZM107.793 19.16L108.763 18.9175L106.793 19.16H107.793ZM107.793 38.68H114.552V36.68H107.793V38.68ZM114.552 38.68C116.475 38.68 118.136 38.2121 119.448 37.1883L118.217 35.6117C117.342 36.2946 116.15 36.68 114.552 36.68V38.68ZM119.448 37.1883C120.752 36.1701 121.743 34.5297 122.495 32.4148L120.61 31.7452C119.922 33.6837 119.099 34.9232 118.217 35.6117L119.448 37.1883ZM120.564 31.9264L119.644 37.8464L121.621 38.1536L122.541 32.2336L120.564 31.9264ZM120.633 37H104.712V39H120.633V37ZM105.712 38V9.76H103.712V38H105.712ZM104.712 10.76H120.872V8.76H104.712V10.76ZM119.872 9.76V12.96H121.872V9.76H119.872ZM121.552 12.2262C120.794 11.5243 120.046 10.9458 119.307 10.5025L118.278 12.2175C118.873 12.5742 119.511 13.0623 120.193 13.6938L121.552 12.2262ZM119.323 10.512C118.592 10.0554 117.801 9.72142 116.955 9.50986L116.47 11.4501C117.117 11.6119 117.713 11.8646 118.263 12.208L119.323 10.512ZM116.963 9.512C116.169 9.30591 115.289 9.17807 114.331 9.12172L114.214 11.1183C115.069 11.1686 115.816 11.2808 116.462 11.448L116.963 9.512ZM114.331 9.12172C113.4 9.06692 112.312 9.04 111.073 9.04V11.04C112.286 11.04 113.332 11.0664 114.214 11.1183L114.331 9.12172ZM111.073 9.04H107.793V11.04H111.073V9.04ZM106.793 10.04V16.52H108.793V10.04H106.793ZM106.793 16.52C106.793 17.955 106.974 19.2106 107.382 20.2465L109.243 19.5135C108.958 18.7894 108.793 17.805 108.793 16.52H106.793ZM107.386 20.2564C107.799 21.2726 108.435 22.1013 109.303 22.7022L110.442 21.0578C109.923 20.6987 109.519 20.1941 109.239 19.5036L107.386 20.2564ZM109.303 22.7022C110.14 23.2816 111.15 23.6585 112.296 23.8643L112.649 21.8957C111.716 21.7281 110.991 21.4384 110.442 21.0578L109.303 22.7022ZM112.32 23.8684C113.423 24.038 114.675 24.12 116.073 24.12V22.12C114.75 22.12 113.602 22.042 112.625 21.8916L112.32 23.8684ZM115.073 23.12V26.28H117.073V23.12H115.073ZM116.823 25.6194C116.141 24.8436 115.317 24.2392 114.364 23.8086L113.541 25.6314C114.241 25.9475 114.831 26.383 115.322 26.9406L116.823 25.6194ZM114.364 23.8086C113.554 23.4426 112.743 23.0503 111.931 22.6314L111.014 24.4086C111.856 24.8431 112.698 25.2507 113.541 25.6314L114.364 23.8086ZM111.966 22.65C111.234 22.2354 110.549 21.7345 109.911 21.1452L108.554 22.6148C109.302 23.3055 110.111 23.8979 110.979 24.39L111.966 22.65ZM109.925 21.1586C109.43 20.6834 109.024 19.9635 108.763 18.9175L106.822 19.4025C107.148 20.7032 107.702 21.7966 108.54 22.6014L109.925 21.1586ZM106.793 19.16V37.68H108.793V19.16H106.793ZM141.613 10.36L141.228 11.2831L141.243 11.2894L141.259 11.2953L141.613 10.36ZM144.333 12L143.676 12.7541L143.689 12.7653L143.702 12.7761L144.333 12ZM146.653 14.52L145.835 15.0949L145.844 15.1076L145.853 15.12L146.653 14.52ZM148.613 17.68L147.723 18.1355L147.729 18.1484L147.736 18.1611L148.613 17.68ZM151.413 24.92L150.443 25.1649L150.446 25.1764L151.413 24.92ZM152.893 32.72L151.899 32.8327L153.893 32.72H152.893ZM152.893 9.76V8.76H151.893V9.76H152.893ZM155.893 9.76H156.893V8.76H155.893V9.76ZM155.893 38V39H156.893V38H155.893ZM152.893 38H151.893V39H152.893V38ZM152.613 33L151.618 33.1055L151.619 33.1071L152.613 33ZM151.773 27.72L150.795 27.9275L151.773 27.72ZM150.373 22.56L149.418 22.8583L149.421 22.8673L149.424 22.8762L150.373 22.56ZM148.453 17.84L149.341 17.3796L149.335 17.3683L148.453 17.84ZM146.493 14.72L145.682 15.3055L145.69 15.3163L146.493 14.72ZM144.213 12.24L144.855 11.4738V11.4738L144.213 12.24ZM141.533 10.64L141.139 11.5591L141.155 11.5658L141.17 11.572L141.533 10.64ZM138.533 10.04V9.04H137.533V10.04H138.533ZM138.533 38V39H139.533V38H138.533ZM135.533 38H134.533V39H135.533V38ZM135.533 9.76V8.76H134.533V9.76H135.533ZM138.533 10.76C139.501 10.76 140.396 10.9364 141.228 11.2831L141.997 9.43692C140.909 8.98356 139.751 8.76 138.533 8.76V10.76ZM141.259 11.2953C142.13 11.625 142.935 12.1089 143.676 12.7541L144.99 11.2459C144.077 10.4511 143.069 9.84165 141.967 9.42471L141.259 11.2953ZM143.702 12.7761C144.478 13.406 145.189 14.1764 145.835 15.0949L147.471 13.9451C146.73 12.8902 145.895 11.9806 144.963 11.2239L143.702 12.7761ZM145.853 15.12C146.536 16.0313 147.16 17.0358 147.723 18.1355L149.503 17.2245C148.892 16.0309 148.209 14.9287 147.453 13.92L145.853 15.12ZM147.736 18.1611C148.892 20.2668 149.796 22.5998 150.443 25.1648L152.382 24.6752C151.697 21.9602 150.734 19.4665 149.489 17.1989L147.736 18.1611ZM150.446 25.1764C151.128 27.7444 151.612 30.2964 151.899 32.8327L153.886 32.6073C153.587 29.9703 153.085 27.3223 152.379 24.6636L150.446 25.1764ZM153.893 32.72V9.76H151.893V32.72H153.893ZM152.893 10.76H155.893V8.76H152.893V10.76ZM154.893 9.76V38H156.893V9.76H154.893ZM155.893 37H152.893V39H155.893V37ZM153.893 38C153.893 36.3612 153.797 34.6587 153.607 32.8929L151.619 33.1071C151.802 34.808 151.893 36.4388 151.893 38H153.893ZM153.607 32.8945C153.417 31.0997 153.131 29.3056 152.751 27.5125L150.795 27.9275C151.161 29.6544 151.435 31.3803 151.618 33.1055L153.607 32.8945ZM152.751 27.5125C152.37 25.7163 151.894 23.96 151.322 22.2438L149.424 22.8762C149.972 24.52 150.429 26.2037 150.795 27.9275L152.751 27.5125ZM151.327 22.2617C150.778 20.5048 150.117 18.8766 149.341 17.3797L147.565 18.3003C148.282 19.6834 148.901 21.2019 149.418 22.8583L151.327 22.2617ZM149.335 17.3683C148.701 16.1832 148.021 15.1009 147.296 14.1237L145.69 15.3163C146.351 16.2058 146.978 17.2034 147.571 18.3117L149.335 17.3683ZM147.303 14.1345C146.566 13.114 145.751 12.2251 144.855 11.4738L143.57 13.0062C144.328 13.6416 145.033 14.406 145.682 15.3055L147.303 14.1345ZM144.855 11.4738C143.949 10.7136 142.962 10.1228 141.895 9.70799L141.17 11.572C142.024 11.9039 142.823 12.3797 143.57 13.0062L144.855 11.4738ZM141.927 9.72085C140.863 9.26483 139.728 9.04 138.533 9.04V11.04C139.471 11.04 140.336 11.2152 141.139 11.5591L141.927 9.72085ZM137.533 10.04V38H139.533V10.04H137.533ZM138.533 37H135.533V39H138.533V37ZM136.533 38V9.76H134.533V38H136.533ZM135.533 10.76H138.533V8.76H135.533V10.76ZM169.257 10.16L169.515 11.126L169.523 11.1238L169.532 11.1215L169.257 10.16ZM174.817 9.8L174.659 10.7875L174.667 10.7888L174.675 10.7899L174.817 9.8ZM179.937 11.6L179.42 12.4562L179.429 12.4614L179.438 12.4664L179.937 11.6ZM184.017 15.2L183.224 15.8091L183.231 15.8178L184.017 15.2ZM186.497 20.28L185.528 20.5257L185.531 20.5403L185.535 20.5547L186.497 20.28ZM186.897 25.88L187.887 26.0234L187.887 26.0214L186.897 25.88ZM185.137 31.04L186.003 31.5393L186.007 31.533L185.137 31.04ZM181.537 35.16L182.153 35.9478L182.155 35.9463L181.537 35.16ZM176.497 37.64L176.238 36.6739L176.226 36.6775L176.497 37.64ZM170.897 38.04L170.753 39.0297L170.897 38.04ZM165.777 36.28L165.271 37.1427L165.278 37.1464L165.777 36.28ZM161.697 32.68L160.911 33.2978L161.697 32.68ZM159.177 27.56L160.144 27.3048L160.143 27.3015L159.177 27.56ZM158.817 21.92L157.829 21.7647L157.827 21.7786L158.817 21.92ZM160.617 16.76L159.757 16.2498L159.75 16.2607L160.617 16.76ZM164.217 12.68L164.833 13.4679L164.842 13.4609L164.217 12.68ZM169.297 10.48L169.554 11.4465L169.561 11.4446L169.568 11.4427L169.297 10.48ZM165.097 12.92L164.365 12.2383L164.365 12.2389L165.097 12.92ZM162.697 16.96L163.642 17.286L162.697 16.96ZM161.857 21.88L162.857 21.8956V21.8954L161.857 21.88ZM162.417 26.72L161.45 26.9745L162.417 26.72ZM164.337 31.2L165.194 30.6855L164.337 31.2ZM167.497 35L166.841 35.7547L166.85 35.7628L167.497 35ZM171.617 37.32L171.301 38.2687L171.308 38.2712L171.316 38.2736L171.617 37.32ZM176.417 37.36L176.174 36.3899L176.165 36.3921L176.156 36.3945L176.417 37.36ZM180.617 34.96L181.349 35.6418L181.356 35.6335L180.617 34.96ZM183.057 30.84L182.117 30.4996L182.114 30.5068L182.112 30.514L183.057 30.84ZM183.937 25.96L182.937 25.9292L182.937 25.9368L182.937 25.9444L183.937 25.96ZM183.417 21.08L182.449 21.3304L182.45 21.3345L183.417 21.08ZM181.497 16.56L180.639 17.0745L181.497 16.56ZM178.297 12.76L177.641 13.5146L177.649 13.5215L178.297 12.76ZM174.137 10.48L173.836 11.4336L173.846 11.4367L173.856 11.4396L174.137 10.48ZM173.937 1.12L174.595 1.87257L174.608 1.86127L174.621 1.84954L173.937 1.12ZM174.977 0.479999L175.076 1.47504V1.47504L174.977 0.479999ZM175.657 0.759998L176.476 0.186535L176.445 0.142211L176.409 0.101494L175.657 0.759998ZM175.777 1.56L174.848 1.18861V1.18861L175.777 1.56ZM174.897 2.4L174.375 1.54672L174.327 1.57608L174.283 1.61065L174.897 2.4ZM173.657 3.16L173.178 2.2821L173.169 2.28684L173.161 2.29176L173.657 3.16ZM171.937 4.16L172.437 5.02623L172.446 5.02093L171.937 4.16ZM169.737 5.4L168.788 5.71623L169.168 6.85591L170.22 6.27558L169.737 5.4ZM169.697 5.28L168.99 4.57289L168.553 5.00991L168.748 5.59624L169.697 5.28ZM171.497 3.48L170.79 2.77289L171.497 3.48ZM172.897 2.08L172.21 1.35298L172.2 1.36279L172.19 1.37289L172.897 2.08ZM169.532 11.1215C171.264 10.6266 172.97 10.5182 174.659 10.7875L174.974 8.81247C172.984 8.49518 170.983 8.62675 168.982 9.19847L169.532 11.1215ZM174.675 10.7899C176.415 11.0385 177.993 11.5952 179.42 12.4562L180.454 10.7438C178.787 9.73814 176.952 9.09484 174.958 8.81005L174.675 10.7899ZM179.438 12.4664C180.893 13.305 182.154 14.4161 183.224 15.809L184.81 14.591C183.586 12.9973 182.128 11.7083 180.436 10.7336L179.438 12.4664ZM183.231 15.8178C184.315 17.1981 185.081 18.7639 185.528 20.5257L187.466 20.0343C186.953 18.0094 186.065 16.1886 184.803 14.5822L183.231 15.8178ZM185.535 20.5547C186.031 22.2903 186.153 24.0152 185.907 25.7386L187.887 26.0214C188.174 24.0114 188.029 22.003 187.458 20.0053L185.535 20.5547ZM185.907 25.7366C185.658 27.455 185.112 29.0563 184.267 30.547L186.007 31.533C186.975 29.8237 187.602 27.985 187.887 26.0234L185.907 25.7366ZM184.27 30.5407C183.43 31.9983 182.317 33.2756 180.919 34.3737L182.155 35.9463C183.744 34.6977 185.03 33.2283 186.003 31.5393L184.27 30.5407ZM180.921 34.3722C179.566 35.4317 178.009 36.2002 176.238 36.674L176.755 38.606C178.772 38.0664 180.575 37.1816 182.153 35.9478L180.921 34.3722ZM176.226 36.6775C174.459 37.1751 172.734 37.2958 171.04 37.0503L170.753 39.0297C172.74 39.3176 174.748 39.1716 176.768 38.6025L176.226 36.6775ZM171.04 37.0503C169.323 36.8014 167.737 36.2555 166.276 35.4136L165.278 37.1464C166.963 38.1179 168.791 38.7453 170.753 39.0297L171.04 37.0503ZM166.283 35.4173C164.85 34.5777 163.584 33.4629 162.483 32.0622L160.911 33.2978C162.157 34.8837 163.61 36.169 165.271 37.1427L166.283 35.4173ZM162.483 32.0622C161.398 30.681 160.617 29.099 160.144 27.3048L158.21 27.8152C158.75 29.861 159.649 31.6923 160.911 33.2978L162.483 32.0622ZM160.143 27.3015C159.67 25.5332 159.56 23.7893 159.807 22.0614L157.827 21.7786C157.54 23.7841 157.671 25.8001 158.211 27.8185L160.143 27.3015ZM159.805 22.0752C160.08 20.3247 160.64 18.7221 161.483 17.2593L159.75 16.2607C158.78 17.9446 158.141 19.7819 157.829 21.7648L159.805 22.0752ZM161.477 17.2702C162.346 15.8057 163.462 14.5393 164.833 13.4678L163.601 11.8922C162.038 13.114 160.755 14.5676 159.757 16.2498L161.477 17.2702ZM164.842 13.4609C166.196 12.3777 167.75 11.5985 169.515 11.126L168.998 9.19399C166.977 9.73481 165.172 10.6357 163.592 11.8991L164.842 13.4609ZM169.04 9.51351C167.171 10.0101 165.6 10.9135 164.365 12.2383L165.828 13.6017C166.781 12.5798 168.01 11.8565 169.554 11.4465L169.04 9.51351ZM164.365 12.2389C163.199 13.4923 162.328 14.9614 161.751 16.634L163.642 17.286C164.132 15.8653 164.862 14.641 165.829 13.6011L164.365 12.2389ZM161.751 16.634C161.182 18.2865 160.885 20.0318 160.857 21.8646L162.857 21.8954C162.882 20.2615 163.145 18.7268 163.642 17.286L161.751 16.634ZM160.857 21.8644C160.829 23.6544 161.025 25.3592 161.45 26.9745L163.384 26.4655C163.009 25.0408 162.831 23.5189 162.857 21.8956L160.857 21.8644ZM161.45 26.9745C161.876 28.5936 162.555 30.1739 163.479 31.7145L165.194 30.6855C164.359 29.2928 163.758 27.8864 163.384 26.4655L161.45 26.9745ZM163.479 31.7145C164.411 33.2666 165.531 34.6154 166.841 35.7546L168.153 34.2454C167.01 33.2512 166.023 32.0668 165.194 30.6855L163.479 31.7145ZM166.85 35.7628C168.174 36.8849 169.659 37.7215 171.301 38.2687L171.933 36.3713C170.535 35.9051 169.273 35.1951 168.144 34.2372L166.85 35.7628ZM171.316 38.2736C173.035 38.8164 174.83 38.8238 176.677 38.3255L176.156 36.3945C174.643 36.8028 173.239 36.7836 171.918 36.3664L171.316 38.2736ZM176.659 38.3301C178.535 37.8613 180.111 36.97 181.348 35.6417L179.885 34.2783C178.936 35.2966 177.712 36.0053 176.174 36.3899L176.659 38.3301ZM181.356 35.6335C182.542 34.3321 183.425 32.8403 184.002 31.166L182.112 30.514C181.622 31.9331 180.879 33.1879 179.878 34.2865L181.356 35.6335ZM183.997 31.1804C184.596 29.5257 184.908 27.7889 184.937 25.9756L182.937 25.9444C182.912 27.5444 182.637 29.061 182.117 30.4996L183.997 31.1804ZM184.936 25.9908C184.992 24.1711 184.811 22.4476 184.384 20.8255L182.45 21.3345C182.823 22.7524 182.988 24.2822 182.937 25.9292L184.936 25.9908ZM184.385 20.8296C183.959 19.1837 183.28 17.5886 182.354 16.0455L180.639 17.0745C181.474 18.4647 182.074 19.8829 182.449 21.3304L184.385 20.8296ZM182.354 16.0455C181.421 14.4894 180.284 13.1383 178.945 11.9985L177.649 13.5215C178.816 14.515 179.813 15.6973 180.639 17.0745L182.354 16.0455ZM178.953 12.0054C177.619 10.845 176.104 10.0146 174.418 9.52037L173.856 11.4396C175.263 11.8521 176.522 12.5417 177.641 13.5146L178.953 12.0054ZM174.438 9.52642C172.712 8.98131 170.898 8.99076 169.026 9.51735L169.568 11.4427C171.109 11.0092 172.522 11.0187 173.836 11.4336L174.438 9.52642ZM174.621 1.84954C174.804 1.67742 174.944 1.57151 175.041 1.51166C175.146 1.44688 175.151 1.46754 175.076 1.47504L174.877 -0.515038C174.536 -0.480872 174.234 -0.340213 173.993 -0.19166C173.743 -0.0381784 173.496 0.162579 173.253 0.39046L174.621 1.84954ZM175.076 1.47504C175.062 1.47649 175.019 1.47625 174.966 1.45468C174.916 1.43397 174.897 1.40989 174.904 1.4185L176.409 0.101494C176.024 -0.338626 175.487 -0.576008 174.877 -0.515038L175.076 1.47504ZM174.838 1.33346C174.86 1.36603 174.845 1.35641 174.838 1.30834C174.834 1.2851 174.834 1.26012 174.837 1.23596C174.84 1.21218 174.845 1.1959 174.848 1.18861L176.705 1.93139C176.956 1.30546 176.826 0.686317 176.476 0.186535L174.838 1.33346ZM174.848 1.18861C174.865 1.14593 174.869 1.16762 174.786 1.24664C174.707 1.32264 174.576 1.42407 174.375 1.54672L175.418 3.25328C175.933 2.93855 176.472 2.5155 176.705 1.93138L174.848 1.18861ZM174.283 1.61065C174.112 1.74396 173.76 1.96485 173.178 2.2821L174.136 4.03789C174.727 3.71514 175.202 3.42938 175.511 3.18935L174.283 1.61065ZM173.161 2.29176C172.596 2.61429 172.019 2.95007 171.428 3.29907L172.446 5.02093C173.028 4.67659 173.597 4.3457 174.153 4.02824L173.161 2.29176ZM171.437 3.29381C170.75 3.69032 170.022 4.10052 169.254 4.52442L170.22 6.27558C170.998 5.84614 171.737 5.42967 172.437 5.02619L171.437 3.29381ZM170.686 5.08376L170.646 4.96376L168.748 5.59624L168.788 5.71623L170.686 5.08376ZM170.404 5.98711L172.204 4.18711L170.79 2.77289L168.99 4.57289L170.404 5.98711ZM172.204 4.18711C172.684 3.70711 173.151 3.24044 173.604 2.7871L172.19 1.37289C171.736 1.82622 171.27 2.29289 170.79 2.77289L172.204 4.18711ZM173.583 2.80701C174.063 2.35404 174.398 2.04557 174.595 1.87257L173.278 0.367423C173.049 0.567764 172.691 0.899287 172.21 1.35298L173.583 2.80701ZM192.989 12.84L192.191 12.2366L192.186 12.2435L192.181 12.2505L192.989 12.84ZM195.829 10.56L196.25 11.4667L196.259 11.4627L196.268 11.4586L195.829 10.56ZM199.629 9.56L199.705 10.5571L199.714 10.5564L199.723 10.5556L199.629 9.56ZM203.749 9.76L203.945 8.77942V8.77942L203.749 9.76ZM207.429 11.08L207.909 10.2029V10.2029L207.429 11.08ZM209.949 13.4H210.949V13.123L210.806 12.8855L209.949 13.4ZM209.949 17.6L209.052 18.0425L210.949 17.6H209.949ZM206.389 12.8L205.737 13.5582L205.744 13.5645L206.389 12.8ZM202.309 10.44L202.015 11.3958V11.3958L202.309 10.44ZM198.269 10.12L198.41 11.1099L198.42 11.1085L198.43 11.1069L198.269 10.12ZM194.949 11.36L195.497 12.1965L195.511 12.187L195.525 12.177L194.949 11.36ZM193.349 13.32L194.284 13.6747L194.288 13.6643L193.349 13.32ZM193.589 15.92L194.493 15.493V15.493L193.589 15.92ZM196.229 19L195.587 19.767L195.595 19.7733L196.229 19ZM201.909 22.36L201.485 23.2659L201.496 23.2709L201.507 23.2756L201.909 22.36ZM205.069 23.88L204.603 24.765L204.612 24.7698L205.069 23.88ZM207.789 25.76L207.107 26.4919L207.12 26.504L207.134 26.5157L207.789 25.76ZM209.709 28.16L208.825 28.6279L208.831 28.6389L209.709 28.16ZM209.789 34.12L208.9 33.6614L208.894 33.6728L208.889 33.6844L209.789 34.12ZM208.109 36.24L208.718 37.0333L208.729 37.0244L208.74 37.0152L208.109 36.24ZM203.949 37.92L203.803 36.9307L203.8 36.9311L203.949 37.92ZM198.949 37.76L198.75 38.74L198.753 38.7406L198.949 37.76ZM193.949 35.88L193.445 36.7438L193.453 36.7487L193.462 36.7535L193.949 35.88ZM189.869 32.32H188.869V32.6631L189.079 32.9339L189.869 32.32ZM189.869 26.76L190.798 26.3903L188.869 26.76H189.869ZM193.589 33L192.841 33.6644L192.847 33.6706L192.853 33.6768L193.589 33ZM198.389 36.68L197.959 37.5829L197.971 37.5884L198.389 36.68ZM203.389 37.68L203.325 36.682L203.324 36.6821L203.389 37.68ZM207.789 35.92L207.146 35.1543L207.141 35.1585L207.789 35.92ZM209.069 33.96L210.039 34.2025L210.041 34.1946L209.069 33.96ZM208.589 31.44L207.71 31.9171L207.716 31.9278L208.589 31.44ZM205.829 28.48L205.206 29.2625L205.214 29.2685L205.829 28.48ZM200.389 25.32L200.806 24.4114L200.799 24.4081L200.389 25.32ZM197.269 23.8L196.785 24.6752L196.794 24.6802L196.803 24.6849L197.269 23.8ZM194.549 21.92L193.894 22.6757L194.549 21.92ZM192.629 19.6L191.751 20.0789L191.757 20.0903L192.629 19.6ZM192.909 16.56C192.909 15.2305 193.227 14.2098 193.797 13.4295L192.181 12.2505C191.31 13.4435 190.909 14.9028 190.909 16.56H192.909ZM193.786 13.4434C194.432 12.59 195.249 11.9327 196.25 11.4667L195.407 9.65328C194.116 10.2539 193.039 11.1167 192.191 12.2366L193.786 13.4434ZM196.268 11.4586C197.291 10.9587 198.433 10.6549 199.705 10.5571L199.552 8.56294C198.051 8.67842 196.66 9.04125 195.39 9.66143L196.268 11.4586ZM199.723 10.5556C201.043 10.431 202.319 10.4938 203.553 10.7406L203.945 8.77942C202.512 8.49284 201.041 8.42235 199.535 8.56442L199.723 10.5556ZM203.553 10.7406C204.793 10.9887 205.923 11.3955 206.948 11.9571L207.909 10.2029C206.695 9.5378 205.371 9.06468 203.945 8.77942L203.553 10.7406ZM206.948 11.9571C207.94 12.5001 208.637 13.1579 209.091 13.9145L210.806 12.8855C210.14 11.7754 209.158 10.8866 207.909 10.2029L206.948 11.9571ZM208.949 13.4V17.6H210.949V13.4H208.949ZM210.845 17.1574C209.788 15.0146 208.524 13.2925 207.033 12.0355L205.744 13.5645C206.973 14.6008 208.083 16.0787 209.052 18.0425L210.845 17.1574ZM207.041 12.0418C205.625 10.824 204.146 9.95903 202.603 9.48422L202.015 11.3958C203.245 11.7743 204.486 12.4827 205.737 13.5582L207.041 12.0418ZM202.603 9.48422C201.083 9.01664 199.581 8.89259 198.108 9.13307L198.43 11.1069C199.57 10.9207 200.761 11.01 202.015 11.3958L202.603 9.48422ZM198.127 9.13005C196.693 9.33489 195.43 9.79596 194.372 10.543L195.525 12.177C196.28 11.644 197.231 11.2784 198.41 11.1099L198.127 9.13005ZM194.401 10.5235C193.464 11.1374 192.784 11.9565 192.41 12.9757L194.288 13.6643C194.501 13.0835 194.887 12.5959 195.497 12.1965L194.401 10.5235ZM192.414 12.9653C191.999 14.0596 192.15 15.2148 192.685 16.347L194.493 15.493C194.121 14.7052 194.112 14.1271 194.284 13.6747L192.414 12.9653ZM192.685 16.347C193.226 17.4936 194.229 18.6305 195.587 19.7669L196.87 18.2331C195.615 17.1828 194.858 16.2664 194.493 15.493L192.685 16.347ZM195.595 19.7733C197.018 20.9405 198.994 22.1016 201.485 23.2659L202.332 21.4541C199.917 20.3251 198.106 19.2462 196.863 18.2267L195.595 19.7733ZM201.507 23.2756C202.579 23.7466 203.611 24.243 204.603 24.7649L205.534 22.9951C204.499 22.4503 203.425 21.9334 202.311 21.4444L201.507 23.2756ZM204.612 24.7698C205.579 25.2655 206.408 25.8409 207.107 26.4919L208.47 25.0281C207.623 24.2391 206.638 23.5611 205.525 22.9902L204.612 24.7698ZM207.134 26.5157C207.843 27.1307 208.405 27.834 208.825 28.6279L210.593 27.6921C210.053 26.6727 209.334 25.776 208.444 25.0043L207.134 26.5157ZM208.831 28.6389C209.218 29.3487 209.429 30.2053 209.429 31.24H211.429C211.429 29.928 211.159 28.7313 210.587 27.6811L208.831 28.6389ZM209.429 31.24C209.429 32.2017 209.242 32.9994 208.9 33.6614L210.677 34.5786C211.189 33.5873 211.429 32.465 211.429 31.24H209.429ZM208.889 33.6844C208.553 34.3781 208.085 34.9693 207.477 35.4648L208.74 37.0152C209.572 36.3374 210.225 35.5152 210.689 34.5556L208.889 33.6844ZM207.5 35.4467C206.506 36.2095 205.285 36.7121 203.803 36.9307L204.095 38.9093C205.866 38.6479 207.418 38.0305 208.718 37.0333L207.5 35.4467ZM203.8 36.9311C202.325 37.1524 200.775 37.1055 199.145 36.7794L198.753 38.7406C200.589 39.1078 202.373 39.1676 204.097 38.9089L203.8 36.9311ZM199.148 36.78C197.549 36.4552 195.979 35.8666 194.436 35.0065L193.462 36.7535C195.172 37.7068 196.935 38.3715 198.75 38.74L199.148 36.78ZM194.453 35.0162C192.961 34.1462 191.699 33.0438 190.658 31.7061L189.079 32.9339C190.279 34.4762 191.736 35.7472 193.445 36.7438L194.453 35.0162ZM190.869 32.32V26.76H188.869V32.32H190.869ZM188.94 27.1297C189.961 29.698 191.258 31.8829 192.841 33.6644L194.336 32.3356C192.933 30.7571 191.749 28.782 190.798 26.3903L188.94 27.1297ZM192.853 33.6768C194.442 35.4054 196.142 36.7177 197.959 37.5829L198.819 35.7771C197.276 35.0423 195.776 33.9013 194.325 32.3232L192.853 33.6768ZM197.971 37.5884C199.784 38.423 201.615 38.7965 203.453 38.6779L203.324 36.6821C201.855 36.7768 200.354 36.4837 198.807 35.7716L197.971 37.5884ZM203.452 38.678C205.342 38.558 207.015 37.8914 208.437 36.6815L207.141 35.1585C206.056 36.0819 204.795 36.5887 203.325 36.682L203.452 38.678ZM208.432 36.6857C209.238 36.0087 209.795 35.18 210.039 34.2025L208.099 33.7175C207.97 34.2333 207.673 34.7113 207.146 35.1543L208.432 36.6857ZM210.041 34.1946C210.303 33.1092 210.053 32.0095 209.462 30.9522L207.716 31.9278C208.138 32.6838 208.208 33.2641 208.097 33.7254L210.041 34.1946ZM209.468 30.9629C208.868 29.8583 207.829 28.7717 206.444 27.6915L205.214 29.2685C206.496 30.2683 207.296 31.155 207.71 31.9171L209.468 30.9629ZM206.452 27.6976C205.058 26.5884 203.165 25.496 200.806 24.4114L199.971 26.2286C202.252 27.2773 203.986 28.2916 205.206 29.2624L206.452 27.6976ZM200.799 24.4081C199.751 23.9363 198.729 23.4386 197.734 22.9151L196.803 24.6849C197.835 25.228 198.893 25.7437 199.978 26.2319L200.799 24.4081ZM197.752 22.9248C196.795 22.3954 195.946 21.8079 195.204 21.1643L193.894 22.6757C194.751 23.4188 195.716 24.0846 196.785 24.6752L197.752 22.9248ZM195.204 21.1643C194.484 20.5402 193.919 19.8549 193.5 19.1097L191.757 20.0903C192.298 21.0517 193.014 21.9131 193.894 22.6757L195.204 21.1643ZM193.507 19.1211C193.118 18.408 192.909 17.5637 192.909 16.56H190.909C190.909 17.8496 191.18 19.032 191.751 20.0789L193.507 19.1211Z" fill="white" mask="url(#path-1-outside-1_4_136)"/>
</svg>
